<?xml version="1.0" standalone="no"?>
<!DOCTYPE svg PUBLIC "-//W3C//DTD SVG 1.1//EN" "http://www.w3.org/Graphics/SVG/1.1/DTD/svg11.dtd" >
<svg>
<metadata>
Created by FontForge 20090622 at Fri May 24 15:56:10 2019
 By deploy user
Copyright &#194;&#169; by Binnenland, 2006. All rights reserved. This software may not be reproduced, used, displayed, modified, disclosed or transferred without the express written approval of (Binnenland).
</metadata>
<defs>
<font id="MINISerif-Black" horiz-adv-x="1093" >
  <font-face 
    font-family="MINI Serif Black"
    font-weight="900"
    font-stretch="normal"
    units-per-em="2048"
    panose-1="2 0 10 6 3 0 0 2 0 4"
    ascent="1536"
    descent="-512"
    x-height="915"
    cap-height="1327"
    bbox="-176 -455 2021 1843"
    underline-thickness="100"
    underline-position="-500"
    unicode-range="U+0020-U+FB02"
  />
<missing-glyph horiz-adv-x="748" 
d="M68 0v1365h544v-1365h-544zM136 68h408v1229h-408v-1229z" />
    <glyph glyph-name=".notdef" horiz-adv-x="748" 
d="M68 0v1365h544v-1365h-544zM136 68h408v1229h-408v-1229z" />
    <glyph glyph-name="glyph1" horiz-adv-x="0" 
 />
    <glyph glyph-name="glyph2" horiz-adv-x="682" 
 />
    <glyph glyph-name="space" unicode=" " horiz-adv-x="512" 
 />
    <glyph glyph-name="exclam" unicode="!" horiz-adv-x="503" 
d="M162 414l-35 911h252l-33 -911h-184zM113 111q0 61 38.5 99t100.5 38q60 0 98.5 -38t38.5 -99q0 -59 -39 -99.5t-98 -40.5q-61 0 -100 40.5t-39 99.5z" />
    <glyph glyph-name="quotedbl" unicode="&#x22;" horiz-adv-x="804" 
d="M303 1415l-102 -438h-127v438h229zM645 1415l-104 -438h-121l-2 438h227z" />
    <glyph glyph-name="numbersign" unicode="#" horiz-adv-x="1277" 
d="M1159 545v-121h-346l-156 -477h-127l154 477h-262l-152 -477h-133l152 477h-223v121h262l90 272h-303v121h340l141 440h131l-141 -440h260l143 440h131l-137 -440h227v-121h-268l-92 -272h309zM549 817l-92 -272h262l92 272h-262z" />
    <glyph glyph-name="dollar" unicode="$" horiz-adv-x="1009" 
d="M80 377h176q21 -163 79 -234t152 -71q98 0 158 62.5t60 162.5q0 104 -72 160q-23 18 -191.5 127.5t-195.5 128.5q-74 51 -123 127.5t-49 175.5q0 133 94 221.5t260 103.5v197h125v-195q108 -9 196 -45.5t144 -93.5v-252h-178q-8 88 -27 148t-49 93.5t-65 47.5t-82 14
q-96 0 -141.5 -61t-45.5 -150q0 -44 20 -83.5t56 -63.5q248 -170 375 -246q188 -116 188 -315q0 -142 -106.5 -240.5t-284.5 -113.5v-193h-125v191q-233 16 -348 147v250z" />
    <glyph glyph-name="percent" unicode="%" horiz-adv-x="1394" 
d="M326 614q-127 0 -209 90.5t-82 268.5q0 169 83 260.5t208 91.5q126 0 208 -88t82 -264q0 -173 -83 -266t-207 -93zM1063 0q-123 0 -206 91t-83 263q0 171 83.5 264t205.5 93q129 0 212 -89t83 -268q0 -171 -84 -262.5t-211 -91.5zM231 973q0 -273 95 -273q92 0 92 273
q0 268 -92 268q-95 0 -95 -268zM975 354q0 -56 3.5 -98t12 -82.5t27 -62t45.5 -21.5q96 0 96 264q0 273 -96 273q-88 0 -88 -273zM879 1378h135l-514 -1431h-138z" />
    <glyph glyph-name="ampersand" unicode="&#x26;" horiz-adv-x="1077" 
d="M547 1251q-79 0 -124.5 -68t-45.5 -157q-1 -54 7.5 -102.5t28 -92t57 -69t87.5 -25.5v-80h-29q-72 0 -125 -45t-76.5 -108.5t-23.5 -132.5q0 -137 67.5 -220t166.5 -83q61 0 109 22t76.5 58.5t43 80t14.5 90.5q0 60 -15 111t-42 72h-139v84h465v-84h-101q53 -88 53 -174
q0 -147 -124.5 -249t-339.5 -102q-89 0 -170.5 23.5t-150 69.5t-109.5 124.5t-41 178.5q0 119 70.5 208.5t182.5 131.5q-78 51 -119.5 117.5t-41.5 164.5q0 158 106.5 250t274.5 92q105 0 203 -37.5t153 -99.5v-235h-160q-17 168 -56 227t-132 59z" />
    <glyph glyph-name="quotesingle" unicode="'" horiz-adv-x="462" 
d="M303 1415l-102 -438h-127v438h229z" />
    <glyph glyph-name="parenleft" unicode="(" horiz-adv-x="534" 
d="M506 -82l-66 -53q-192 123 -288.5 308t-96.5 456q0 518 383 772l70 -60q-102 -80 -167 -276.5t-65 -433.5t65 -432.5t165 -280.5z" />
    <glyph glyph-name="parenright" unicode=")" horiz-adv-x="534" 
d="M90 -139l-63 57q103 86 168 281.5t65 431.5q0 237 -65.5 433.5t-167.5 276.5l67 60q187 -123 285 -311.5t98 -460.5q0 -271 -98.5 -458.5t-288.5 -309.5z" />
    <glyph glyph-name="asterisk" unicode="*" horiz-adv-x="919" 
d="M760 639l-266 197l45 -332h-181l45 327l-264 -194l-90 151l295 130l-295 129l92 153l262 -196l-45 323h181l-45 -321l264 192l92 -151l-297 -129l297 -130z" />
    <glyph glyph-name="plus" unicode="+" horiz-adv-x="1007" 
d="M563 113h-121v360h-360v119h360v360h121v-360h361v-119h-361v-360z" />
    <glyph glyph-name="comma" unicode="," horiz-adv-x="462" 
d="M362 68q0 -65 -23 -122.5t-54.5 -92.5t-65.5 -60.5t-56 -36t-26 -10.5l-61 61l5 3q5 3 13 8.5l18.5 13t22 17t23.5 20.5t23 24t19.5 26.5t14.5 29.5t8 31h-8q-49 0 -86 40.5t-37 90.5q0 53 38 90t91 37q59 0 100 -41.5t41 -128.5z" />
    <glyph glyph-name="hyphen" unicode="-" horiz-adv-x="626" 
d="M545 594v-119h-467v119h467z" />
    <glyph glyph-name="period" unicode="." horiz-adv-x="450" 
d="M84 111q0 60 38 97.5t99 37.5t98 -37.5t37 -97.5q0 -61 -37 -100.5t-98 -39.5t-99 39.5t-38 100.5z" />
    <glyph glyph-name="slash" unicode="/" horiz-adv-x="860" 
d="M690 1378h133l-655 -1431h-133z" />
    <glyph glyph-name="zero" unicode="0" horiz-adv-x="1204" 
d="M571 -18q-92 0 -171 35t-135 94.5t-96 138t-59.5 166t-19.5 178.5q0 139 27 254t75 196t114 137t144 82.5t166 26.5q97 0 184 -39.5t155 -113t107.5 -190.5t39.5 -261q0 -172 -42 -308.5t-115 -221.5t-168 -129.5t-206 -44.5zM569 1202q-66 0 -114 -35.5t-73 -98
t-36.5 -134.5t-11.5 -158q0 -90 6.5 -176.5t26 -185t49.5 -171t83 -121t122 -48.5q67 0 115 37t73 102t36 138.5t11 162.5q0 96 -7 185t-27 183t-51 163t-83 113t-119 44z" />
    <glyph glyph-name="one" unicode="1" horiz-adv-x="876" 
d="M184 948l-55 84l356 242h95v-1182h184v-92h-592v92h178v959z" />
    <glyph glyph-name="two" unicode="2" horiz-adv-x="1011" 
d="M918 221v-221h-838v78l383 424q94 106 144 202.5t50 208.5q0 110 -56.5 181t-147.5 71q-81 0 -159 -44t-126 -122l-109 64q147 227 408 227q84 0 161 -23t139.5 -67t100 -115t37.5 -159q0 -25 -4 -49.5t-15.5 -50l-20 -45t-30.5 -47.5t-32.5 -43t-40.5 -46.5l-40.5 -43
t-46 -47l-44.5 -44.5l-285 -289h572z" />
    <glyph glyph-name="three" unicode="3" horiz-adv-x="1015" 
d="M905 950q0 -79 -50.5 -156t-127.5 -120q41 -13 76.5 -35.5t68 -56.5t51.5 -84.5t19 -112.5q0 -78 -28 -145t-75 -113.5t-108.5 -80t-128 -49t-133.5 -15.5q-233 0 -391 172l92 82q113 -132 299 -132q45 0 84 14.5t72.5 44.5t53 83.5t19.5 124.5q0 116 -58 179.5
t-155 63.5h-90v97q46 0 92 16t87 46t66.5 79.5t25.5 110.5q0 103 -54 153.5t-137 50.5t-146.5 -39.5t-119.5 -119.5l-105 67q67 107 167 161t218 54q76 0 148 -20.5t133 -60.5t98 -107t37 -152z" />
    <glyph glyph-name="four" unicode="4" horiz-adv-x="1134" 
d="M41 285v92l625 897h168v-832h217v-157h-217v-285h-230v285h-563zM223 442h381v539z" />
    <glyph glyph-name="five" unicode="5" horiz-adv-x="1042" 
d="M887 1057h-568l-28 -234h180q95 0 175.5 -24t144 -72.5t99.5 -130.5t36 -190q0 -82 -28.5 -152.5t-75.5 -120t-108.5 -84.5t-128 -52t-132.5 -17q-236 0 -392 174l95 77q108 -127 297 -127q98 0 164.5 72t66.5 211q0 108 -64.5 172t-168.5 64h-304l76 651h664v-217z" />
    <glyph glyph-name="six" unicode="6" horiz-adv-x="1136" 
d="M653 1176q-120 0 -198 -115.5t-101 -302.5q44 35 108.5 61.5t133.5 26.5q91 0 170.5 -27t142.5 -79.5t99 -139t36 -197.5q0 -118 -64.5 -216t-168.5 -151.5t-223 -53.5q-121 0 -218.5 50t-158.5 133t-93 186.5t-32 215.5q0 139 33 258.5t88.5 203.5t128.5 144t153 88.5
t162 28.5q206 0 336 -157l-86 -80q-102 123 -248 123zM346 563q2 -224 63 -356.5t181 -132.5q87 0 150 94.5t63 232.5q0 167 -60.5 258t-154.5 91q-71 0 -141 -50t-101 -137z" />
    <glyph glyph-name="seven" unicode="7" horiz-adv-x="972" 
d="M219 1059l-61 -162h-113v377h897v-35l-569 -1239h-133l493 1059h-514z" />
    <glyph glyph-name="eight" unicode="8" horiz-adv-x="1142" 
d="M582 627q-105 0 -162.5 -78t-57.5 -199q0 -148 61.5 -223.5t158.5 -75.5q99 0 162 75.5t63 223.5q0 121 -59.5 199t-165.5 78zM1006 961q0 -86 -58.5 -167t-136.5 -122q107 -33 174.5 -119t67.5 -201q0 -101 -40.5 -179t-109 -123.5t-150 -68t-171.5 -22.5
q-93 0 -174.5 22.5t-149.5 68t-107.5 123.5t-39.5 179q0 117 69 202.5t178 117.5q-80 39 -140 120t-60 169q0 75 25 135t66 98.5t97 64t114.5 36t121.5 10.5q82 0 154 -18t134.5 -56t99 -107.5t36.5 -162.5zM582 713q84 0 139 71t55 177q0 122 -54.5 190t-139.5 68
q-83 0 -136 -68t-53 -190q0 -106 54 -177t135 -71z" />
    <glyph glyph-name="nine" unicode="9" horiz-adv-x="1136" 
d="M508 94q120 0 191 115.5t89 314.5q-35 -37 -98.5 -67.5t-142.5 -30.5q-92 0 -171.5 26.5t-143 78.5t-100 138t-36.5 197q0 118 64.5 216.5t168.5 153t222 54.5q121 0 219 -50t158.5 -133t92.5 -186.5t32 -215.5q0 -173 -47 -314.5t-124.5 -230t-173.5 -136t-198 -47.5
q-95 0 -183.5 40.5t-156.5 117.5l88 82q94 -123 250 -123zM799 696q0 147 -27 259t-84 178.5t-139 66.5q-86 0 -147.5 -96t-61.5 -236q0 -164 59.5 -254t151.5 -90q72 0 141 44.5t107 127.5z" />
    <glyph glyph-name="colon" unicode=":" horiz-adv-x="450" 
d="M86 782q0 63 39.5 102.5t99.5 39.5t98.5 -39.5t38.5 -102.5q0 -59 -38.5 -97t-98.5 -38t-99.5 38.5t-39.5 96.5zM86 111q0 61 39 99t100 38q60 0 98.5 -38t38.5 -99q0 -59 -39 -99.5t-98 -40.5q-60 0 -99.5 40.5t-39.5 99.5z" />
    <glyph glyph-name="semicolon" unicode=";" horiz-adv-x="462" 
d="M92 782q0 60 38 98t95 38t94 -38t37 -98q0 -56 -37 -93.5t-94 -37.5t-95 37.5t-38 93.5zM362 68q0 -65 -23 -122.5t-54.5 -92.5t-65.5 -60.5t-56 -36t-26 -10.5l-61 61q9 3 39 24t67 64t41 85h-8q-49 0 -86 40.5t-37 90.5q0 53 38 90t91 37q59 0 100 -41.5t41 -128.5z
" />
    <glyph glyph-name="less" unicode="&#x3c;" horiz-adv-x="1007" 
d="M924 274v-131l-842 330v119l842 328v-136l-654 -252z" />
    <glyph glyph-name="equal" unicode="=" horiz-adv-x="1007" 
d="M924 471v-123h-842v123h842zM924 719v-119h-842v119h842z" />
    <glyph glyph-name="greater" unicode="&#x3e;" horiz-adv-x="1007" 
d="M82 143v131l653 258l-653 252v136l842 -328v-119z" />
    <glyph glyph-name="question" unicode="?" horiz-adv-x="868" 
d="M461 414h-168q0 101 22.5 148.5t102.5 131.5q99 108 133 156q55 76 55 197q0 85 -49 145.5t-145 60.5q-100 0 -159 -66.5t-73 -234.5h-162v250q62 68 162.5 107t227.5 39q195 0 313.5 -93.5t118.5 -236.5q0 -50 -11.5 -92t-37.5 -79t-46 -59t-57 -57l-77 -75l-50 -48.5
l-26 -25.5q-74 -74 -74 -168zM242 111q0 61 38.5 99t100.5 38q59 0 98 -38t39 -99q0 -59 -39.5 -99.5t-97.5 -40.5q-61 0 -100 40.5t-39 99.5z" />
    <glyph glyph-name="at" unicode="@" horiz-adv-x="1945" 
d="M1452 918l-104 -719q-7 -54 12.5 -86.5t54.5 -32.5q84 0 157.5 68.5t115 177.5t41.5 227q0 139 -56 266.5t-152 221.5t-233.5 150t-292.5 56q-157 0 -301 -63t-248.5 -169.5t-166.5 -252.5t-62 -305q0 -212 105 -394.5t284.5 -289.5t388.5 -107q136 0 272.5 56t221.5 155
l82 -78q-108 -111 -262.5 -174t-313.5 -63q-184 0 -350 70.5t-286 190t-190.5 285.5t-70.5 349t70.5 348.5t190.5 285.5t286.5 190.5t349.5 70.5q181 0 340 -62.5t271 -169.5t176.5 -254.5t64.5 -312.5q0 -154 -60 -289t-162.5 -215t-221.5 -80q-194 0 -254 125
q-114 -117 -270 -117q-97 0 -169 28t-113.5 77t-61 109.5t-19.5 132.5q0 88 21.5 175.5t65.5 166.5t104 139.5t144 96.5t179 36q106 0 184 -74l11 54h227zM1126 297l50 324q13 91 -26 156t-130 65q-57 0 -103 -32t-74 -82t-47 -115.5t-26.5 -128t-7.5 -124.5
q0 -123 34 -203.5t103 -80.5q76 0 144.5 61t82.5 160z" />
    <glyph glyph-name="A" unicode="A" horiz-adv-x="1302" 
d="M1184 100h147v-100h-551v100h144l-138 377h-372l-131 -377h151v-100h-438v100h166l438 1227h141zM451 584h305l-154 436z" />
    <glyph glyph-name="B" unicode="B" horiz-adv-x="1210" 
d="M47 1327h664q161 0 265.5 -96t104.5 -236q0 -74 -45.5 -147.5t-117.5 -120.5q107 -41 172 -130.5t65 -209.5q0 -169 -122 -278t-320 -109h-666v100h176v1131h-176v96zM469 100h213q85 0 150 77.5t65 207.5q0 109 -61.5 187.5t-155.5 78.5h-211v-551zM469 760h186
q75 0 125.5 63t50.5 168q0 107 -53 173.5t-123 66.5h-186v-471z" />
    <glyph glyph-name="C" unicode="C" horiz-adv-x="1181" 
d="M676 92q131 0 220.5 70t117.5 215h106q-30 -190 -156 -295t-307 -105q-108 0 -198.5 27.5t-154.5 76t-112 111.5t-76 137.5t-41.5 150t-13.5 153.5q0 108 20 208.5t66 193.5t114 161t169.5 109t226.5 41q264 0 426 -166v-230h-176q-8 81 -34 141.5t-62 94t-74.5 49.5
t-79.5 16q-75 0 -134.5 -26.5t-98 -72t-63.5 -109.5t-35.5 -134.5t-10.5 -152.5q0 -122 24.5 -239.5t69.5 -213t114.5 -153.5t152.5 -58z" />
    <glyph glyph-name="D" unicode="D" horiz-adv-x="1370" 
d="M47 100h172v1131h-172v96h660q128 0 230.5 -34.5t170.5 -94t113 -143t64.5 -177t19.5 -200.5q0 -100 -20 -194.5t-66 -183t-113.5 -154.5t-170 -106t-228.5 -40h-660v100zM469 100h238q75 0 134.5 33t97.5 87.5t63 131t35 157t10 171.5q0 120 -19.5 218t-59.5 173.5
t-106.5 117.5t-154.5 42h-238v-1131z" />
    <glyph glyph-name="E" unicode="E" horiz-adv-x="1175" 
d="M221 100v1131h-174v96h1055v-373h-144l-104 277h-387v-471h215v139h123v-389h-123v141h-215v-551h405l103 273h143v-373h-1071v100h174z" />
    <glyph glyph-name="F" unicode="F" horiz-adv-x="1142" 
d="M467 651v-551h174v-100h-594v100h174v1131h-174v96h1055v-373h-144l-104 277h-387v-471h215v139h123v-389h-123v141h-215z" />
    <glyph glyph-name="G" unicode="G" horiz-adv-x="1323" 
d="M1106 950h-180q-8 80 -35.5 141t-66 95.5t-80.5 51.5t-85 17q-93 0 -161.5 -39.5t-107 -110t-57 -156t-18.5 -189.5q0 -128 20.5 -246.5t60.5 -218.5t108 -160.5t155 -60.5q104 0 176 77.5t72 190.5v135h-223v101h584v-101h-111v-477h-248v84q-32 -45 -107 -76t-161 -31
q-130 0 -232.5 39.5t-166 102.5t-105 150t-58 174t-16.5 182q0 109 20 210.5t66 195.5t113.5 163t169.5 110.5t227 41.5q279 0 447 -172v-224z" />
    <glyph glyph-name="H" unicode="H" horiz-adv-x="1392" 
d="M1346 1231h-140v-1131h140v-100h-523v100h135v549h-526v-549h137v-100h-522v100h139v1131h-139v96h522v-96h-137v-475h526v475h-135v96h523v-96z" />
    <glyph glyph-name="I" unicode="I" horiz-adv-x="716" 
d="M680 1231h-199v-1131h199v-100h-643v100h199v1131h-199v96h643v-96z" />
    <glyph glyph-name="J" unicode="J" horiz-adv-x="708" 
d="M678 1231h-201v-1337q0 -86 -28.5 -153.5t-77 -107t-106 -59.5t-120.5 -20q-73 0 -143.5 27.5t-116.5 70.5l74 74q84 -74 186 -74q43 0 65.5 34t22.5 99v1446h-196v96h641v-96z" />
    <glyph glyph-name="K" unicode="K" horiz-adv-x="1392" 
d="M1245 100h166v-100h-610v100h137l-436 535h-58v-535h144v-100h-541v100h152v1131h-148v96h537v-96h-144v-490h70l438 490h-145v96h475v-96h-178l-416 -457z" />
    <glyph glyph-name="L" unicode="L" horiz-adv-x="1173" 
d="M895 100l102 273h136v-373h-1086v100h176v1131h-176v96h604v-96h-182v-1131h426z" />
    <glyph glyph-name="M" unicode="M" horiz-adv-x="1654" 
d="M1610 1231h-156v-1131h160v-100h-551v100h145v877l-368 -977h-127l-391 981v-881h151v-100h-426v100h160v1131h-160v96h395l398 -1001l381 1001h389v-96z" />
    <glyph glyph-name="N" unicode="N" horiz-adv-x="1314" 
d="M836 1327h442v-98h-168v-1229h-152l-639 1008v-908h168v-100h-440v100h160v1129h-156v98h363l579 -907v809h-157v98z" />
    <glyph glyph-name="O" unicode="O" horiz-adv-x="1325" 
d="M662 1346q127 0 230.5 -38.5t170.5 -102t112.5 -148t65 -173.5t19.5 -182q0 -108 -20.5 -209.5t-67 -196t-114.5 -165t-170 -112.5t-226 -42q-108 0 -198.5 27t-154.5 75t-112 110t-76 136t-41.5 148.5t-13.5 151.5q0 108 21 209.5t67.5 195t114.5 163.5t169.5 111.5
t223.5 41.5zM1008 575q0 127 -21 245t-62 217t-110 158.5t-156 59.5q-92 0 -159.5 -39.5t-106 -110t-56.5 -156t-18 -189.5q-1 -127 19.5 -247t60.5 -220.5t108.5 -161.5t154.5 -61q94 0 163 39t108 110t57 159t18 197z" />
    <glyph glyph-name="P" unicode="P" horiz-adv-x="1167" 
d="M47 1327h615q211 0 319.5 -99.5t108.5 -252.5q0 -158 -117 -264.5t-311 -106.5h-209v-504h157v-100h-563v100h158v1131h-158v96zM453 1231v-522h186q77 0 130.5 75t53.5 187q0 115 -50.5 187.5t-133.5 72.5h-186z" />
    <glyph glyph-name="Q" unicode="Q" horiz-adv-x="1327" 
d="M1298 -166l68 -82q-46 -48 -115 -78t-149 -30q-156 0 -256 50t-148 128l-98 155q-116 9 -209 52.5t-152.5 107.5t-99.5 147t-56.5 167.5t-16.5 173.5q0 107 21 208.5t68 195.5t115 163.5t169.5 111.5t224.5 42q127 0 230.5 -38.5t171 -102t113.5 -148t65.5 -173.5
t19.5 -182q0 -108 -22 -210t-67.5 -197.5t-126 -171t-186.5 -115.5l74 -114q50 -79 87.5 -115.5t78.5 -36.5q104 0 196 92zM322 760q0 -102 12 -198.5t39 -186.5t66 -157.5t97 -107.5t128 -40q94 0 162.5 39t107.5 109.5t57.5 158.5t18.5 196q0 101 -13 197t-41 184t-68 154
t-98 105.5t-128 39.5q-93 0 -160.5 -39t-106 -109t-56 -155.5t-17.5 -189.5z" />
    <glyph glyph-name="R" unicode="R" horiz-adv-x="1255" 
d="M944 0l-379 604h-123v-504h156v-100h-557v100h156v1129h-156v98h608q214 0 322 -99.5t108 -252.5q0 -125 -68 -216t-190 -126l342 -533h156v-100h-375zM442 1229v-520h191q75 0 128.5 74.5t53.5 187.5q0 114 -51 186t-131 72h-191z" />
    <glyph glyph-name="S" unicode="S" horiz-adv-x="1009" 
d="M80 377h176q21 -163 79 -234t152 -71q98 0 158 62.5t60 162.5q0 49 -21 92t-51 68q-23 20 -195 131t-192 125q-74 51 -123 127.5t-49 175.5q0 146 113.5 238t308.5 92q127 0 230.5 -38t166.5 -104v-252h-178q-8 88 -27 148t-49 93.5t-65 47.5t-82 14q-96 0 -141.5 -61
t-45.5 -150q0 -93 76 -147l98.5 -65.5l164 -108.5t112.5 -72q188 -116 188 -315q0 -155 -125.5 -257t-331.5 -102q-269 0 -407 150v250z" />
    <glyph glyph-name="T" unicode="T" horiz-adv-x="1167" 
d="M41 954v373h1085v-373h-133l-104 277h-182v-1131h174v-100h-594v100h174v1131h-185l-102 -277h-133z" />
    <glyph glyph-name="U" unicode="U" horiz-adv-x="1300" 
d="M1114 1231v-864q0 -177 -121 -283.5t-331 -106.5q-226 0 -353 118.5t-127 340.5v795h-159v96h565v-96h-160v-844q0 -143 64 -221t188 -78q53 0 105 15.5t99.5 46.5t77 87t29.5 128v866h-170v96h455v-96h-162z" />
    <glyph glyph-name="V" unicode="V" horiz-adv-x="1353" 
d="M752 0h-152l-438 1231h-178v96h596v-96h-156l319 -916l328 916h-197v96h512v-96h-194z" />
    <glyph glyph-name="W" unicode="W" horiz-adv-x="1939" 
d="M1456 1327h512v-96h-188l-381 -1231h-139l-297 918l-265 -918h-141l-397 1231h-176v96h587v-96h-159l270 -862l274 950h131l304 -954l266 866h-201v96z" />
    <glyph glyph-name="X" unicode="X" horiz-adv-x="1388" 
d="M1208 100h174v-100h-632v100h168l-275 435l-301 -435h180v-100h-522v100h201l372 539l-376 592h-177v96h605v-96h-138l236 -377l260 377h-174v96h489v-96h-182l-323 -486z" />
    <glyph glyph-name="Y" unicode="Y" horiz-adv-x="1224" 
d="M492 561l-330 670h-170v96h579v-96h-147l246 -510l262 510h-172v96h471v-96h-180l-316 -621v-510h199v-100h-639v100h197v461z" />
    <glyph glyph-name="Z" unicode="Z" horiz-adv-x="1126" 
d="M1075 1243l-762 -1143h543l107 273h131v-373h-1057v94l770 1137h-492l-108 -277h-129v373h997v-84z" />
    <glyph glyph-name="bracketleft" unicode="[" horiz-adv-x="497" 
d="M504 1303h-203v-1545h203v-112h-375v1769h375v-112z" />
    <glyph glyph-name="backslash" unicode="\" horiz-adv-x="718" 
d="M35 1378h135l516 -1431h-137z" />
    <glyph glyph-name="bracketright" unicode="]" horiz-adv-x="497" 
d="M195 1303h-203v112h373v-1769h-373v112h203v1545z" />
    <glyph glyph-name="asciicircum" unicode="^" horiz-adv-x="804" 
d="M139 561h-119l326 832h111l325 -832h-120l-261 670z" />
    <glyph glyph-name="underscore" unicode="_" horiz-adv-x="950" 
d="M891 -123v-117h-842v117h842z" />
    <glyph glyph-name="grave" unicode="`" horiz-adv-x="489" 
d="M147 1360l297 -340h-133l-297 194z" />
    <glyph glyph-name="a" unicode="a" horiz-adv-x="983" 
d="M344 621h-233q-3 39 10.5 88t32.5 79q93 148 319 148q344 0 344 -313v-476q0 -25 15.5 -38t35.5 -13q13 0 34.5 10.5t35.5 22.5l37 -70q-82 -82 -207 -82q-56 0 -101 23.5t-63 48.5q-46 -29 -66.5 -40t-65.5 -22.5t-103 -11.5q-55 0 -104.5 13t-91.5 39.5t-66.5 72
t-24.5 105.5q0 92 56.5 149t174.5 97l273 90v82q0 118 -26 172.5t-97 54.5q-64 0 -98.5 -44t-28.5 -106zM586 152v294l-154 -53q-53 -18 -83 -58.5t-30 -98.5q0 -61 35.5 -104.5t89.5 -43.5q40 0 69.5 14t72.5 50z" />
    <glyph glyph-name="b" unicode="b" horiz-adv-x="1075" 
d="M360 55v-55h-229v1300h-141v84l370 27v-553q92 84 236 84q119 0 212 -61t142 -162.5t49 -222.5q0 -77 -16 -150.5t-51 -141t-84.5 -118.5t-121.5 -81t-157 -30q-138 0 -209 80zM360 614v-323q0 -99 60.5 -156t146.5 -57q69 0 113.5 45t62 114t17.5 162q0 121 -20.5 218
t-67.5 160t-115 63q-83 0 -140 -55t-57 -171z" />
    <glyph glyph-name="c" unicode="c" horiz-adv-x="942" 
d="M500 -23q-188 0 -305 130.5t-117 336.5q0 75 17.5 147t53.5 135.5t86 111.5t120.5 76t152.5 28q83 0 150.5 -24.5t109.5 -64t65.5 -84t28.5 -89.5h-223q-5 72 -42.5 122t-98.5 50q-69 0 -114.5 -48t-63 -119t-17.5 -163q0 -73 15 -143.5t44 -131t79 -97.5t112 -37
q94 0 156 53.5t86 146.5l90 -2q-27 -142 -126 -238t-259 -96z" />
    <glyph glyph-name="d" unicode="d" horiz-adv-x="1067" 
d="M934 1411v-1411h-229v55q-37 -34 -92 -56t-105 -22q-94 0 -169 26.5t-123.5 70.5t-80.5 103t-45.5 120t-13.5 127q0 98 25.5 190t73.5 165.5t124.5 118t169.5 44.5q59 0 108 -14t73.5 -29.5t54.5 -40.5v442h-142v84zM705 297v317q0 111 -60 168.5t-137 57.5
q-66 0 -111 -46.5t-63.5 -116.5t-18.5 -159q-1 -113 18 -209t65.5 -162.5t113.5 -66.5q81 0 137 54.5t56 162.5z" />
    <glyph glyph-name="e" unicode="e" horiz-adv-x="970" 
d="M551 104q98 0 164 56t90 153l88 -2q-25 -141 -126.5 -237.5t-262.5 -96.5q-87 0 -158 26t-120.5 71t-83 106.5t-49 132.5t-15.5 150q0 202 119.5 339.5t312.5 137.5q170 0 269 -94.5t114 -261.5q3 -50 0 -103h-592q3 -94 35 -179.5t89 -141.5t126 -56zM498 852
q-92 0 -140.5 -78t-56.5 -201h361q0 57 -8.5 104.5t-26.5 88t-51 63.5t-78 23z" />
    <glyph glyph-name="f" unicode="f" horiz-adv-x="692" 
d="M694 1231q-21 22 -36.5 35.5t-46.5 27t-66 13.5q-63 0 -98 -42.5t-35 -148.5v-196h256v-93h-256v-739h190v-88h-559v88h141v739h-133v93h133v147q0 87 29.5 155t78.5 108t106 60.5t118 20.5q51 0 91.5 -9.5t72.5 -31.5t45.5 -34t40.5 -40z" />
    <glyph glyph-name="g" unicode="g" horiz-adv-x="1042" 
d="M498 276q-40 0 -97 11h-32q-60 0 -89.5 -31t-29.5 -70t35 -68.5t80 -29.5h81l3 -88h-91q-33 -15 -56 -58t-23 -96q0 -94 59.5 -152.5t159.5 -58.5q104 0 164.5 58.5t60.5 152.5q0 53 -24.5 96.5t-57.5 57.5h-109v88h476v-88h-117q29 -25 45 -66t16 -79
q0 -139 -127 -224.5t-329 -85.5q-201 0 -324 79t-123 202q0 76 40.5 128.5t103.5 74.5q-93 66 -93 151q0 56 47.5 101t124.5 57q-74 43 -117.5 114.5t-43.5 163.5q0 155 108 241.5t275 86.5q85 0 165 -26h283v-89h-147q80 -89 86 -213q5 -103 -48.5 -182t-141.5 -118.5
t-193 -39.5zM483 862q-74 0 -108.5 -59t-34.5 -154q-1 -74 14.5 -138.5t52.5 -108.5t89 -44q83 -1 118 68.5t35 179.5q-2 108 -44 182t-122 74z" />
    <glyph glyph-name="h" unicode="h" 
d="M395 1411v-555q86 86 223 86q77 0 135 -18t93.5 -47.5t57.5 -72.5t30 -87.5t8 -98.5v-530h125v-88h-481v88h127v530q0 226 -138 226q-75 0 -127.5 -56t-52.5 -167v-533h123v-88h-477v88h127v1215h-143v81z" />
    <glyph glyph-name="i" unicode="i" horiz-adv-x="624" 
d="M203 88v739h-144v84l373 25v-848h160v-88h-547v88h158zM176 1208q0 59 40 100.5t101 41.5t101.5 -41.5t40.5 -100.5q0 -60 -40.5 -100.5t-101.5 -40.5t-101 40.5t-40 100.5z" />
    <glyph glyph-name="j" unicode="j" horiz-adv-x="559" 
d="M408 936v-1040q0 -87 -28.5 -153.5t-77 -105t-107 -58t-123.5 -19.5q-47 0 -84 8.5t-69.5 29t-48 33t-46.5 41.5l74 70q82 -82 159 -82q60 0 91.5 43.5t31.5 151.5v972h-147v84zM143 1208q0 59 40.5 100.5t101.5 41.5t101 -41.5t40 -100.5q0 -60 -40 -100.5t-101 -40.5
t-101.5 40.5t-40.5 100.5z" />
    <glyph glyph-name="k" unicode="k" horiz-adv-x="1069" 
d="M154 1303h-144v81l371 27v-868h74l272 284h-141v91h434v-91h-150l-266 -274l379 -465h119v-88h-492v88h99l-291 365h-37v-365h119v-88h-473v88h127v1215z" />
    <glyph glyph-name="l" unicode="l" horiz-adv-x="555" 
d="M166 1303h-141v81l370 25v-1321h127v-88h-483v88h127v1215z" />
    <glyph glyph-name="m" unicode="m" horiz-adv-x="1536" 
d="M399 88h105v-88h-459v88h125v739h-125v84l350 21l2 -74q77 84 205 84q85 0 148.5 -33t99.5 -82q47 54 105 84.5t145 30.5q284 0 284 -324v-530h125v-88h-452v88h98v530q0 117 -23 171.5t-79 54.5q-29 0 -56 -10.5t-51.5 -33.5t-39.5 -66t-15 -101v-545h113v-88h-447v88
h109v530q0 118 -23.5 172t-81.5 54q-66 0 -114 -52.5t-48 -170.5v-533z" />
    <glyph glyph-name="n" unicode="n" horiz-adv-x="1097" 
d="M395 932l4 -76q29 37 93 61.5t143 24.5q88 0 151 -26.5t96.5 -73.5t48.5 -102t15 -122v-530h125v-88h-481v88h127v530q0 226 -137 226q-75 0 -128 -56t-53 -167v-533h123v-88h-477v88h127v739h-127v84z" />
    <glyph glyph-name="o" unicode="o" horiz-adv-x="1017" 
d="M508 63q100 0 147 93.5t47 240.5q0 117 -20 218t-65.5 170t-108.5 69q-50 0 -88.5 -27t-60.5 -73.5t-33 -104t-11 -123.5q0 -114 20 -216.5t65.5 -174.5t107.5 -72zM512 942q90 0 164.5 -28t122.5 -74t81 -107t47.5 -124t14.5 -128q0 -72 -17.5 -144t-54 -137t-87 -115
t-123 -80t-156.5 -30q-92 0 -166.5 28.5t-122.5 74t-80 107t-45.5 124.5t-13.5 129q0 75 16 146.5t51 137t85 114t123.5 77.5t160.5 29z" />
    <glyph glyph-name="p" unicode="p" horiz-adv-x="1071" 
d="M362 55v-389h140v-86h-512v86h143v1249h229v-55q85 82 234 82q118 0 211 -64.5t140.5 -165.5t47.5 -216q0 -95 -26 -185.5t-76 -166.5t-133.5 -122.5t-188.5 -46.5q-121 0 -209 80zM362 616v-329q0 -95 61.5 -152t145.5 -57q68 0 112.5 45t61.5 114t17 162
q0 89 -12 166.5t-35.5 140t-63 98.5t-90.5 36q-81 0 -139 -56t-58 -168z" />
    <glyph glyph-name="q" unicode="q" horiz-adv-x="1058" 
d="M705 -334v393q-95 -82 -238 -82q-89 0 -165 40.5t-124 105t-75 143t-27 158.5q0 73 15.5 145t50 140t83.5 119.5t121.5 82.5t159.5 31q126 0 199 -76v31l231 49v-1280h141v-86h-514v86h142zM705 303v315q0 110 -59.5 167t-135.5 57q-67 0 -112.5 -46t-64 -115t-18.5 -157
q-1 -112 19 -210t67.5 -166t114.5 -68q80 0 134.5 57t54.5 166z" />
    <glyph glyph-name="r" unicode="r" horiz-adv-x="827" 
d="M172 827h-127v84l346 21l6 -129q101 149 252 149q34 0 66 -6.5t53 -16t37 -19.5t23 -16l8 -7v-62l-136 -127q-29 48 -61 72.5t-80 24.5q-63 0 -112.5 -63.5t-49.5 -149.5v-494h168v-88h-520v88h127v739z" />
    <glyph glyph-name="s" unicode="s" horiz-adv-x="874" 
d="M76 322h155q0 -134 56.5 -194t142.5 -60q67 0 105 37t38 92q0 72 -65 112q-2 2 -275 160q-145 85 -145 227q0 103 94.5 171.5t249.5 68.5q99 0 194.5 -31.5t143.5 -79.5v-231h-162q0 254 -178 254q-64 0 -95.5 -36t-31.5 -81q0 -39 15 -62.5t47 -43.5q23 -14 272 -152
q156 -86 156 -240q0 -110 -100 -183t-263 -73q-120 0 -215 32.5t-139 80.5v232z" />
    <glyph glyph-name="t" unicode="t" horiz-adv-x="690" 
d="M621 141l55 -67q-115 -97 -238 -97q-303 0 -303 273v577h-90v70l254 258h66v-235h292v-93h-292v-581q0 -72 29 -115t85 -43q46 0 77 12.5t65 40.5z" />
    <glyph glyph-name="u" unicode="u" 
d="M707 -18l-5 73q-80 -80 -231 -80q-315 0 -315 322v530h-125v88h354v-618q0 -223 133 -223q77 0 130.5 55.5t53.5 167.5v530h-124v88h352v-827h127v-84z" />
    <glyph glyph-name="v" unicode="v" horiz-adv-x="1017" 
d="M1036 915v-88h-143l-305 -827h-137l-351 827h-118v88h493v-88h-127l221 -548l205 548h-141v88h403z" />
    <glyph glyph-name="w" unicode="w" horiz-adv-x="1488" 
d="M1507 915v-88h-139l-262 -827h-131l-230 553l-200 -553h-133l-303 827h-127v88h503v-88h-137l182 -530l224 618h88l250 -630l159 542h-147v88h403z" />
    <glyph glyph-name="x" unicode="x" horiz-adv-x="1046" 
d="M651 90l-176 258l-190 -258h110v-90h-377v90h127l265 354l-258 383h-115v88h461v-88h-92l149 -219l160 219h-103v88h357v-88h-121l-230 -311l293 -426h125v-90h-506v90h121z" />
    <glyph glyph-name="y" unicode="y" horiz-adv-x="999" 
d="M887 827l-400 -1056q-80 -213 -254 -213q-62 0 -114 26t-107 74l74 84q81 -76 147 -76q89 0 132 105l84 213l-349 843h-118v88h493v-88h-129l217 -536l201 536h-135v88h389v-88h-131z" />
    <glyph glyph-name="z" unicode="z" horiz-adv-x="911" 
d="M733 313h123v-313h-805v80l533 747h-285l-86 -221h-125v309h746v-73l-521 -752h332z" />
    <glyph glyph-name="braceleft" unicode="{" horiz-adv-x="577" 
d="M55 653v41q75 23 99 56.5t24 105.5v283q0 82 49.5 143.5t121 91.5t153.5 35l20 -53q-79 -21 -107 -65.5t-28 -129.5v-280q0 -83 -24 -131t-93 -76q71 -28 94 -74.5t23 -132.5v-283q0 -82 28 -126.5t107 -65.5l-20 -53q-60 3 -116.5 22t-103.5 51.5t-75.5 83.5t-28.5 113
v283q0 74 -24 107t-99 54z" />
    <glyph glyph-name="bar" unicode="|" horiz-adv-x="344" 
d="M109 1411h127v-1491h-127v1491z" />
    <glyph glyph-name="braceright" unicode="}" horiz-adv-x="577" 
d="M520 694v-43q-76 -21 -99.5 -53.5t-23.5 -105.5v-283q0 -82 -48.5 -143.5t-120 -92t-154.5 -34.5l-21 53q79 21 107 65.5t28 126.5v283q0 84 24.5 131.5t94.5 75.5q-72 27 -95.5 74t-23.5 133v280q0 85 -28 129.5t-107 65.5l21 53q83 -5 154 -35t120 -91.5t49 -143.5
v-283q0 -73 23.5 -106t99.5 -56z" />
    <glyph glyph-name="asciitilde" unicode="~" horiz-adv-x="974" 
d="M164 453h-113q20 89 77 146.5t148 57.5q80 0 237.5 -37.5t221.5 -37.5q32 0 51.5 21t24.5 50h109q-17 -90 -70.5 -149.5t-142.5 -59.5q-82 0 -243.5 41t-223.5 41q-33 0 -52 -21t-24 -52z" />
    <glyph glyph-name="uni00A0" unicode="&#xa0;" horiz-adv-x="512" 
 />
    <glyph glyph-name="exclamdown" unicode="&#xa1;" horiz-adv-x="503" 
d="M342 512l33 -913h-252l35 913h184zM113 817q0 61 38.5 100t100.5 39q60 0 98.5 -39t38.5 -100q0 -59 -38.5 -98t-98.5 -39q-61 0 -100 39t-39 98z" />
    <glyph glyph-name="cent" unicode="&#xa2;" horiz-adv-x="985" 
d="M567 1329v-188q72 -6 125.5 -28t87 -58t52.5 -73t34 -87h-219q-12 75 -50 116.5t-95 41.5q-52 0 -90.5 -26t-59.5 -73t-31 -103t-10 -124q0 -73 14.5 -143t43.5 -129.5t78.5 -96t111.5 -36.5q90 0 146 50.5t90 149.5h102q-15 -60 -42 -113t-66.5 -100t-96.5 -78.5
t-125 -40.5v-190h-125v190q-163 24 -260.5 142.5t-97.5 302.5q0 88 20 169.5t61 154.5t112.5 122t164.5 60v188h125z" />
    <glyph glyph-name="sterling" unicode="&#xa3;" horiz-adv-x="1095" 
d="M999 952h-168q-16 170 -68.5 236.5t-144.5 66.5q-88 0 -135 -72.5t-47 -209.5v-129h316v-105h-316v-637h369l100 271h137v-373h-1022v102h168v637h-155v105h155v119q0 81 23.5 147t64 109.5t96 73t117 42.5t129.5 13q244 0 381 -144v-252z" />
    <glyph glyph-name="yen" unicode="&#xa5;" horiz-adv-x="1265" 
d="M1067 1229l-193 -385h218v-105h-273l-65 -129v-18h336v-107h-336v-385h198v-100h-639v100h197v385h-338v107h324l-76 147h-248v105h199l-193 385h-166v96h576v-96h-146l246 -510l262 510h-172v96h467v-96h-178z" />
    <glyph glyph-name="brokenbar" unicode="&#xa6;" horiz-adv-x="845" 
d="M342 0h-127v584h127v-584zM342 745h-127v584h127v-584z" />
    <glyph glyph-name="section" unicode="&#xa7;" horiz-adv-x="854" 
d="M72 324h145q0 -126 55.5 -187t135.5 -61q67 0 105 36t38 95q0 27 -10.5 49t-26 39t-50 38.5t-65 38l-90 49l-108.5 60.5q-142 84 -142 234q0 66 39.5 120.5t112.5 88.5q-125 89 -125 217q0 103 95 170t251 67q196 0 309 -108v-234h-149q0 137 -42.5 191.5t-119.5 54.5
q-66 0 -97.5 -36t-31.5 -89q0 -61 43 -86q137 -81 293 -164q81 -42 117.5 -98t36.5 -133q0 -63 -43 -121t-117 -96q75 -44 108 -97.5t33 -128.5q0 -110 -100 -183t-264 -73q-120 0 -206.5 32.5t-129.5 82.5v232zM334 854q-29 -17 -44.5 -49.5t-15.5 -71.5q0 -29 14 -54
t42.5 -46t53 -35t66 -34.5t60.5 -31.5q26 14 45.5 46.5t19.5 70.5q0 24 -8.5 43.5t-18.5 33t-36.5 31t-45 27.5l-62 33z" />
    <glyph glyph-name="dieresis" unicode="&#xa8;" horiz-adv-x="780" 
d="M78 1192q0 54 37 90.5t90 36.5q55 0 91 -36.5t36 -90.5q0 -53 -36 -89t-91 -36q-53 0 -90 36.5t-37 88.5zM446 1192q0 54 36.5 90.5t90.5 36.5q53 0 90 -36.5t37 -90.5q0 -52 -37 -88.5t-90 -36.5q-54 0 -90.5 36t-36.5 89z" />
    <glyph glyph-name="copyright" unicode="&#xa9;" horiz-adv-x="1484" 
d="M47 662q0 140 55.5 266t149 217t222.5 144.5t271 53.5q191 0 351.5 -90.5t254 -247.5t93.5 -343q0 -184 -93.5 -340.5t-254.5 -248t-351 -91.5q-142 0 -271 54t-222.5 145.5t-149 217.5t-55.5 263zM150 662q0 -158 79.5 -293.5t217 -215t298.5 -79.5q121 0 232 47
t192 126t129 188t48 227q0 161 -81.5 298t-219.5 216t-300 79q-161 0 -298 -79t-217 -216t-80 -298zM756 229q-172 0 -279.5 110.5t-107.5 295.5q0 85 21 163t63.5 146t118 109t173.5 41q83 0 143.5 -17.5t96.5 -51.5t56 -70.5t34 -86.5h-198q-9 67 -43.5 105.5t-85.5 38.5
q-48 0 -83 -23.5t-54.5 -66t-28.5 -93t-9 -112.5q0 -90 22.5 -171t75 -138.5t126.5 -57.5q82 0 133 46t82 134h92q-15 -58 -42.5 -109.5t-69 -95.5t-102.5 -70t-134 -26z" />
    <glyph glyph-name="ordfeminine" unicode="&#xaa;" horiz-adv-x="757" 
d="M285 1090h-197v12q0 26 5 51.5t22.5 56.5t45.5 54t79.5 39t119.5 16q117 0 187.5 -53.5t70.5 -175.5v-361q0 -16 17 -16q7 0 20 5t22 10l9 5l31 -69q-78 -48 -150 -48q-37 0 -67 16.5t-41 39.5q-75 -56 -168 -56q-102 0 -167 46t-65 131q0 131 174 190l209 72v35
q0 84 -17 121.5t-67 37.5q-47 0 -67.5 -29.5t-14.5 -74.5zM442 750v219q-25 -10 -68.5 -26l-62.5 -23q-67 -25 -67 -115q0 -39 24 -72t64 -33q54 0 110 50z" />
    <glyph glyph-name="guillemotleft" unicode="&#xab;" horiz-adv-x="995" 
d="M494 57l-445 416l445 416l75 -72l-262 -344l262 -344zM879 57l-447 416l447 416l71 -70l-264 -346l264 -346z" />
    <glyph glyph-name="logicalnot" unicode="&#xac;" horiz-adv-x="903" 
d="M856 260h-121v356h-708v117h829v-473z" />
    <glyph glyph-name="uni00AD" unicode="&#xad;" horiz-adv-x="626" 
d="M545 594v-119h-467v119h467z" />
    <glyph glyph-name="registered" unicode="&#xae;" horiz-adv-x="1484" 
d="M47 662q0 140 55.5 266t149 217t222.5 144.5t271 53.5q191 0 351.5 -90.5t254 -247.5t93.5 -343q0 -184 -93.5 -340.5t-254.5 -248t-351 -91.5q-142 0 -271 54t-222.5 145.5t-149 217.5t-55.5 263zM150 662q0 -158 79.5 -293.5t217 -215t298.5 -79.5q121 0 232 47
t192 126t129 188t48 227q0 161 -81.5 298t-219.5 216t-300 79q-161 0 -298 -79t-217 -216t-80 -298zM1018 340h106v-74h-247l-179 381h-47v-307h109v-74h-371v74h100v680h-100v72h406q100 0 166.5 -68.5t66.5 -159.5q0 -78 -36.5 -129t-119.5 -86zM651 723h109q41 0 71.5 44
t30.5 105q0 67 -29.5 107.5t-72.5 40.5h-109v-297z" />
    <glyph glyph-name="macron" unicode="&#xaf;" horiz-adv-x="559" 
d="M535 1149v-102h-510v102h510z" />
    <glyph glyph-name="degree" unicode="&#xb0;" horiz-adv-x="604" 
d="M297 952q-93 0 -159 67t-66 161q0 91 65.5 154t159.5 63t159.5 -63t65.5 -154q0 -94 -66 -161t-159 -67zM297 1280q-42 0 -71 -30.5t-29 -69.5q0 -42 29 -73.5t71 -31.5t71 31.5t29 73.5q0 39 -29 69.5t-71 30.5z" />
    <glyph glyph-name="plusminus" unicode="&#xb1;" horiz-adv-x="1028" 
d="M584 174h-121v299h-365v119h365v358h121v-358h362v-119h-362v-299zM928 119v-119h-850v119h850z" />
    <glyph glyph-name="uni00B2" unicode="&#xb2;" horiz-adv-x="608" 
d="M535 745v-112h-449v53l195 217q100 108 100 211q0 51 -25 82t-65 31q-38 0 -76 -25.5t-63 -68.5l-78 47q88 131 221 131q92 0 161.5 -51t69.5 -144q0 -53 -35 -107t-102 -124l-135 -140h281z" />
    <glyph glyph-name="uni00B3" unicode="&#xb3;" horiz-adv-x="608" 
d="M514 1124q0 -36 -21 -71.5t-55 -61.5q92 -51 92 -151q0 -69 -38.5 -120t-94 -74t-116.5 -23q-133 0 -218 102l68 53q55 -71 150 -71q43 0 74.5 30.5t31.5 93.5q0 53 -28 85t-72 32h-64v66q54 0 100 31t46 85q0 48 -22.5 72.5t-57.5 24.5q-77 0 -135 -88l-74 47
q79 125 209 125q89 0 157 -48.5t68 -138.5z" />
    <glyph glyph-name="acute" unicode="&#xb4;" horiz-adv-x="569" 
d="M49 1020l297 340l133 -146l-297 -194h-133z" />
    <glyph glyph-name="mu" unicode="&#xb5;" 
d="M682 915h229v-768q0 -26 14 -38.5t33 -12.5q32 0 74 33l37 -70q-82 -82 -207 -82q-115 0 -160 86q-34 -40 -87 -63t-107 -23q-90 0 -143 41v-374l-230 -41v1312h230v-618q0 -221 137 -221q74 0 127 55t53 166v618z" />
    <glyph glyph-name="paragraph" unicode="&#xb6;" horiz-adv-x="1153" 
d="M551 1325h522v-96h-158v-1229h-106v1229h-156v-1229h-106v604q-190 3 -305 108t-115 261q0 73 25.5 135.5t76 111.5t133 77t189.5 28z" />
    <glyph glyph-name="periodcentered" unicode="&#xb7;" horiz-adv-x="413" 
d="M68 485q0 59 39.5 99.5t99.5 40.5q59 0 98 -40.5t39 -99.5q0 -62 -38.5 -101.5t-98.5 -39.5t-99.5 40t-39.5 101z" />
    <glyph glyph-name="cedilla" unicode="&#xb8;" horiz-adv-x="686" 
d="M193 -342l38 78q48 -37 103 -37q37 0 57.5 20t20.5 52q0 29 -24.5 45t-65.5 16h-23l8 94h33q95 0 143.5 -43t48.5 -114q0 -80 -58.5 -122t-137.5 -42q-36 0 -72 13.5t-54 26.5z" />
    <glyph glyph-name="uni00B9" unicode="&#xb9;" horiz-adv-x="591" 
d="M180 1108l-39 61l195 129h61v-598h95v-69h-326v69h92v453z" />
    <glyph glyph-name="ordmasculine" unicode="&#xba;" horiz-adv-x="690" 
d="M346 614q-127 0 -210 90.5t-83 268.5q0 169 83.5 260.5t209.5 91.5q125 0 208 -88t83 -264q0 -173 -84 -266t-207 -93zM252 973q0 -58 3.5 -101.5t13 -85t29 -64t48.5 -22.5q90 0 90 273q0 57 -3.5 99.5t-12 83.5t-27.5 63t-47 22q-94 0 -94 -268z" />
    <glyph glyph-name="guillemotright" unicode="&#xbb;" horiz-adv-x="1005" 
d="M956 473l-444 -416l-76 72l262 344l-262 344l76 72zM573 473l-446 -416l-72 70l264 346l-264 346l72 70z" />
    <glyph glyph-name="onequarter" unicode="&#xbc;" horiz-adv-x="1353" 
d="M715 158v61l323 463h101v-420h110v-104h-110v-144h-140v144h-284zM840 262h159v225zM879 1378h135l-514 -1431h-138zM180 1108l-39 61l195 129h61v-598h95v-69h-326v69h92v453z" />
    <glyph glyph-name="onehalf" unicode="&#xbd;" horiz-adv-x="1353" 
d="M1290 123v-113h-448v53l194 220q99 103 99 209q0 51 -24 81.5t-64 30.5q-38 0 -77 -25.5t-65 -66.5l-76 45q83 131 222 131q93 0 162 -49.5t69 -142.5q0 -55 -36 -110t-103 -122l-135 -141h282zM180 1108l-39 61l195 129h61v-598h95v-69h-326v69h92v453zM879 1378h135
l-514 -1431h-138z" />
    <glyph glyph-name="threequarters" unicode="&#xbe;" horiz-adv-x="1353" 
d="M514 1124q0 -36 -21 -71.5t-55 -61.5q92 -51 92 -151q0 -69 -38.5 -120t-94 -74t-116.5 -23q-133 0 -218 102l68 53q55 -71 150 -71q43 0 74.5 30.5t31.5 93.5q0 53 -28 85t-72 32h-64v66q54 0 100 31t46 85q0 48 -22.5 72.5t-57.5 24.5q-77 0 -135 -88l-74 47
q79 125 209 125q89 0 157 -48.5t68 -138.5zM879 1378h135l-514 -1431h-138zM715 158v61l323 463h101v-420h110v-104h-110v-144h-140v144h-284zM840 262h159v225z" />
    <glyph glyph-name="questiondown" unicode="&#xbf;" horiz-adv-x="868" 
d="M403 510h168q0 -101 -22.5 -149.5t-99.5 -133.5q-11 -13 -40.5 -44.5t-51 -57t-40.5 -53.5q-57 -83 -57 -193q0 -88 49.5 -149.5t145.5 -61.5q223 0 252 301h159v-250q-62 -65 -170 -104t-237 -39q-195 0 -312.5 92.5t-117.5 235.5q0 50 11.5 91.5t38 79t44.5 58t55 57.5
l154 154q71 71 71 166zM344 817q0 61 39 100t98 39q60 0 100 -39t40 -100q0 -59 -40 -98t-100 -39q-59 0 -98 39t-39 98z" />
    <glyph glyph-name="Agrave" unicode="&#xc0;" horiz-adv-x="1302" 
d="M1184 100h147v-100h-551v100h144l-138 377h-372l-131 -377h151v-100h-438v100h166l438 1227h141zM451 584h305l-154 436zM578 1767l296 -340h-133l-297 195z" />
    <glyph glyph-name="Aacute" unicode="&#xc1;" horiz-adv-x="1302" 
d="M1184 100h147v-100h-551v100h144l-138 377h-372l-131 -377h151v-100h-438v100h166l438 1227h141zM451 584h305l-154 436zM457 1425l297 340l133 -145l-297 -195h-133z" />
    <glyph glyph-name="Acircumflex" unicode="&#xc2;" horiz-adv-x="1302" 
d="M1184 100h147v-100h-551v100h144l-138 377h-372l-131 -377h151v-100h-438v100h166l438 1227h141zM451 584h305l-154 436zM352 1427l320 326l317 -326h-141l-178 121l-183 -121h-135z" />
    <glyph glyph-name="Atilde" unicode="&#xc3;" horiz-adv-x="1302" 
d="M1184 100h147v-100h-551v100h144l-138 377h-372l-131 -377h151v-100h-438v100h166l438 1227h141zM451 584h305l-154 436zM436 1444h-96q21 88 77.5 145.5t147.5 57.5q49 0 133.5 -38t120.5 -38q29 0 54 21.5t30 49.5h96q-16 -90 -70 -148t-143 -58q-50 0 -135.5 38.5
t-126.5 38.5q-29 0 -55 -19.5t-33 -49.5z" />
    <glyph glyph-name="Adieresis" unicode="&#xc4;" horiz-adv-x="1302" 
d="M1184 100h147v-100h-551v100h144l-138 377h-372l-131 -377h151v-100h-438v100h166l438 1227h141zM451 584h305l-154 436zM358 1552q0 54 37 90.5t90 36.5q55 0 91 -36.5t36 -90.5q0 -53 -36 -89t-91 -36q-53 0 -90 36.5t-37 88.5zM727 1552q0 54 36.5 90.5t90.5 36.5
q53 0 90 -36.5t37 -90.5q0 -52 -37 -88.5t-90 -36.5q-54 0 -90.5 36t-36.5 89z" />
    <glyph glyph-name="Aring" unicode="&#xc5;" horiz-adv-x="1302" 
d="M1184 100h147v-100h-551v100h144l-138 377h-372l-131 -377h151v-100h-438v100h166l438 1227h141zM451 584h305l-154 436zM573 1608q0 -42 28 -69.5t67 -27.5t66.5 27.5t27.5 69.5t-27.5 69t-66.5 27t-67 -27t-28 -69zM481 1608q0 76 55 128t132 52t131.5 -52t54.5 -128
t-54.5 -128.5t-131.5 -52.5t-132 52.5t-55 128.5z" />
    <glyph glyph-name="AE" unicode="&#xc6;" horiz-adv-x="1773" 
d="M823 100v375h-348l-178 -375h158v-100h-459v100h168l522 1131h-127v96h1143v-373h-143l-109 277h-381v-471h219v139h131v-389h-131v141h-219v-551h397l107 273h143v-373h-1065v100h172zM520 584h303l4 647h-20z" />
    <glyph glyph-name="Ccedilla" unicode="&#xc7;" horiz-adv-x="1181" 
d="M676 92q131 0 220.5 70t117.5 215h106q-30 -190 -156 -295t-307 -105q-108 0 -198.5 27.5t-154.5 76t-112 111.5t-76 137.5t-41.5 150t-13.5 153.5q0 108 20 208.5t66 193.5t114 161t169.5 109t226.5 41q264 0 426 -166v-230h-176q-8 81 -34 141.5t-62 94t-74.5 49.5
t-79.5 16q-75 0 -134.5 -26.5t-98 -72t-63.5 -109.5t-35.5 -134.5t-10.5 -152.5q0 -122 24.5 -239.5t69.5 -213t114.5 -153.5t152.5 -58zM487 -342l39 78q48 -37 103 -37q37 0 57.5 20t20.5 52q0 29 -25 45t-66 16h-22l8 94h33q95 0 143.5 -43t48.5 -114q0 -80 -58.5 -122
t-137.5 -42q-36 0 -72 13.5t-54 26.5z" />
    <glyph glyph-name="Egrave" unicode="&#xc8;" horiz-adv-x="1175" 
d="M221 100v1131h-174v96h1055v-373h-144l-104 277h-387v-471h215v139h123v-389h-123v141h-215v-551h405l103 273h143v-373h-1071v100h174zM537 1765l297 -340h-134l-297 195z" />
    <glyph glyph-name="Eacute" unicode="&#xc9;" horiz-adv-x="1175" 
d="M221 100v1131h-174v96h1055v-373h-144l-104 277h-387v-471h215v139h123v-389h-123v141h-215v-551h405l103 273h143v-373h-1071v100h174zM410 1425l297 340l133 -145l-297 -195h-133z" />
    <glyph glyph-name="Ecircumflex" unicode="&#xca;" horiz-adv-x="1175" 
d="M221 100v1131h-174v96h1055v-373h-144l-104 277h-387v-471h215v139h123v-389h-123v141h-215v-551h405l103 273h143v-373h-1071v100h174zM299 1427l319 326l318 -326h-141l-179 121l-182 -121h-135z" />
    <glyph glyph-name="Edieresis" unicode="&#xcb;" horiz-adv-x="1175" 
d="M221 100v1131h-174v96h1055v-373h-144l-104 277h-387v-471h215v139h123v-389h-123v141h-215v-551h405l103 273h143v-373h-1071v100h174zM317 1552q0 54 37 90.5t90 36.5q55 0 91 -36.5t36 -90.5q0 -53 -36 -89t-91 -36q-53 0 -90 36.5t-37 88.5zM686 1552q0 54 36.5 90.5
t90.5 36.5q53 0 90 -36.5t37 -90.5q0 -52 -37 -88.5t-90 -36.5q-54 0 -90.5 36t-36.5 89z" />
    <glyph glyph-name="Igrave" unicode="&#xcc;" horiz-adv-x="716" 
d="M680 1231h-199v-1131h199v-100h-643v100h199v1131h-199v96h643v-96zM258 1765l297 -340h-133l-297 195z" />
    <glyph glyph-name="Iacute" unicode="&#xcd;" horiz-adv-x="716" 
d="M680 1231h-199v-1131h199v-100h-643v100h199v1131h-199v96h643v-96zM156 1427l297 340l133 -145l-297 -195h-133z" />
    <glyph glyph-name="Icircumflex" unicode="&#xce;" horiz-adv-x="716" 
d="M680 1231h-199v-1131h199v-100h-643v100h199v1131h-199v96h643v-96zM41 1427l319 326l318 -326h-141l-179 121l-182 -121h-135z" />
    <glyph glyph-name="Idieresis" unicode="&#xcf;" horiz-adv-x="716" 
d="M680 1231h-199v-1131h199v-100h-643v100h199v1131h-199v96h643v-96zM49 1552q0 54 37 90.5t90 36.5q55 0 91 -36.5t36 -90.5q0 -53 -36 -89t-91 -36q-53 0 -90 36.5t-37 88.5zM418 1552q0 54 36.5 90.5t90.5 36.5q53 0 90 -36.5t37 -90.5q0 -52 -37 -88.5t-90 -36.5
q-54 0 -90.5 36t-36.5 89z" />
    <glyph glyph-name="Eth" unicode="&#xd0;" horiz-adv-x="1359" 
d="M37 100h172v531h-174v104h174v496h-172v96h659q128 0 230.5 -34.5t170.5 -94t113 -143t64.5 -177t19.5 -200.5q0 -100 -20 -194.5t-66 -183t-113.5 -154.5t-170 -106t-228.5 -40h-659v100zM459 100h237q75 0 134.5 33t97.5 87.5t63 131t35 157t10 171.5q0 120 -19.5 218
t-59.5 173.5t-106.5 117.5t-154.5 42h-237v-496h233v-104h-233v-531z" />
    <glyph glyph-name="Ntilde" unicode="&#xd1;" horiz-adv-x="1314" 
d="M836 1327h442v-98h-168v-1229h-152l-639 1008v-908h168v-100h-440v100h160v1129h-156v98h363l579 -907v809h-157v98zM424 1442h-96q21 88 77.5 145.5t147.5 57.5q49 0 133.5 -38t120.5 -38q29 0 54 21.5t30 49.5h96q-16 -90 -70 -148t-143 -58q-50 0 -136 38.5t-126 38.5
q-29 0 -55 -19.5t-33 -49.5z" />
    <glyph glyph-name="Ograve" unicode="&#xd2;" horiz-adv-x="1325" 
d="M662 1346q127 0 230.5 -38.5t170.5 -102t112.5 -148t65 -173.5t19.5 -182q0 -108 -20.5 -209.5t-67 -196t-114.5 -165t-170 -112.5t-226 -42q-108 0 -198.5 27t-154.5 75t-112 110t-76 136t-41.5 148.5t-13.5 151.5q0 108 21 209.5t67.5 195t114.5 163.5t169.5 111.5
t223.5 41.5zM1008 575q0 127 -21 245t-62 217t-110 158.5t-156 59.5q-92 0 -159.5 -39.5t-106 -110t-56.5 -156t-18 -189.5q-1 -127 19.5 -247t60.5 -220.5t108.5 -161.5t154.5 -61q94 0 163 39t108 110t57 159t18 197zM565 1767l297 -340h-133l-297 195z" />
    <glyph glyph-name="Oacute" unicode="&#xd3;" horiz-adv-x="1325" 
d="M662 1346q127 0 230.5 -38.5t170.5 -102t112.5 -148t65 -173.5t19.5 -182q0 -108 -20.5 -209.5t-67 -196t-114.5 -165t-170 -112.5t-226 -42q-108 0 -198.5 27t-154.5 75t-112 110t-76 136t-41.5 148.5t-13.5 151.5q0 108 21 209.5t67.5 195t114.5 163.5t169.5 111.5
t223.5 41.5zM1008 575q0 127 -21 245t-62 217t-110 158.5t-156 59.5q-92 0 -159.5 -39.5t-106 -110t-56.5 -156t-18 -189.5q-1 -127 19.5 -247t60.5 -220.5t108.5 -161.5t154.5 -61q94 0 163 39t108 110t57 159t18 197zM461 1427l297 340l133 -145l-297 -195h-133z" />
    <glyph glyph-name="Ocircumflex" unicode="&#xd4;" horiz-adv-x="1325" 
d="M662 1346q127 0 230.5 -38.5t170.5 -102t112.5 -148t65 -173.5t19.5 -182q0 -108 -20.5 -209.5t-67 -196t-114.5 -165t-170 -112.5t-226 -42q-108 0 -198.5 27t-154.5 75t-112 110t-76 136t-41.5 148.5t-13.5 151.5q0 108 21 209.5t67.5 195t114.5 163.5t169.5 111.5
t223.5 41.5zM1008 575q0 127 -21 245t-62 217t-110 158.5t-156 59.5q-92 0 -159.5 -39.5t-106 -110t-56.5 -156t-18 -189.5q-1 -127 19.5 -247t60.5 -220.5t108.5 -161.5t154.5 -61q94 0 163 39t108 110t57 159t18 197zM342 1427l320 326l317 -326h-141l-179 121l-182 -121
h-135z" />
    <glyph glyph-name="Otilde" unicode="&#xd5;" horiz-adv-x="1325" 
d="M662 1346q127 0 230.5 -38.5t170.5 -102t112.5 -148t65 -173.5t19.5 -182q0 -108 -20.5 -209.5t-67 -196t-114.5 -165t-170 -112.5t-226 -42q-108 0 -198.5 27t-154.5 75t-112 110t-76 136t-41.5 148.5t-13.5 151.5q0 108 21 209.5t67.5 195t114.5 163.5t169.5 111.5
t223.5 41.5zM1008 575q0 127 -21 245t-62 217t-110 158.5t-156 59.5q-92 0 -159.5 -39.5t-106 -110t-56.5 -156t-18 -189.5q-1 -127 19.5 -247t60.5 -220.5t108.5 -161.5t154.5 -61q94 0 163 39t108 110t57 159t18 197zM428 1444h-96q21 88 77.5 145.5t147.5 57.5
q49 0 133.5 -38t120.5 -38q29 0 54 21.5t30 49.5h96q-16 -90 -70 -148t-143 -58q-50 0 -136 38.5t-126 38.5q-29 0 -55 -19.5t-33 -49.5z" />
    <glyph glyph-name="Odieresis" unicode="&#xd6;" horiz-adv-x="1325" 
d="M662 1346q127 0 230.5 -38.5t170.5 -102t112.5 -148t65 -173.5t19.5 -182q0 -108 -20.5 -209.5t-67 -196t-114.5 -165t-170 -112.5t-226 -42q-108 0 -198.5 27t-154.5 75t-112 110t-76 136t-41.5 148.5t-13.5 151.5q0 108 21 209.5t67.5 195t114.5 163.5t169.5 111.5
t223.5 41.5zM1008 575q0 127 -21 245t-62 217t-110 158.5t-156 59.5q-92 0 -159.5 -39.5t-106 -110t-56.5 -156t-18 -189.5q-1 -127 19.5 -247t60.5 -220.5t108.5 -161.5t154.5 -61q94 0 163 39t108 110t57 159t18 197zM350 1550q0 54 37 90.5t90 36.5q55 0 91 -36.5
t36 -90.5q0 -53 -36 -89t-91 -36q-53 0 -90 36.5t-37 88.5zM719 1550q0 54 36.5 90.5t90.5 36.5q53 0 90 -36.5t37 -90.5q0 -52 -37 -88.5t-90 -36.5q-54 0 -90.5 36t-36.5 89z" />
    <glyph glyph-name="multiply" unicode="&#xd7;" horiz-adv-x="823" 
d="M154 119l-91 88l259 252l-259 254l91 88l256 -256l254 256l90 -84l-258 -256l260 -256l-94 -88l-252 254z" />
    <glyph glyph-name="Oslash" unicode="&#xd8;" horiz-adv-x="1325" 
d="M662 1346q205 0 348 -99l80 115h133l-131 -186q85 -91 126.5 -216t41.5 -258q0 -108 -20.5 -209.5t-67 -196t-114.5 -165t-170 -112.5t-226 -42q-198 0 -338 93l-78 -113h-133l127 182q-89 92 -131.5 220.5t-42.5 265.5q0 108 21 209.5t67.5 195t114.5 163.5t169.5 111.5
t223.5 41.5zM319 760q0 -241 62 -418l518 745q-91 168 -240 168q-92 0 -159.5 -39.5t-106 -110t-56.5 -156t-18 -189.5zM1008 575q0 220 -58 394l-518 -744q91 -155 230 -155q94 0 163 39t108 110t57 159t18 197z" />
    <glyph glyph-name="Ugrave" unicode="&#xd9;" horiz-adv-x="1300" 
d="M1114 1231v-864q0 -177 -121 -283.5t-331 -106.5q-226 0 -353 118.5t-127 340.5v795h-159v96h565v-96h-160v-844q0 -143 64 -221t188 -78q53 0 105 15.5t99.5 46.5t77 87t29.5 128v866h-170v96h455v-96h-162zM610 1767l297 -340h-133l-297 195z" />
    <glyph glyph-name="Uacute" unicode="&#xda;" horiz-adv-x="1300" 
d="M1114 1231v-864q0 -177 -121 -283.5t-331 -106.5q-226 0 -353 118.5t-127 340.5v795h-159v96h565v-96h-160v-844q0 -143 64 -221t188 -78q53 0 105 15.5t99.5 46.5t77 87t29.5 128v866h-170v96h455v-96h-162zM463 1427l297 340l133 -145l-297 -195h-133z" />
    <glyph glyph-name="Ucircumflex" unicode="&#xdb;" horiz-adv-x="1300" 
d="M1114 1231v-864q0 -177 -121 -283.5t-331 -106.5q-226 0 -353 118.5t-127 340.5v795h-159v96h565v-96h-160v-844q0 -143 64 -221t188 -78q53 0 105 15.5t99.5 46.5t77 87t29.5 128v866h-170v96h455v-96h-162zM348 1427l320 326l317 -326h-141l-178 121l-183 -121h-135z
" />
    <glyph glyph-name="Udieresis" unicode="&#xdc;" horiz-adv-x="1300" 
d="M1114 1231v-864q0 -177 -121 -283.5t-331 -106.5q-226 0 -353 118.5t-127 340.5v795h-159v96h565v-96h-160v-844q0 -143 64 -221t188 -78q53 0 105 15.5t99.5 46.5t77 87t29.5 128v866h-170v96h455v-96h-162zM381 1552q0 54 37 90.5t90 36.5q55 0 91 -36.5t36 -90.5
q0 -53 -36 -89t-91 -36q-53 0 -90 36.5t-37 88.5zM750 1552q0 54 36.5 90.5t90.5 36.5q53 0 90 -36.5t37 -90.5q0 -52 -37 -88.5t-90 -36.5q-54 0 -90.5 36t-36.5 89z" />
    <glyph glyph-name="Yacute" unicode="&#xdd;" horiz-adv-x="1224" 
d="M492 561l-330 670h-170v96h579v-96h-147l246 -510l262 510h-172v96h471v-96h-180l-316 -621v-510h199v-100h-639v100h197v461zM426 1425l297 340l133 -145l-297 -195h-133z" />
    <glyph glyph-name="Thorn" unicode="&#xde;" horiz-adv-x="1153" 
d="M596 1231h-158v-172h209q108 0 191.5 -27.5t134.5 -76.5t76.5 -111.5t25.5 -136.5q0 -158 -117 -264.5t-311 -106.5h-209v-236h158v-100h-563v100h157v1131h-157v96h563v-96zM438 965v-525h187q77 0 130.5 75t53.5 187q0 116 -50.5 189.5t-133.5 73.5h-187z" />
    <glyph glyph-name="germandbls" unicode="&#xdf;" horiz-adv-x="1054" 
d="M684 66q53 0 89 40.5t36 98.5q0 74 -64 129l-157 117q-31 25 -46.5 39.5t-37.5 41.5t-31.5 60t-9.5 74q0 85 96 176q27 25 35 34t26 33.5t24.5 51.5t6.5 63q0 59 -13 104.5t-47.5 77t-88.5 31.5q-59 0 -95 -44.5t-36 -125.5v-1067h-344v88h123v889q0 154 94.5 250
t259.5 96q99 0 173 -27t114.5 -72t59.5 -94t19 -102q0 -76 -51 -135.5t-143 -122.5q-45 -29 -45 -72q0 -27 13.5 -44.5t41.5 -37.5l176 -124q158 -112 158 -261q0 -102 -93.5 -176.5t-242.5 -74.5q-126 0 -244 86l49 73q101 -73 195 -73z" />
    <glyph glyph-name="agrave" unicode="&#xe0;" horiz-adv-x="983" 
d="M344 621h-233q-3 39 10.5 88t32.5 79q93 148 319 148q344 0 344 -313v-476q0 -25 15.5 -38t35.5 -13q13 0 34.5 10.5t35.5 22.5l37 -70q-82 -82 -207 -82q-56 0 -101 23.5t-63 48.5q-46 -29 -66.5 -40t-65.5 -22.5t-103 -11.5q-55 0 -104.5 13t-91.5 39.5t-66.5 72
t-24.5 105.5q0 92 56.5 149t174.5 97l273 90v82q0 118 -26 172.5t-97 54.5q-64 0 -98.5 -44t-28.5 -106zM586 152v294l-154 -53q-53 -18 -83 -58.5t-30 -98.5q0 -61 35.5 -104.5t89.5 -43.5q40 0 69.5 14t72.5 50zM397 1382l297 -340h-133l-297 195z" />
    <glyph glyph-name="aacute" unicode="&#xe1;" horiz-adv-x="983" 
d="M344 621h-233q-3 39 10.5 88t32.5 79q93 148 319 148q344 0 344 -313v-476q0 -25 15.5 -38t35.5 -13q13 0 34.5 10.5t35.5 22.5l37 -70q-82 -82 -207 -82q-56 0 -101 23.5t-63 48.5q-46 -29 -66.5 -40t-65.5 -22.5t-103 -11.5q-55 0 -104.5 13t-91.5 39.5t-66.5 72
t-24.5 105.5q0 92 56.5 149t174.5 97l273 90v82q0 118 -26 172.5t-97 54.5q-64 0 -98.5 -44t-28.5 -106zM586 152v294l-154 -53q-53 -18 -83 -58.5t-30 -98.5q0 -61 35.5 -104.5t89.5 -43.5q40 0 69.5 14t72.5 50zM248 1042l297 340l133 -145l-297 -195h-133z" />
    <glyph glyph-name="acircumflex" unicode="&#xe2;" horiz-adv-x="983" 
d="M344 621h-233q-3 39 10.5 88t32.5 79q93 148 319 148q344 0 344 -313v-476q0 -25 15.5 -38t35.5 -13q13 0 34.5 10.5t35.5 22.5l37 -70q-82 -82 -207 -82q-56 0 -101 23.5t-63 48.5q-46 -29 -66.5 -40t-65.5 -22.5t-103 -11.5q-55 0 -104.5 13t-91.5 39.5t-66.5 72
t-24.5 105.5q0 92 56.5 149t174.5 97l273 90v82q0 118 -26 172.5t-97 54.5q-64 0 -98.5 -44t-28.5 -106zM586 152v294l-154 -53q-53 -18 -83 -58.5t-30 -98.5q0 -61 35.5 -104.5t89.5 -43.5q40 0 69.5 14t72.5 50zM150 1042l319 326l317 -326h-141l-178 121l-182 -121h-135z
" />
    <glyph glyph-name="atilde" unicode="&#xe3;" horiz-adv-x="983" 
d="M344 621h-233q-3 39 10.5 88t32.5 79q93 148 319 148q344 0 344 -313v-476q0 -25 15.5 -38t35.5 -13q13 0 34.5 10.5t35.5 22.5l37 -70q-82 -82 -207 -82q-56 0 -101 23.5t-63 48.5q-46 -29 -66.5 -40t-65.5 -22.5t-103 -11.5q-55 0 -104.5 13t-91.5 39.5t-66.5 72
t-24.5 105.5q0 92 56.5 149t174.5 97l273 90v82q0 118 -26 172.5t-97 54.5q-64 0 -98.5 -44t-28.5 -106zM586 152v294l-154 -53q-53 -18 -83 -58.5t-30 -98.5q0 -61 35.5 -104.5t89.5 -43.5q40 0 69.5 14t72.5 50zM246 1075h-96q21 88 77.5 145.5t147.5 57.5q49 0 133.5 -38
t120.5 -38q29 0 54 22t30 50h96q-16 -90 -70 -148.5t-143 -58.5q-50 0 -136 39t-126 39q-29 0 -55 -20t-33 -50z" />
    <glyph glyph-name="adieresis" unicode="&#xe4;" horiz-adv-x="983" 
d="M344 621h-233q-3 39 10.5 88t32.5 79q93 148 319 148q344 0 344 -313v-476q0 -25 15.5 -38t35.5 -13q13 0 34.5 10.5t35.5 22.5l37 -70q-82 -82 -207 -82q-56 0 -101 23.5t-63 48.5q-46 -29 -66.5 -40t-65.5 -22.5t-103 -11.5q-55 0 -104.5 13t-91.5 39.5t-66.5 72
t-24.5 105.5q0 92 56.5 149t174.5 97l273 90v82q0 118 -26 172.5t-97 54.5q-64 0 -98.5 -44t-28.5 -106zM586 152v294l-154 -53q-53 -18 -83 -58.5t-30 -98.5q0 -61 35.5 -104.5t89.5 -43.5q40 0 69.5 14t72.5 50zM158 1229q0 54 37 90.5t90 36.5q55 0 91 -36.5t36 -90.5
q0 -53 -36 -89t-91 -36q-53 0 -90 36.5t-37 88.5zM526 1229q0 54 36.5 90.5t90.5 36.5q53 0 90 -36.5t37 -90.5q0 -52 -37 -88.5t-90 -36.5q-54 0 -90.5 36t-36.5 89z" />
    <glyph glyph-name="aring" unicode="&#xe5;" horiz-adv-x="983" 
d="M344 621h-233q-3 39 10.5 88t32.5 79q93 148 319 148q344 0 344 -313v-476q0 -25 15.5 -38t35.5 -13q13 0 34.5 10.5t35.5 22.5l37 -70q-82 -82 -207 -82q-56 0 -101 23.5t-63 48.5q-46 -29 -66.5 -40t-65.5 -22.5t-103 -11.5q-55 0 -104.5 13t-91.5 39.5t-66.5 72
t-24.5 105.5q0 92 56.5 149t174.5 97l273 90v82q0 118 -26 172.5t-97 54.5q-64 0 -98.5 -44t-28.5 -106zM586 152v294l-154 -53q-53 -18 -83 -58.5t-30 -98.5q0 -61 35.5 -104.5t89.5 -43.5q40 0 69.5 14t72.5 50zM365 1237q0 -42 27.5 -69t66.5 -27t66.5 27t27.5 69
t-27.5 69t-66.5 27t-66.5 -27t-27.5 -69zM272 1237q0 76 55 128t132 52t131.5 -52t54.5 -128t-54.5 -128t-131.5 -52t-132 52t-55 128z" />
    <glyph glyph-name="ae" unicode="&#xe6;" horiz-adv-x="1486" 
d="M1067 104q98 0 164 56t90 153l88 -2q-25 -141 -126.5 -237.5t-262.5 -96.5q-194 0 -305 121q-89 -60 -171 -91.5t-175 -31.5q-55 0 -104.5 13t-91.5 39.5t-66.5 72t-24.5 105.5q0 92 56.5 149t174.5 97l273 90v82q0 118 -26 172.5t-97 54.5q-64 0 -98.5 -44t-28.5 -106
l8 -79h-233q-3 39 10.5 88t32.5 79q93 148 319 148q189 0 275 -98q117 102 278 102q170 0 269 -94.5t114 -261.5q3 -50 0 -103h-592q3 -94 35 -179.5t89 -141.5t126 -56zM449 88q49 0 113.5 30t96.5 58q-62 112 -65 273l-162 -56q-53 -18 -83 -58.5t-30 -98.5
q0 -62 36.5 -105t93.5 -43zM1014 852q-92 0 -140.5 -78t-56.5 -201h361q0 57 -8.5 104.5t-26.5 88t-51 63.5t-78 23z" />
    <glyph glyph-name="ccedilla" unicode="&#xe7;" horiz-adv-x="942" 
d="M500 -23q-188 0 -305 130.5t-117 336.5q0 75 17.5 147t53.5 135.5t86 111.5t120.5 76t152.5 28q83 0 150.5 -24.5t109.5 -64t65.5 -84t28.5 -89.5h-223q-5 72 -42.5 122t-98.5 50q-69 0 -114.5 -48t-63 -119t-17.5 -163q0 -73 15 -143.5t44 -131t79 -97.5t112 -37
q94 0 156 53.5t86 146.5l90 -2q-27 -142 -126 -238t-259 -96zM354 -342l39 78q48 -37 103 -37q37 0 57 20t20 52q0 29 -24.5 45t-65.5 16h-22l8 94h33q95 0 143.5 -43t48.5 -114q0 -80 -58.5 -122t-137.5 -42q-36 0 -72 13.5t-54 26.5z" />
    <glyph glyph-name="egrave" unicode="&#xe8;" horiz-adv-x="970" 
d="M551 104q98 0 164 56t90 153l88 -2q-25 -141 -126.5 -237.5t-262.5 -96.5q-87 0 -158 26t-120.5 71t-83 106.5t-49 132.5t-15.5 150q0 202 119.5 339.5t312.5 137.5q170 0 269 -94.5t114 -261.5q3 -50 0 -103h-592q3 -94 35 -179.5t89 -141.5t126 -56zM498 852
q-92 0 -140.5 -78t-56.5 -201h361q0 57 -8.5 104.5t-26.5 88t-51 63.5t-78 23zM401 1382l297 -340h-133l-297 195z" />
    <glyph glyph-name="eacute" unicode="&#xe9;" horiz-adv-x="970" 
d="M551 104q98 0 164 56t90 153l88 -2q-25 -141 -126.5 -237.5t-262.5 -96.5q-87 0 -158 26t-120.5 71t-83 106.5t-49 132.5t-15.5 150q0 202 119.5 339.5t312.5 137.5q170 0 269 -94.5t114 -261.5q3 -50 0 -103h-592q3 -94 35 -179.5t89 -141.5t126 -56zM498 852
q-92 0 -140.5 -78t-56.5 -201h361q0 57 -8.5 104.5t-26.5 88t-51 63.5t-78 23zM287 1042l297 340l133 -145l-297 -195h-133z" />
    <glyph glyph-name="ecircumflex" unicode="&#xea;" horiz-adv-x="970" 
d="M551 104q98 0 164 56t90 153l88 -2q-25 -141 -126.5 -237.5t-262.5 -96.5q-87 0 -158 26t-120.5 71t-83 106.5t-49 132.5t-15.5 150q0 202 119.5 339.5t312.5 137.5q170 0 269 -94.5t114 -261.5q3 -50 0 -103h-592q3 -94 35 -179.5t89 -141.5t126 -56zM498 852
q-92 0 -140.5 -78t-56.5 -201h361q0 57 -8.5 104.5t-26.5 88t-51 63.5t-78 23zM178 1044l320 326l317 -326h-141l-178 121l-183 -121h-135z" />
    <glyph glyph-name="edieresis" unicode="&#xeb;" horiz-adv-x="970" 
d="M551 104q98 0 164 56t90 153l88 -2q-25 -141 -126.5 -237.5t-262.5 -96.5q-87 0 -158 26t-120.5 71t-83 106.5t-49 132.5t-15.5 150q0 202 119.5 339.5t312.5 137.5q170 0 269 -94.5t114 -261.5q3 -50 0 -103h-592q3 -94 35 -179.5t89 -141.5t126 -56zM498 852
q-92 0 -140.5 -78t-56.5 -201h361q0 57 -8.5 104.5t-26.5 88t-51 63.5t-78 23zM186 1229q0 54 37 90.5t90 36.5q55 0 91 -36.5t36 -90.5q0 -53 -36 -89t-91 -36q-53 0 -90 36.5t-37 88.5zM555 1229q0 54 36.5 90.5t90.5 36.5q53 0 90 -36.5t37 -90.5q0 -52 -37 -88.5
t-90 -36.5q-54 0 -90.5 36t-36.5 89z" />
    <glyph glyph-name="igrave" unicode="&#xec;" horiz-adv-x="622" 
d="M203 88v739h-144v84l373 25v-848h160v-88h-547v88h158zM133 1380l297 -340h-133l-297 195z" />
    <glyph glyph-name="iacute" unicode="&#xed;" horiz-adv-x="622" 
d="M203 88v739h-144v84l373 25v-848h160v-88h-547v88h158zM96 1044l297 340l133 -145l-297 -195h-133z" />
    <glyph glyph-name="icircumflex" unicode="&#xee;" horiz-adv-x="622" 
d="M203 88v739h-144v84l373 25v-848h160v-88h-547v88h158zM-10 1040l319 326l318 -326h-142l-178 121l-182 -121h-135z" />
    <glyph glyph-name="idieresis" unicode="&#xef;" horiz-adv-x="622" 
d="M203 88v739h-144v84l373 25v-848h160v-88h-547v88h158zM0 1229q0 54 37 90.5t90 36.5q55 0 91 -36.5t36 -90.5q0 -53 -36 -89t-91 -36q-53 0 -90 36.5t-37 88.5zM369 1229q0 54 36.5 90.5t90.5 36.5q53 0 90 -36.5t37 -90.5q0 -52 -37 -88.5t-90 -36.5q-54 0 -90.5 36
t-36.5 89z" />
    <glyph glyph-name="eth" unicode="&#xf0;" horiz-adv-x="1015" 
d="M864 1311l-186 -103q122 -111 189 -288.5t67 -405.5q0 -76 -16.5 -151t-52 -145t-85 -123.5t-121 -85.5t-155.5 -32q-94 0 -168.5 26t-122.5 68t-79.5 100t-44.5 118.5t-13 126.5q0 79 15.5 152.5t49 141t82.5 117.5t121.5 79.5t159.5 29.5q58 0 114.5 -27.5t96.5 -74.5
q-14 83 -55.5 168t-100.5 143l-227 -125l-39 72l199 106q-143 90 -340 90v86q23 2 69 2q220 0 391 -114l98 54.5t117 63.5zM504 66q100 0 145 91t45 238q0 87 -11.5 165.5t-33.5 144t-59.5 104.5t-85.5 39q-50 0 -87.5 -26.5t-59 -72.5t-32 -102t-10.5 -123
q0 -84 11.5 -163.5t33.5 -146.5t59.5 -107.5t84.5 -40.5z" />
    <glyph glyph-name="ntilde" unicode="&#xf1;" horiz-adv-x="1097" 
d="M395 932l4 -76q29 37 93 61.5t143 24.5q88 0 151 -26.5t96.5 -73.5t48.5 -102t15 -122v-530h125v-88h-481v88h127v530q0 226 -137 226q-75 0 -128 -56t-53 -167v-533h123v-88h-477v88h127v739h-127v84zM315 1075h-96q21 88 77.5 145.5t147.5 57.5q49 0 133.5 -38
t120.5 -38q29 0 54 22t30 50h97q-16 -90 -70 -148.5t-143 -58.5q-49 0 -135.5 39t-127.5 39q-29 0 -55 -20t-33 -50z" />
    <glyph glyph-name="ograve" unicode="&#xf2;" horiz-adv-x="1017" 
d="M508 63q100 0 147 93.5t47 240.5q0 117 -20 218t-65.5 170t-108.5 69q-50 0 -88.5 -27t-60.5 -73.5t-33 -104t-11 -123.5q0 -114 20 -216.5t65.5 -174.5t107.5 -72zM512 942q90 0 164.5 -28t122.5 -74t81 -107t47.5 -124t14.5 -128q0 -72 -17.5 -144t-54 -137t-87 -115
t-123 -80t-156.5 -30q-92 0 -166.5 28.5t-122.5 74t-80 107t-45.5 124.5t-13.5 129q0 75 16 146.5t51 137t85 114t123.5 77.5t160.5 29zM416 1380l297 -340h-133l-297 195z" />
    <glyph glyph-name="oacute" unicode="&#xf3;" horiz-adv-x="1017" 
d="M508 63q100 0 147 93.5t47 240.5q0 117 -20 218t-65.5 170t-108.5 69q-50 0 -88.5 -27t-60.5 -73.5t-33 -104t-11 -123.5q0 -114 20 -216.5t65.5 -174.5t107.5 -72zM512 942q90 0 164.5 -28t122.5 -74t81 -107t47.5 -124t14.5 -128q0 -72 -17.5 -144t-54 -137t-87 -115
t-123 -80t-156.5 -30q-92 0 -166.5 28.5t-122.5 74t-80 107t-45.5 124.5t-13.5 129q0 75 16 146.5t51 137t85 114t123.5 77.5t160.5 29zM309 1040l297 340l133 -145l-297 -195h-133z" />
    <glyph glyph-name="ocircumflex" unicode="&#xf4;" horiz-adv-x="1017" 
d="M508 63q100 0 147 93.5t47 240.5q0 117 -20 218t-65.5 170t-108.5 69q-50 0 -88.5 -27t-60.5 -73.5t-33 -104t-11 -123.5q0 -114 20 -216.5t65.5 -174.5t107.5 -72zM512 942q90 0 164.5 -28t122.5 -74t81 -107t47.5 -124t14.5 -128q0 -72 -17.5 -144t-54 -137t-87 -115
t-123 -80t-156.5 -30q-92 0 -166.5 28.5t-122.5 74t-80 107t-45.5 124.5t-13.5 129q0 75 16 146.5t51 137t85 114t123.5 77.5t160.5 29zM184 1040l320 326l317 -326h-141l-178 121l-183 -121h-135z" />
    <glyph glyph-name="otilde" unicode="&#xf5;" horiz-adv-x="1017" 
d="M508 63q100 0 147 93.5t47 240.5q0 117 -20 218t-65.5 170t-108.5 69q-50 0 -88.5 -27t-60.5 -73.5t-33 -104t-11 -123.5q0 -114 20 -216.5t65.5 -174.5t107.5 -72zM512 942q90 0 164.5 -28t122.5 -74t81 -107t47.5 -124t14.5 -128q0 -72 -17.5 -144t-54 -137t-87 -115
t-123 -80t-156.5 -30q-92 0 -166.5 28.5t-122.5 74t-80 107t-45.5 124.5t-13.5 129q0 75 16 146.5t51 137t85 114t123.5 77.5t160.5 29zM268 1073h-96q21 88 77.5 145.5t147.5 57.5q49 0 133.5 -38t120.5 -38q29 0 54 22t30 50h96q-16 -90 -70 -148.5t-143 -58.5
q-50 0 -136 39t-126 39q-29 0 -55 -20t-33 -50z" />
    <glyph glyph-name="odieresis" unicode="&#xf6;" horiz-adv-x="1017" 
d="M508 63q100 0 147 93.5t47 240.5q0 117 -20 218t-65.5 170t-108.5 69q-50 0 -88.5 -27t-60.5 -73.5t-33 -104t-11 -123.5q0 -114 20 -216.5t65.5 -174.5t107.5 -72zM512 942q90 0 164.5 -28t122.5 -74t81 -107t47.5 -124t14.5 -128q0 -72 -17.5 -144t-54 -137t-87 -115
t-123 -80t-156.5 -30q-92 0 -166.5 28.5t-122.5 74t-80 107t-45.5 124.5t-13.5 129q0 75 16 146.5t51 137t85 114t123.5 77.5t160.5 29zM193 1231q0 54 36.5 90.5t89.5 36.5q55 0 91 -36.5t36 -90.5q0 -53 -36 -89t-91 -36q-53 0 -89.5 36.5t-36.5 88.5zM561 1231
q0 54 36.5 90.5t90.5 36.5q53 0 90 -36.5t37 -90.5q0 -52 -37 -88.5t-90 -36.5q-54 0 -90.5 36t-36.5 89z" />
    <glyph glyph-name="divide" unicode="&#xf7;" horiz-adv-x="1007" 
d="M924 514v-115h-842v115h842zM352 788q0 62 38 101t97 39q62 0 101 -38.5t39 -101.5q0 -59 -39.5 -98t-100.5 -39q-58 0 -96.5 39t-38.5 98zM352 109q0 61 38 99t97 38q62 0 101 -38t39 -99q0 -59 -39.5 -98.5t-100.5 -39.5q-58 0 -96.5 39.5t-38.5 98.5z" />
    <glyph glyph-name="oslash" unicode="&#xf8;" horiz-adv-x="1017" 
d="M76 438q0 75 16 146.5t51 137t85 114t123.5 77.5t160.5 29q128 0 221 -55l55 88h103l-88 -139q70 -67 104.5 -161.5t34.5 -193.5q0 -72 -17.5 -144t-54 -137t-87 -115t-123 -80t-156.5 -30q-123 0 -215 50l-64 -103h-106l98 154q-72 67 -106.5 163t-34.5 199zM315 526
q0 -139 29 -252l297 469q-54 111 -133 111q-50 0 -88.5 -27t-60.5 -73.5t-33 -104t-11 -123.5zM508 63q100 0 147 93.5t47 240.5q0 133 -26 240l-295 -469q52 -105 127 -105z" />
    <glyph glyph-name="ugrave" unicode="&#xf9;" 
d="M707 -18l-5 73q-80 -80 -231 -80q-315 0 -315 322v530h-125v88h354v-618q0 -223 133 -223q77 0 130.5 55.5t53.5 167.5v530h-124v88h352v-827h127v-84zM459 1380l297 -340h-133l-297 195z" />
    <glyph glyph-name="uacute" unicode="&#xfa;" 
d="M707 -18l-5 73q-80 -80 -231 -80q-315 0 -315 322v530h-125v88h354v-618q0 -223 133 -223q77 0 130.5 55.5t53.5 167.5v530h-124v88h352v-827h127v-84zM268 1042l297 340l133 -145l-297 -195h-133z" />
    <glyph glyph-name="ucircumflex" unicode="&#xfb;" 
d="M707 -18l-5 73q-80 -80 -231 -80q-315 0 -315 322v530h-125v88h354v-618q0 -223 133 -223q77 0 130.5 55.5t53.5 167.5v530h-124v88h352v-827h127v-84zM201 1040l319 326l318 -326h-142l-178 121l-182 -121h-135z" />
    <glyph glyph-name="udieresis" unicode="&#xfc;" 
d="M707 -18l-5 73q-80 -80 -231 -80q-315 0 -315 322v530h-125v88h354v-618q0 -223 133 -223q77 0 130.5 55.5t53.5 167.5v530h-124v88h352v-827h127v-84zM209 1231q0 54 37 90.5t90 36.5q55 0 91 -36.5t36 -90.5q0 -53 -36 -89t-91 -36q-53 0 -90 36.5t-37 88.5zM578 1231
q0 54 36.5 90.5t90.5 36.5q53 0 89.5 -36.5t36.5 -90.5q0 -52 -36.5 -88.5t-89.5 -36.5q-54 0 -90.5 36t-36.5 89z" />
    <glyph glyph-name="yacute" unicode="&#xfd;" horiz-adv-x="999" 
d="M887 827l-400 -1056q-80 -213 -254 -213q-62 0 -114 26t-107 74l74 84q81 -76 147 -76q89 0 132 105l84 213l-349 843h-118v88h493v-88h-129l217 -536l201 536h-135v88h389v-88h-131zM276 1040l297 340l134 -145l-297 -195h-134z" />
    <glyph glyph-name="thorn" unicode="&#xfe;" horiz-adv-x="1079" 
d="M133 1303h-139v81l368 25v-539q89 66 211 66q109 0 192.5 -35.5t132 -97t73 -137.5t24.5 -164q0 -76 -16 -149.5t-50 -142t-82.5 -121t-120 -83.5t-155.5 -31q-118 0 -209 72v-381h140v-86h-512v86h143v1637zM362 287q0 -95 61.5 -151t145.5 -56q69 0 113 44.5t61 113
t17 161.5q0 121 -20 216t-66.5 157t-114.5 62q-80 0 -138.5 -50.5t-58.5 -154.5v-342z" />
    <glyph glyph-name="ydieresis" unicode="&#xff;" horiz-adv-x="999" 
d="M887 827l-400 -1056q-80 -213 -254 -213q-62 0 -114 26t-107 74l74 84q81 -76 147 -76q89 0 132 105l84 213l-349 843h-118v88h493v-88h-129l217 -536l201 536h-135v88h389v-88h-131zM240 1229q0 54 37 90.5t90 36.5q55 0 91 -36.5t36 -90.5q0 -53 -36 -89t-91 -36
q-53 0 -90 36.5t-37 88.5zM608 1229q0 54 36.5 90.5t90.5 36.5q53 0 90 -36.5t37 -90.5q0 -52 -37 -88.5t-90 -36.5q-54 0 -90.5 36t-36.5 89z" />
    <glyph glyph-name="Amacron" unicode="&#x100;" horiz-adv-x="1302" 
d="M1184 100h147v-100h-551v100h144l-138 377h-372l-131 -377h151v-100h-438v100h166l438 1227h141zM451 584h305l-154 436zM920 1593v-102h-510v102h510z" />
    <glyph glyph-name="amacron" unicode="&#x101;" horiz-adv-x="983" 
d="M344 621h-233q-3 39 10.5 88t32.5 79q93 148 319 148q344 0 344 -313v-476q0 -25 15.5 -38t35.5 -13q13 0 34.5 10.5t35.5 22.5l37 -70q-82 -82 -207 -82q-56 0 -101 23.5t-63 48.5q-46 -29 -66.5 -40t-65.5 -22.5t-103 -11.5q-55 0 -104.5 13t-91.5 39.5t-66.5 72
t-24.5 105.5q0 92 56.5 149t174.5 97l273 90v82q0 118 -26 172.5t-97 54.5q-64 0 -98.5 -44t-28.5 -106zM586 152v294l-154 -53q-53 -18 -83 -58.5t-30 -98.5q0 -61 35.5 -104.5t89.5 -43.5q40 0 69.5 14t72.5 50zM725 1221v-103h-510v103h510z" />
    <glyph glyph-name="Abreve" unicode="&#x102;" horiz-adv-x="1302" 
d="M1184 100h147v-100h-551v100h144l-138 377h-372l-131 -377h151v-100h-438v100h166l438 1227h141zM451 584h305l-154 436zM672 1442q-109 0 -183 63.5t-77 163.5h116q4 -65 44 -97t100 -32t99.5 32t43.5 97h117q-3 -100 -77 -163.5t-183 -63.5z" />
    <glyph glyph-name="abreve" unicode="&#x103;" horiz-adv-x="983" 
d="M344 621h-233q-3 39 10.5 88t32.5 79q93 148 319 148q344 0 344 -313v-476q0 -25 15.5 -38t35.5 -13q13 0 34.5 10.5t35.5 22.5l37 -70q-82 -82 -207 -82q-56 0 -101 23.5t-63 48.5q-46 -29 -66.5 -40t-65.5 -22.5t-103 -11.5q-55 0 -104.5 13t-91.5 39.5t-66.5 72
t-24.5 105.5q0 92 56.5 149t174.5 97l273 90v82q0 118 -26 172.5t-97 54.5q-64 0 -98.5 -44t-28.5 -106zM586 152v294l-154 -53q-53 -18 -83 -58.5t-30 -98.5q0 -61 35.5 -104.5t89.5 -43.5q40 0 69.5 14t72.5 50zM473 1067q-109 0 -183 63.5t-77 163.5h117q4 -65 43.5 -97
t99.5 -32t99.5 32t43.5 97h117q-3 -100 -77 -163.5t-183 -63.5z" />
    <glyph glyph-name="Aogonek" unicode="&#x104;" horiz-adv-x="1302" 
d="M1188 0h-408v100h144l-138 377h-372l-131 -377h151v-100h-438v100h166l438 1227h141l443 -1227h147v-100q-168 -90 -168 -178q0 -33 19.5 -47.5t44.5 -14.5q15 0 35.5 8t33.5 16l13 7l43 -80q-8 -8 -23 -19t-58.5 -29.5t-84.5 -18.5q-64 0 -109 35.5t-45 107.5
q0 71 47 125t109 88zM451 584h305l-154 436z" />
    <glyph glyph-name="aogonek" unicode="&#x105;" horiz-adv-x="983" 
d="M344 621h-233q-3 39 10.5 88t32.5 79q93 148 319 148q344 0 344 -313v-476q0 -25 15.5 -38t35.5 -13q28 0 70 33l37 -70q-11 -11 -25.5 -22.5t-31 -23l-19.5 -13.5q-5 -4 -25 -18.5t-26 -19.5t-23 -18t-23 -19.5t-18.5 -18.5t-17.5 -20.5l-11.5 -20t-9 -22t-2.5 -21.5
q0 -33 19.5 -47.5t44.5 -14.5q15 0 35.5 8t33.5 16l13 7l43 -80q-8 -8 -23 -19t-58.5 -29.5t-84.5 -18.5q-64 0 -109 35.5t-45 107.5q0 112 123 193q-46 7 -81.5 27.5t-49.5 41.5q-46 -29 -66.5 -40t-65.5 -22.5t-103 -11.5q-55 0 -104.5 13t-91.5 39.5t-66.5 72
t-24.5 105.5q0 92 56.5 149t174.5 97l273 90v82q0 118 -26 172.5t-97 54.5q-64 0 -98.5 -44t-28.5 -106zM586 152v294l-154 -53q-53 -18 -83 -58.5t-30 -98.5q0 -61 35.5 -104.5t89.5 -43.5q40 0 69.5 14t72.5 50z" />
    <glyph glyph-name="Cacute" unicode="&#x106;" horiz-adv-x="1181" 
d="M676 92q131 0 220.5 70t117.5 215h106q-30 -190 -156 -295t-307 -105q-108 0 -198.5 27.5t-154.5 76t-112 111.5t-76 137.5t-41.5 150t-13.5 153.5q0 108 20 208.5t66 193.5t114 161t169.5 109t226.5 41q264 0 426 -166v-230h-176q-8 81 -34 141.5t-62 94t-74.5 49.5
t-79.5 16q-75 0 -134.5 -26.5t-98 -72t-63.5 -109.5t-35.5 -134.5t-10.5 -152.5q0 -122 24.5 -239.5t69.5 -213t114.5 -153.5t152.5 -58zM449 1427l296 340l134 -145l-297 -195h-133z" />
    <glyph glyph-name="cacute" unicode="&#x107;" horiz-adv-x="942" 
d="M500 -23q-188 0 -305 130.5t-117 336.5q0 75 17.5 147t53.5 135.5t86 111.5t120.5 76t152.5 28q83 0 150.5 -24.5t109.5 -64t65.5 -84t28.5 -89.5h-223q-5 72 -42.5 122t-98.5 50q-69 0 -114.5 -48t-63 -119t-17.5 -163q0 -73 15 -143.5t44 -131t79 -97.5t112 -37
q94 0 156 53.5t86 146.5l90 -2q-27 -142 -126 -238t-259 -96zM317 1044l297 340l134 -145l-297 -195h-134z" />
    <glyph glyph-name="Ccircumflex" unicode="&#x108;" horiz-adv-x="1181" 
d="M676 92q131 0 220.5 70t117.5 215h106q-30 -190 -156 -295t-307 -105q-108 0 -198.5 27.5t-154.5 76t-112 111.5t-76 137.5t-41.5 150t-13.5 153.5q0 108 20 208.5t66 193.5t114 161t169.5 109t226.5 41q264 0 426 -166v-230h-176q-8 81 -34 141.5t-62 94t-74.5 49.5
t-79.5 16q-75 0 -134.5 -26.5t-98 -72t-63.5 -109.5t-35.5 -134.5t-10.5 -152.5q0 -122 24.5 -239.5t69.5 -213t114.5 -153.5t152.5 -58zM340 1425l319 326l318 -326h-141l-179 121l-182 -121h-135z" />
    <glyph glyph-name="ccircumflex" unicode="&#x109;" horiz-adv-x="942" 
d="M500 -23q-188 0 -305 130.5t-117 336.5q0 75 17.5 147t53.5 135.5t86 111.5t120.5 76t152.5 28q83 0 150.5 -24.5t109.5 -64t65.5 -84t28.5 -89.5h-223q-5 72 -42.5 122t-98.5 50q-69 0 -114.5 -48t-63 -119t-17.5 -163q0 -73 15 -143.5t44 -131t79 -97.5t112 -37
q94 0 156 53.5t86 146.5l90 -2q-27 -142 -126 -238t-259 -96zM184 1042l320 326l317 -326h-141l-178 121l-183 -121h-135z" />
    <glyph glyph-name="Cdotaccent" unicode="&#x10a;" horiz-adv-x="1181" 
d="M676 92q131 0 220.5 70t117.5 215h106q-30 -190 -156 -295t-307 -105q-108 0 -198.5 27.5t-154.5 76t-112 111.5t-76 137.5t-41.5 150t-13.5 153.5q0 108 20 208.5t66 193.5t114 161t169.5 109t226.5 41q264 0 426 -166v-230h-176q-8 81 -34 141.5t-62 94t-74.5 49.5
t-79.5 16q-75 0 -134.5 -26.5t-98 -72t-63.5 -109.5t-35.5 -134.5t-10.5 -152.5q0 -122 24.5 -239.5t69.5 -213t114.5 -153.5t152.5 -58zM487 1573q0 61 42 102t104 41q61 0 102 -41t41 -102q0 -65 -40.5 -105.5t-102.5 -40.5q-63 0 -104.5 40.5t-41.5 105.5z" />
    <glyph glyph-name="cdotaccent" unicode="&#x10b;" horiz-adv-x="942" 
d="M500 -23q-188 0 -305 130.5t-117 336.5q0 75 17.5 147t53.5 135.5t86 111.5t120.5 76t152.5 28q83 0 150.5 -24.5t109.5 -64t65.5 -84t28.5 -89.5h-223q-5 72 -42.5 122t-98.5 50q-69 0 -114.5 -48t-63 -119t-17.5 -163q0 -73 15 -143.5t44 -131t79 -97.5t112 -37
q94 0 156 53.5t86 146.5l90 -2q-27 -142 -126 -238t-259 -96zM362 1223q0 61 42 102t104 41t102.5 -41t40.5 -102q0 -65 -40.5 -105.5t-102.5 -40.5q-63 0 -104.5 40.5t-41.5 105.5z" />
    <glyph glyph-name="Ccaron" unicode="&#x10c;" horiz-adv-x="1181" 
d="M676 92q131 0 220.5 70t117.5 215h106q-30 -190 -156 -295t-307 -105q-108 0 -198.5 27.5t-154.5 76t-112 111.5t-76 137.5t-41.5 150t-13.5 153.5q0 108 20 208.5t66 193.5t114 161t169.5 109t226.5 41q264 0 426 -166v-230h-176q-8 81 -34 141.5t-62 94t-74.5 49.5
t-79.5 16q-75 0 -134.5 -26.5t-98 -72t-63.5 -109.5t-35.5 -134.5t-10.5 -152.5q0 -122 24.5 -239.5t69.5 -213t114.5 -153.5t152.5 -58zM659 1427l-319 326h135l182 -121l179 121h141z" />
    <glyph glyph-name="ccaron" unicode="&#x10d;" horiz-adv-x="942" 
d="M500 -23q-188 0 -305 130.5t-117 336.5q0 75 17.5 147t53.5 135.5t86 111.5t120.5 76t152.5 28q83 0 150.5 -24.5t109.5 -64t65.5 -84t28.5 -89.5h-223q-5 72 -42.5 122t-98.5 50q-69 0 -114.5 -48t-63 -119t-17.5 -163q0 -73 15 -143.5t44 -131t79 -97.5t112 -37
q94 0 156 53.5t86 146.5l90 -2q-27 -142 -126 -238t-259 -96zM506 1044l-320 326h136l182 -121l178 121h141z" />
    <glyph glyph-name="Dcaron" unicode="&#x10e;" horiz-adv-x="1370" 
d="M47 100h172v1131h-172v96h660q128 0 230.5 -34.5t170.5 -94t113 -143t64.5 -177t19.5 -200.5q0 -100 -20 -194.5t-66 -183t-113.5 -154.5t-170 -106t-228.5 -40h-660v100zM469 100h238q75 0 134.5 33t97.5 87.5t63 131t35 157t10 171.5q0 120 -19.5 218t-59.5 173.5
t-106.5 117.5t-154.5 42h-238v-1131zM651 1427l-319 326h135l182 -121l178 121h142z" />
    <glyph glyph-name="dcaron" unicode="&#x10f;" horiz-adv-x="1394" 
d="M934 1411v-1411h-229v55q-37 -34 -92 -56t-105 -22q-94 0 -169 26.5t-123.5 70.5t-80.5 103t-45.5 120t-13.5 127q0 98 25.5 190t73.5 165.5t124.5 118t169.5 44.5q59 0 108 -14t73.5 -29.5t54.5 -40.5v442h-142v84zM705 297v317q0 111 -60 168.5t-137 57.5
q-66 0 -111 -46.5t-63.5 -116.5t-18.5 -159q-1 -113 18 -209t65.5 -162.5t113.5 -66.5q81 0 137 54.5t56 162.5zM1128 1083v324h197l-84 -324h-113z" />
    <glyph glyph-name="Dcroat" unicode="&#x110;" horiz-adv-x="1372" 
d="M49 100h172v531h-174v104h174v496h-172v96h660q128 0 230.5 -34.5t170.5 -94t113 -143t64.5 -177t19.5 -200.5q0 -100 -20 -194.5t-66 -183t-113.5 -154.5t-170 -106t-228.5 -40h-660v100zM471 100h238q75 0 134.5 33t97.5 87.5t63 131t35 157t10 171.5q0 120 -19.5 218
t-59.5 173.5t-106.5 117.5t-154.5 42h-238v-496h234v-104h-234v-531z" />
    <glyph glyph-name="dcroat" unicode="&#x111;" horiz-adv-x="1073" 
d="M934 1411v-242h96v-88h-96v-1081h-229v55q-37 -34 -92 -56t-105 -22q-94 0 -169 26.5t-123.5 70.5t-80.5 103t-45.5 120t-13.5 127q0 98 25.5 190t73.5 165.5t124.5 118t169.5 44.5q59 0 108 -14t73.5 -29.5t54.5 -40.5v223h-248v88h248v131h-142v84zM705 297v317
q0 111 -60 168.5t-137 57.5q-66 0 -111 -46.5t-63.5 -116.5t-18.5 -159q-1 -113 18 -209t65.5 -162.5t113.5 -66.5q81 0 137 54.5t56 162.5z" />
    <glyph glyph-name="Emacron" unicode="&#x112;" horiz-adv-x="1175" 
d="M221 100v1131h-174v96h1055v-373h-144l-104 277h-387v-471h215v139h123v-389h-123v141h-215v-551h405l103 273h143v-373h-1071v100h174zM885 1591v-102h-510v102h510z" />
    <glyph glyph-name="emacron" unicode="&#x113;" horiz-adv-x="970" 
d="M551 104q98 0 164 56t90 153l88 -2q-25 -141 -126.5 -237.5t-262.5 -96.5q-87 0 -158 26t-120.5 71t-83 106.5t-49 132.5t-15.5 150q0 202 119.5 339.5t312.5 137.5q170 0 269 -94.5t114 -261.5q3 -50 0 -103h-592q3 -94 35 -179.5t89 -141.5t126 -56zM498 852
q-92 0 -140.5 -78t-56.5 -201h361q0 57 -8.5 104.5t-26.5 88t-51 63.5t-78 23zM752 1221v-103h-510v103h510z" />
    <glyph glyph-name="Ebreve" unicode="&#x114;" horiz-adv-x="1175" 
d="M221 100v1131h-174v96h1055v-373h-144l-104 277h-387v-471h215v139h123v-389h-123v141h-215v-551h405l103 273h143v-373h-1071v100h174zM631 1440q-109 0 -183 63.5t-77 163.5h116q4 -65 44 -97t100 -32t99.5 32t43.5 97h117q-3 -100 -77 -163.5t-183 -63.5z" />
    <glyph glyph-name="ebreve" unicode="&#x115;" horiz-adv-x="970" 
d="M551 104q98 0 164 56t90 153l88 -2q-25 -141 -126.5 -237.5t-262.5 -96.5q-87 0 -158 26t-120.5 71t-83 106.5t-49 132.5t-15.5 150q0 202 119.5 339.5t312.5 137.5q170 0 269 -94.5t114 -261.5q3 -50 0 -103h-592q3 -94 35 -179.5t89 -141.5t126 -56zM498 852
q-92 0 -140.5 -78t-56.5 -201h361q0 57 -8.5 104.5t-26.5 88t-51 63.5t-78 23zM500 1065q-109 0 -183 63.5t-77 163.5h116q4 -65 44 -97t100 -32t99.5 32t43.5 97h117q-3 -100 -77 -163.5t-183 -63.5z" />
    <glyph glyph-name="Edotaccent" unicode="&#x116;" horiz-adv-x="1175" 
d="M221 100v1131h-174v96h1055v-373h-144l-104 277h-387v-471h215v139h123v-389h-123v141h-215v-551h405l103 273h143v-373h-1071v100h174zM485 1573q0 61 42 102t104 41q61 0 102 -41t41 -102q0 -65 -40.5 -105.5t-102.5 -40.5q-63 0 -104.5 40.5t-41.5 105.5z" />
    <glyph glyph-name="edotaccent" unicode="&#x117;" horiz-adv-x="970" 
d="M551 104q98 0 164 56t90 153l88 -2q-25 -141 -126.5 -237.5t-262.5 -96.5q-87 0 -158 26t-120.5 71t-83 106.5t-49 132.5t-15.5 150q0 202 119.5 339.5t312.5 137.5q170 0 269 -94.5t114 -261.5q3 -50 0 -103h-592q3 -94 35 -179.5t89 -141.5t126 -56zM498 852
q-92 0 -140.5 -78t-56.5 -201h361q0 57 -8.5 104.5t-26.5 88t-51 63.5t-78 23zM354 1221q0 61 42 102t104 41t102.5 -41t40.5 -102q0 -65 -40.5 -105.5t-102.5 -40.5q-63 0 -104.5 40.5t-41.5 105.5z" />
    <glyph glyph-name="Eogonek" unicode="&#x118;" horiz-adv-x="1173" 
d="M975 0h-928v100h174v1131h-174v96h1055v-373h-144l-104 277h-387v-471h215v139h123v-389h-123v141h-215v-551h405l103 273h143v-373q-168 -90 -168 -178q0 -33 19.5 -47.5t44.5 -14.5q15 0 35.5 8t33.5 16l13 7l43 -80q-8 -8 -23 -19t-58.5 -29.5t-84.5 -18.5
q-64 0 -109 35.5t-45 107.5q0 71 47 125t109 88z" />
    <glyph glyph-name="eogonek" unicode="&#x119;" horiz-adv-x="970" 
d="M551 104q98 0 164 56t90 153l88 -2q-20 -110 -87 -195.5t-173 -117.5q-70 -38 -116 -84t-46 -92q0 -33 19.5 -47.5t44.5 -14.5q15 0 35 8t33 16l13 7l43 -80q-8 -8 -23 -19t-58 -29.5t-84 -18.5q-64 0 -109 35.5t-45 107.5q0 110 121 193q-97 7 -171.5 49t-120 108.5
t-68.5 149t-23 176.5q0 202 119.5 339.5t312.5 137.5q170 0 269 -94.5t114 -261.5q3 -50 0 -103h-592q3 -94 35 -179.5t89 -141.5t126 -56zM498 852q-92 0 -140.5 -78t-56.5 -201h361q0 57 -8.5 104.5t-26.5 88t-51 63.5t-78 23z" />
    <glyph glyph-name="Ecaron" unicode="&#x11a;" horiz-adv-x="1175" 
d="M221 100v1131h-174v96h1055v-373h-144l-104 277h-387v-471h215v139h123v-389h-123v141h-215v-551h405l103 273h143v-373h-1071v100h174zM618 1425l-319 326h135l182 -121l179 121h141z" />
    <glyph glyph-name="ecaron" unicode="&#x11b;" horiz-adv-x="970" 
d="M551 104q98 0 164 56t90 153l88 -2q-25 -141 -126.5 -237.5t-262.5 -96.5q-87 0 -158 26t-120.5 71t-83 106.5t-49 132.5t-15.5 150q0 202 119.5 339.5t312.5 137.5q170 0 269 -94.5t114 -261.5q3 -50 0 -103h-592q3 -94 35 -179.5t89 -141.5t126 -56zM498 852
q-92 0 -140.5 -78t-56.5 -201h361q0 57 -8.5 104.5t-26.5 88t-51 63.5t-78 23zM504 1044l-320 326h135l183 -121l178 121h141z" />
    <glyph glyph-name="Gcircumflex" unicode="&#x11c;" horiz-adv-x="1323" 
d="M1106 950h-180q-8 80 -35.5 141t-66 95.5t-80.5 51.5t-85 17q-93 0 -161.5 -39.5t-107 -110t-57 -156t-18.5 -189.5q0 -128 20.5 -246.5t60.5 -218.5t108 -160.5t155 -60.5q104 0 176 77.5t72 190.5v135h-223v101h584v-101h-111v-477h-248v84q-32 -45 -107 -76t-161 -31
q-130 0 -232.5 39.5t-166 102.5t-105 150t-58 174t-16.5 182q0 109 20 210.5t66 195.5t113.5 163t169.5 110.5t227 41.5q279 0 447 -172v-224zM342 1425l320 326l317 -326h-141l-179 121l-182 -121h-135z" />
    <glyph glyph-name="gcircumflex" unicode="&#x11d;" horiz-adv-x="1042" 
d="M498 276q-40 0 -97 11h-32q-60 0 -89.5 -31t-29.5 -70t35 -68.5t80 -29.5h81l3 -88h-91q-33 -15 -56 -58t-23 -96q0 -94 59.5 -152.5t159.5 -58.5q104 0 164.5 58.5t60.5 152.5q0 53 -24.5 96.5t-57.5 57.5h-109v88h476v-88h-117q29 -25 45 -66t16 -79
q0 -139 -127 -224.5t-329 -85.5q-201 0 -324 79t-123 202q0 76 40.5 128.5t103.5 74.5q-93 66 -93 151q0 56 47.5 101t124.5 57q-74 43 -117.5 114.5t-43.5 163.5q0 155 108 241.5t275 86.5q85 0 165 -26h283v-89h-147q80 -89 86 -213q5 -103 -48.5 -182t-141.5 -118.5
t-193 -39.5zM483 862q-74 0 -108.5 -59t-34.5 -154q-1 -74 14.5 -138.5t52.5 -108.5t89 -44q83 -1 118 68.5t35 179.5q-2 108 -44 182t-122 74zM213 1044l319 326l318 -326h-141l-179 121l-182 -121h-135z" />
    <glyph glyph-name="Gbreve" unicode="&#x11e;" horiz-adv-x="1323" 
d="M1106 950h-180q-8 80 -35.5 141t-66 95.5t-80.5 51.5t-85 17q-93 0 -161.5 -39.5t-107 -110t-57 -156t-18.5 -189.5q0 -128 20.5 -246.5t60.5 -218.5t108 -160.5t155 -60.5q104 0 176 77.5t72 190.5v135h-223v101h584v-101h-111v-477h-248v84q-32 -45 -107 -76t-161 -31
q-130 0 -232.5 39.5t-166 102.5t-105 150t-58 174t-16.5 182q0 109 20 210.5t66 195.5t113.5 163t169.5 110.5t227 41.5q279 0 447 -172v-224zM662 1440q-109 0 -183.5 63.5t-77.5 163.5h117q4 -65 44 -97t100 -32t99.5 32t43.5 97h117q-3 -100 -77 -163.5t-183 -63.5z" />
    <glyph glyph-name="gbreve" unicode="&#x11f;" horiz-adv-x="1042" 
d="M498 276q-40 0 -97 11h-32q-60 0 -89.5 -31t-29.5 -70t35 -68.5t80 -29.5h81l3 -88h-91q-33 -15 -56 -58t-23 -96q0 -94 59.5 -152.5t159.5 -58.5q104 0 164.5 58.5t60.5 152.5q0 53 -24.5 96.5t-57.5 57.5h-109v88h476v-88h-117q29 -25 45 -66t16 -79
q0 -139 -127 -224.5t-329 -85.5q-201 0 -324 79t-123 202q0 76 40.5 128.5t103.5 74.5q-93 66 -93 151q0 56 47.5 101t124.5 57q-74 43 -117.5 114.5t-43.5 163.5q0 155 108 241.5t275 86.5q85 0 165 -26h283v-89h-147q80 -89 86 -213q5 -103 -48.5 -182t-141.5 -118.5
t-193 -39.5zM483 862q-74 0 -108.5 -59t-34.5 -154q-1 -74 14.5 -138.5t52.5 -108.5t89 -44q83 -1 118 68.5t35 179.5q-2 108 -44 182t-122 74zM512 1067q-109 0 -183 63.5t-77 163.5h117q4 -65 43.5 -97t99.5 -32t99.5 32t43.5 97h117q-3 -100 -77 -163.5t-183 -63.5z" />
    <glyph glyph-name="Gdotaccent" unicode="&#x120;" horiz-adv-x="1323" 
d="M1106 950h-180q-8 80 -35.5 141t-66 95.5t-80.5 51.5t-85 17q-93 0 -161.5 -39.5t-107 -110t-57 -156t-18.5 -189.5q0 -128 20.5 -246.5t60.5 -218.5t108 -160.5t155 -60.5q104 0 176 77.5t72 190.5v135h-223v101h584v-101h-111v-477h-248v84q-32 -45 -107 -76t-161 -31
q-130 0 -232.5 39.5t-166 102.5t-105 150t-58 174t-16.5 182q0 109 20 210.5t66 195.5t113.5 163t169.5 110.5t227 41.5q279 0 447 -172v-224zM514 1571q0 61 41.5 102t103.5 41t103 -41t41 -102q0 -65 -41 -105.5t-103 -40.5t-103.5 40.5t-41.5 105.5z" />
    <glyph glyph-name="gdotaccent" unicode="&#x121;" horiz-adv-x="1042" 
d="M498 276q-40 0 -97 11h-32q-60 0 -89.5 -31t-29.5 -70t35 -68.5t80 -29.5h81l3 -88h-91q-33 -15 -56 -58t-23 -96q0 -94 59.5 -152.5t159.5 -58.5q104 0 164.5 58.5t60.5 152.5q0 53 -24.5 96.5t-57.5 57.5h-109v88h476v-88h-117q29 -25 45 -66t16 -79
q0 -139 -127 -224.5t-329 -85.5q-201 0 -324 79t-123 202q0 76 40.5 128.5t103.5 74.5q-93 66 -93 151q0 56 47.5 101t124.5 57q-74 43 -117.5 114.5t-43.5 163.5q0 155 108 241.5t275 86.5q85 0 165 -26h283v-89h-147q80 -89 86 -213q5 -103 -48.5 -182t-141.5 -118.5
t-193 -39.5zM483 862q-74 0 -108.5 -59t-34.5 -154q-1 -74 14.5 -138.5t52.5 -108.5t89 -44q83 -1 118 68.5t35 179.5q-2 108 -44 182t-122 74zM346 1223q0 61 42 102t104 41t102.5 -41t40.5 -102q0 -65 -40.5 -105.5t-102.5 -40.5q-63 0 -104.5 40.5t-41.5 105.5z" />
    <glyph glyph-name="uni0122" unicode="&#x122;" horiz-adv-x="1323" 
d="M1106 950h-180q-8 80 -35.5 141t-66 95.5t-80.5 51.5t-85 17q-93 0 -161.5 -39.5t-107 -110t-57 -156t-18.5 -189.5q0 -128 20.5 -246.5t60.5 -218.5t108 -160.5t155 -60.5q104 0 176 77.5t72 190.5v135h-223v101h584v-101h-111v-477h-248v84q-32 -45 -107 -76t-161 -31
q-130 0 -232.5 39.5t-166 102.5t-105 150t-58 174t-16.5 182q0 109 20 210.5t66 195.5t113.5 163t169.5 110.5t227 41.5q279 0 447 -172v-224zM721 -80v-317h-193l82 317h111z" />
    <glyph glyph-name="uni0123" unicode="&#x123;" horiz-adv-x="1042" 
d="M498 276q-40 0 -97 11h-32q-60 0 -89.5 -31t-29.5 -70t35 -68.5t80 -29.5h81l3 -88h-91q-33 -15 -56 -58t-23 -96q0 -94 59.5 -152.5t159.5 -58.5q104 0 164.5 58.5t60.5 152.5q0 53 -24.5 96.5t-57.5 57.5h-109v88h476v-88h-117q29 -25 45 -66t16 -79
q0 -139 -127 -224.5t-329 -85.5q-201 0 -324 79t-123 202q0 76 40.5 128.5t103.5 74.5q-93 66 -93 151q0 56 47.5 101t124.5 57q-74 43 -117.5 114.5t-43.5 163.5q0 155 108 241.5t275 86.5q85 0 165 -26h283v-89h-147q80 -89 86 -213q5 -103 -48.5 -182t-141.5 -118.5
t-193 -39.5zM483 862q-74 0 -108.5 -59t-34.5 -154q-1 -74 14.5 -138.5t52.5 -108.5t89 -44q83 -1 118 68.5t35 179.5q-2 108 -44 182t-122 74zM596 1389v-324h-197l84 324h113z" />
    <glyph glyph-name="Hcircumflex" unicode="&#x124;" horiz-adv-x="1392" 
d="M1346 1231h-140v-1131h140v-100h-523v100h135v549h-526v-549h137v-100h-522v100h139v1131h-139v96h522v-96h-137v-475h526v475h-135v96h523v-96zM377 1425l319 326l318 -326h-142l-178 121l-182 -121h-135z" />
    <glyph glyph-name="hcircumflex" unicode="&#x125;" 
d="M395 1411v-555q86 86 223 86q77 0 135 -18t93.5 -47.5t57.5 -72.5t30 -87.5t8 -98.5v-530h125v-88h-481v88h127v530q0 226 -138 226q-75 0 -127.5 -56t-52.5 -167v-533h123v-88h-477v88h127v1215h-143v81zM233 1501l320 326l317 -326h-141l-178 121l-182 -121h-136z" />
    <glyph glyph-name="Hbar" unicode="&#x126;" horiz-adv-x="1394" 
d="M1346 1231h-140v-180h142v-103h-142v-848h140v-100h-523v100h135v549h-526v-549h137v-100h-522v100h139v848h-139v103h139v180h-139v96h522v-96h-137v-180h526v180h-135v96h523v-96zM432 756h526v192h-526v-192z" />
    <glyph glyph-name="hbar" unicode="&#x127;" 
d="M395 1411v-242h219v-88h-219v-225q86 86 223 86q77 0 135 -18t93.5 -47.5t57.5 -72.5t30 -87.5t8 -98.5v-530h125v-88h-481v88h127v530q0 226 -138 226q-75 0 -127.5 -56t-52.5 -167v-533h123v-88h-477v88h127v993h-141v88h141v134h-143v81z" />
    <glyph glyph-name="Itilde" unicode="&#x128;" horiz-adv-x="716" 
d="M680 1231h-199v-1131h199v-100h-643v100h199v1131h-199v96h643v-96zM131 1444h-96q21 88 77.5 145.5t147.5 57.5q49 0 133.5 -38t120.5 -38q29 0 54 21.5t30 49.5h96q-16 -90 -70 -148t-143 -58q-49 0 -135 38.5t-127 38.5q-29 0 -55 -19.5t-33 -49.5z" />
    <glyph glyph-name="itilde" unicode="&#x129;" horiz-adv-x="624" 
d="M203 88v739h-144v84l373 25v-848h160v-88h-547v88h158zM66 1071h-97q21 88 78 145.5t148 57.5q49 0 133.5 -38t120.5 -38q29 0 53.5 22t29.5 50h97q-16 -90 -70 -148.5t-143 -58.5q-49 0 -135.5 39t-126.5 39q-29 0 -55 -20t-33 -50z" />
    <glyph glyph-name="Imacron" unicode="&#x12a;" horiz-adv-x="716" 
d="M680 1231h-199v-1131h199v-100h-643v100h199v1131h-199v96h643v-96zM614 1589v-102h-510v102h510z" />
    <glyph glyph-name="imacron" unicode="&#x12b;" horiz-adv-x="622" 
d="M203 88v739h-144v84l373 25v-848h160v-88h-547v88h158zM569 1217v-103h-510v103h510z" />
    <glyph glyph-name="Ibreve" unicode="&#x12c;" horiz-adv-x="716" 
d="M680 1231h-199v-1131h199v-100h-643v100h199v1131h-199v96h643v-96zM360 1440q-109 0 -183 63.5t-77 163.5h117q4 -65 43.5 -97t99.5 -32t100 32t44 97h117q-3 -100 -77.5 -163.5t-183.5 -63.5z" />
    <glyph glyph-name="ibreve" unicode="&#x12d;" horiz-adv-x="622" 
d="M203 88v739h-144v84l373 25v-848h160v-88h-547v88h158zM317 1067q-109 0 -183 63.5t-77 163.5h117q4 -65 43.5 -97t99.5 -32t100 32t44 97h117q-3 -100 -77.5 -163.5t-183.5 -63.5z" />
    <glyph glyph-name="Iogonek" unicode="&#x12e;" horiz-adv-x="716" 
d="M356 0h-319v100h199v1131h-199v96h643v-96h-199v-1131h199v-100h-180q-168 -90 -168 -178q0 -33 19 -47.5t44 -14.5q15 0 35.5 8t33.5 16l13 7l43 -80q-8 -8 -23 -19t-58.5 -29.5t-84.5 -18.5q-64 0 -108.5 35t-44.5 108q0 71 46.5 125t108.5 88z" />
    <glyph glyph-name="iogonek" unicode="&#x12f;" horiz-adv-x="624" 
d="M311 0h-266v88h158v739h-144v84l373 25v-848h160v-88h-137q-168 -90 -168 -178q0 -33 19 -47.5t44 -14.5q15 0 35.5 8t33.5 16l13 7l43 -80q-8 -8 -23 -19t-58.5 -29.5t-84.5 -18.5q-64 0 -108.5 35t-44.5 108q0 71 46.5 125t108.5 88zM178 1208q0 59 40 100.5t101 41.5
t101.5 -41.5t40.5 -100.5q0 -60 -40.5 -100.5t-101.5 -40.5t-101 40.5t-40 100.5z" />
    <glyph glyph-name="Idotaccent" unicode="&#x130;" horiz-adv-x="716" 
d="M680 1231h-199v-1131h199v-100h-643v100h199v1131h-199v96h643v-96zM215 1571q0 61 41.5 102t103.5 41t103 -41t41 -102q0 -65 -41 -105.5t-103 -40.5t-103.5 40.5t-41.5 105.5z" />
    <glyph glyph-name="dotlessi" unicode="&#x131;" horiz-adv-x="624" 
d="M203 88v739h-144v84l373 25v-848h160v-88h-547v88h158z" />
    <glyph glyph-name="IJ" unicode="&#x132;" horiz-adv-x="1427" 
d="M680 1231h-199v-1131h199v-100h-643v100h199v1131h-199v96h643v-96zM1397 1231h-201v-1337q0 -86 -28.5 -153.5t-77 -107t-106 -59.5t-120.5 -20q-73 0 -143.5 27.5t-116.5 70.5l74 74q84 -74 186 -74q43 0 65.5 34t22.5 99v1446h-196v96h641v-96z" />
    <glyph glyph-name="ij" unicode="&#x133;" horiz-adv-x="1150" 
d="M203 88v739h-144v84l373 25v-848h160v-88h-547v88h158zM176 1208q0 59 40 100.5t101 41.5t101.5 -41.5t40.5 -100.5q0 -60 -40.5 -100.5t-101.5 -40.5t-101 40.5t-40 100.5zM999 936v-1040q0 -87 -28.5 -153.5t-76.5 -105t-106.5 -58t-123.5 -19.5q-47 0 -84 8.5
t-69.5 29t-48 33t-46.5 41.5l73 70q82 -82 160 -82q60 0 91.5 43.5t31.5 151.5v972h-147v84zM735 1208q0 59 40.5 100.5t101.5 41.5t101 -41.5t40 -100.5q0 -60 -40 -100.5t-101 -40.5t-101.5 40.5t-40.5 100.5z" />
    <glyph glyph-name="Jcircumflex" unicode="&#x134;" horiz-adv-x="708" 
d="M676 1231h-201v-1337q0 -86 -28.5 -153.5t-77 -107t-106 -59.5t-120.5 -20q-73 0 -143.5 27.5t-116.5 70.5l74 74q84 -74 186 -74q43 0 65.5 34t22.5 99v1446h-196v96h641v-96zM43 1427l319 326l318 -326h-141l-179 121l-182 -121h-135z" />
    <glyph glyph-name="jcircumflex" unicode="&#x135;" horiz-adv-x="559" 
d="M408 936v-1040q0 -87 -28.5 -153.5t-77 -105t-107 -58t-123.5 -19.5q-47 0 -84 8.5t-69.5 29t-48 33t-46.5 41.5l74 70q82 -82 159 -82q60 0 91.5 43.5t31.5 151.5v972h-147v84zM-31 1042l320 326l317 -326h-141l-178 121l-183 -121h-135z" />
    <glyph glyph-name="uni0136" unicode="&#x136;" horiz-adv-x="1343" 
d="M1245 100h166v-100h-610v100h137l-436 535h-58v-535h144v-100h-541v100h152v1131h-148v96h537v-96h-144v-490h70l438 490h-145v96h475v-96h-178l-416 -457zM748 -80v-317h-193l82 317h111z" />
    <glyph glyph-name="uni0137" unicode="&#x137;" horiz-adv-x="1069" 
d="M154 1303h-144v81l371 27v-868h74l272 284h-141v91h434v-91h-150l-266 -274l379 -465h119v-88h-492v88h99l-291 365h-37v-365h119v-88h-473v88h127v1215zM604 -80v-317h-192l82 317h110z" />
    <glyph glyph-name="kgreenlandic" unicode="&#x138;" horiz-adv-x="1048" 
d="M154 829h-144v82l371 27v-395h74l272 284h-147v91h444v-91h-154l-266 -274l375 -465h119v-88h-488v88h99l-287 365h-41v-365h119v-88h-473v88h127v741z" />
    <glyph glyph-name="Lacute" unicode="&#x139;" horiz-adv-x="1173" 
d="M895 100l102 273h136v-373h-1086v100h176v1131h-176v96h604v-96h-182v-1131h426zM242 1425l297 340l133 -145l-297 -195h-133z" />
    <glyph glyph-name="lacute" unicode="&#x13a;" horiz-adv-x="555" 
d="M166 1303h-141v81l370 25v-1321h127v-88h-483v88h127v1215zM63 1503l297 340l134 -145l-297 -195h-134z" />
    <glyph glyph-name="uni013B" unicode="&#x13b;" horiz-adv-x="1173" 
d="M895 100l102 273h136v-373h-1086v100h176v1131h-176v96h604v-96h-182v-1131h426zM707 -80v-317h-193l82 317h111z" />
    <glyph glyph-name="uni013C" unicode="&#x13c;" horiz-adv-x="555" 
d="M166 1303h-141v81l370 25v-1321h127v-88h-483v88h127v1215zM391 -80v-317h-192l82 317h110z" />
    <glyph glyph-name="Lcaron" unicode="&#x13d;" horiz-adv-x="1173" 
d="M895 100l102 273h136v-373h-1086v100h176v1131h-176v96h604v-96h-182v-1131h426zM856 1022v324h197l-84 -324h-113z" />
    <glyph glyph-name="lcaron" unicode="&#x13e;" horiz-adv-x="886" 
d="M166 1303h-141v81l370 25v-1321h127v-88h-483v88h127v1215zM621 1083v324h196l-84 -324h-112z" />
    <glyph glyph-name="Ldot" unicode="&#x13f;" horiz-adv-x="1173" 
d="M895 100l102 273h136v-373h-1086v100h176v1131h-176v96h604v-96h-182v-1131h426zM653 657q0 59 40 99.5t100 40.5q59 0 98 -40.5t39 -99.5q0 -62 -38.5 -101.5t-98.5 -39.5t-100 40t-40 101z" />
    <glyph glyph-name="ldot" unicode="&#x140;" horiz-adv-x="884" 
d="M166 1303h-141v81l370 25v-1321h127v-88h-483v88h127v1215zM565 657q0 59 40 99.5t100 40.5q59 0 98 -40.5t39 -99.5q0 -62 -38.5 -101.5t-98.5 -39.5t-100 40t-40 101z" />
    <glyph glyph-name="Lslash" unicode="&#x141;" horiz-adv-x="1173" 
d="M78 485l145 121v625h-176v96h604v-96h-182v-422l213 182l4 -119l-217 -182v-590h442l103 273h119v-373h-1086v100h176v389l-145 -120v116z" />
    <glyph glyph-name="lslash" unicode="&#x142;" horiz-adv-x="577" 
d="M66 498l100 84v721h-141v81l370 25v-639q11 9 76.5 66.5l99.5 85.5v-121l-176 -148v-565h127v-88h-483v88h127v375l-100 -84v119z" />
    <glyph glyph-name="Nacute" unicode="&#x143;" horiz-adv-x="1314" 
d="M836 1327h442v-98h-168v-1229h-152l-639 1008v-908h168v-100h-440v100h160v1129h-156v98h363l579 -907v809h-157v98zM430 1427l297 340l133 -145l-297 -195h-133z" />
    <glyph glyph-name="nacute" unicode="&#x144;" horiz-adv-x="1097" 
d="M395 932l4 -76q29 37 93 61.5t143 24.5q88 0 151 -26.5t96.5 -73.5t48.5 -102t15 -122v-530h125v-88h-481v88h127v530q0 226 -137 226q-75 0 -128 -56t-53 -167v-533h123v-88h-477v88h127v739h-127v84zM317 1044l297 340l134 -145l-297 -195h-134z" />
    <glyph glyph-name="uni0145" unicode="&#x145;" horiz-adv-x="1314" 
d="M836 1327h442v-98h-168v-1229h-152l-639 1008v-908h168v-100h-440v100h160v1129h-156v98h363l579 -907v809h-157v98zM743 -80v-317h-192l82 317h110z" />
    <glyph glyph-name="uni0146" unicode="&#x146;" horiz-adv-x="1097" 
d="M395 932l4 -76q29 37 93 61.5t143 24.5q88 0 151 -26.5t96.5 -73.5t48.5 -102t15 -122v-530h125v-88h-481v88h127v530q0 226 -137 226q-75 0 -128 -56t-53 -167v-533h123v-88h-477v88h127v739h-127v84zM618 -80v-317h-192l82 317h110z" />
    <glyph glyph-name="Ncaron" unicode="&#x147;" horiz-adv-x="1314" 
d="M836 1327h442v-98h-168v-1229h-152l-639 1008v-908h168v-100h-440v100h160v1129h-156v98h363l579 -907v809h-157v98zM662 1425l-320 326h135l182 -121l179 121h141z" />
    <glyph glyph-name="ncaron" unicode="&#x148;" horiz-adv-x="1097" 
d="M395 932l4 -76q29 37 93 61.5t143 24.5q88 0 151 -26.5t96.5 -73.5t48.5 -102t15 -122v-530h125v-88h-481v88h127v530q0 226 -137 226q-75 0 -128 -56t-53 -167v-533h123v-88h-477v88h127v739h-127v84zM549 1044l-320 326h136l182 -121l178 121h141z" />
    <glyph glyph-name="napostrophe" unicode="&#x149;" horiz-adv-x="1318" 
d="M616 932l5 -76q29 37 92.5 61.5t142.5 24.5q88 0 151 -26.5t96.5 -73.5t48.5 -102t15 -122v-530h125v-88h-481v88h127v530q0 226 -137 226q-75 0 -127.5 -56t-52.5 -167v-533h122v-88h-477v88h127v739h-127v84zM61 1083v324h197l-84 -324h-113z" />
    <glyph glyph-name="Eng" unicode="&#x14a;" horiz-adv-x="1318" 
d="M846 1327h442v-98h-170v-1335q0 -86 -28.5 -153.5t-77 -107t-106.5 -59.5t-122 -20q-72 0 -141 27.5t-117 70.5l76 74q81 -74 182 -74q85 0 134.5 63.5t50.5 178.5v106l-639 1008v-908h168v-100h-443v100h162v1129h-158v98h365l577 -907v809h-155v98z" />
    <glyph glyph-name="eng" unicode="&#x14b;" horiz-adv-x="1089" 
d="M395 938v-64q90 64 209 64q82 0 143 -17.5t97.5 -46t58.5 -71.5t29.5 -86.5t7.5 -98.5v-729q0 -86 -30 -152t-80.5 -103t-108.5 -55.5t-121 -18.5q-134 0 -240 92l76 80q97 -76 154 -76q123 0 123 199v763q0 222 -138 222q-76 0 -128 -54t-52 -165v-533h123v-88h-479v88
h129v739h-129v84z" />
    <glyph glyph-name="Omacron" unicode="&#x14c;" horiz-adv-x="1325" 
d="M662 1346q127 0 230.5 -38.5t170.5 -102t112.5 -148t65 -173.5t19.5 -182q0 -108 -20.5 -209.5t-67 -196t-114.5 -165t-170 -112.5t-226 -42q-108 0 -198.5 27t-154.5 75t-112 110t-76 136t-41.5 148.5t-13.5 151.5q0 108 21 209.5t67.5 195t114.5 163.5t169.5 111.5
t223.5 41.5zM1008 575q0 127 -21 245t-62 217t-110 158.5t-156 59.5q-92 0 -159.5 -39.5t-106 -110t-56.5 -156t-18 -189.5q-1 -127 19.5 -247t60.5 -220.5t108.5 -161.5t154.5 -61q94 0 163 39t108 110t57 159t18 197zM918 1593v-102h-510v102h510z" />
    <glyph glyph-name="omacron" unicode="&#x14d;" horiz-adv-x="1017" 
d="M508 63q100 0 147 93.5t47 240.5q0 117 -20 218t-65.5 170t-108.5 69q-50 0 -88.5 -27t-60.5 -73.5t-33 -104t-11 -123.5q0 -114 20 -216.5t65.5 -174.5t107.5 -72zM512 942q90 0 164.5 -28t122.5 -74t81 -107t47.5 -124t14.5 -128q0 -72 -17.5 -144t-54 -137t-87 -115
t-123 -80t-156.5 -30q-92 0 -166.5 28.5t-122.5 74t-80 107t-45.5 124.5t-13.5 129q0 75 16 146.5t51 137t85 114t123.5 77.5t160.5 29zM764 1221v-103h-510v103h510z" />
    <glyph glyph-name="Obreve" unicode="&#x14e;" horiz-adv-x="1325" 
d="M662 1346q127 0 230.5 -38.5t170.5 -102t112.5 -148t65 -173.5t19.5 -182q0 -108 -20.5 -209.5t-67 -196t-114.5 -165t-170 -112.5t-226 -42q-108 0 -198.5 27t-154.5 75t-112 110t-76 136t-41.5 148.5t-13.5 151.5q0 108 21 209.5t67.5 195t114.5 163.5t169.5 111.5
t223.5 41.5zM1008 575q0 127 -21 245t-62 217t-110 158.5t-156 59.5q-92 0 -159.5 -39.5t-106 -110t-56.5 -156t-18 -189.5q-1 -127 19.5 -247t60.5 -220.5t108.5 -161.5t154.5 -61q94 0 163 39t108 110t57 159t18 197zM666 1440q-109 0 -183 63.5t-77 163.5h116
q4 -65 44 -97t100 -32t99.5 32t43.5 97h117q-3 -100 -77 -163.5t-183 -63.5z" />
    <glyph glyph-name="obreve" unicode="&#x14f;" horiz-adv-x="1017" 
d="M508 63q100 0 147 93.5t47 240.5q0 117 -20 218t-65.5 170t-108.5 69q-50 0 -88.5 -27t-60.5 -73.5t-33 -104t-11 -123.5q0 -114 20 -216.5t65.5 -174.5t107.5 -72zM512 942q90 0 164.5 -28t122.5 -74t81 -107t47.5 -124t14.5 -128q0 -72 -17.5 -144t-54 -137t-87 -115
t-123 -80t-156.5 -30q-92 0 -166.5 28.5t-122.5 74t-80 107t-45.5 124.5t-13.5 129q0 75 16 146.5t51 137t85 114t123.5 77.5t160.5 29zM510 1065q-109 0 -183 63.5t-77 163.5h117q4 -65 43.5 -97t99.5 -32t99.5 32t43.5 97h117q-3 -100 -77 -163.5t-183 -63.5z" />
    <glyph glyph-name="Ohungarumlaut" unicode="&#x150;" horiz-adv-x="1325" 
d="M662 1346q127 0 230.5 -38.5t170.5 -102t112.5 -148t65 -173.5t19.5 -182q0 -108 -20.5 -209.5t-67 -196t-114.5 -165t-170 -112.5t-226 -42q-108 0 -198.5 27t-154.5 75t-112 110t-76 136t-41.5 148.5t-13.5 151.5q0 108 21 209.5t67.5 195t114.5 163.5t169.5 111.5
t223.5 41.5zM1008 575q0 127 -21 245t-62 217t-110 158.5t-156 59.5q-92 0 -159.5 -39.5t-106 -110t-56.5 -156t-18 -189.5q-1 -127 19.5 -247t60.5 -220.5t108.5 -161.5t154.5 -61q94 0 163 39t108 110t57 159t18 197zM520 1425h-133l270 340h140zM778 1425h-135l270 340
h140z" />
    <glyph glyph-name="ohungarumlaut" unicode="&#x151;" horiz-adv-x="1017" 
d="M508 63q100 0 147 93.5t47 240.5q0 117 -20 218t-65.5 170t-108.5 69q-50 0 -88.5 -27t-60.5 -73.5t-33 -104t-11 -123.5q0 -114 20 -216.5t65.5 -174.5t107.5 -72zM512 942q90 0 164.5 -28t122.5 -74t81 -107t47.5 -124t14.5 -128q0 -72 -17.5 -144t-54 -137t-87 -115
t-123 -80t-156.5 -30q-92 0 -166.5 28.5t-122.5 74t-80 107t-45.5 124.5t-13.5 129q0 75 16 146.5t51 137t85 114t123.5 77.5t160.5 29zM365 1044h-134l271 340h139zM623 1044h-136l271 340h139z" />
    <glyph glyph-name="OE" unicode="&#x152;" horiz-adv-x="1869" 
d="M662 1348q84 0 178 -21h964v-373h-145l-107 277h-381v-471h220v139h116v-389h-116v141h-220v-551h398l110 273h142v-373h-994q-72 -20 -165 -20q-109 0 -200 27t-154.5 75t-111.5 110t-75.5 136t-41 148t-13.5 151q0 120 19.5 224t64.5 196.5t112.5 158.5t169.5 104
t230 38zM662 72q197 0 264 139v813q-17 48 -36 83.5t-49.5 72.5t-77 57t-104.5 20q-93 0 -161 -39.5t-106 -110t-55.5 -156t-17.5 -189.5q-1 -128 19 -247t60 -220t108.5 -162t155.5 -61z" />
    <glyph glyph-name="oe" unicode="&#x153;" horiz-adv-x="1595" 
d="M1176 104q98 0 164 56t90 153l88 -2q-25 -141 -127 -237.5t-263 -96.5q-202 0 -317 138q-123 -140 -307 -140q-92 0 -166.5 28.5t-122.5 74t-80 107t-45.5 124.5t-13.5 129q0 75 16 146.5t51 137t85 114t123.5 77.5t160.5 29q202 0 315 -133q124 131 308 131
q170 0 269 -94.5t114 -261.5q3 -50 0 -103h-592q3 -94 35 -179.5t89 -141.5t126 -56zM508 63q100 0 147 93.5t47 240.5q0 117 -20 218t-65.5 170t-108.5 69q-50 0 -88.5 -27t-60.5 -73.5t-33 -104t-11 -123.5q0 -114 20 -216.5t65.5 -174.5t107.5 -72zM1122 852
q-92 0 -140 -77.5t-56 -201.5h360q0 57 -8.5 104.5t-26.5 88t-51 63.5t-78 23z" />
    <glyph glyph-name="Racute" unicode="&#x154;" horiz-adv-x="1255" 
d="M944 0l-379 604h-123v-504h156v-100h-557v100h156v1129h-156v98h608q214 0 322 -99.5t108 -252.5q0 -125 -68 -216t-190 -126l342 -533h156v-100h-375zM442 1229v-520h191q75 0 128.5 74.5t53.5 187.5q0 114 -51 186t-131 72h-191zM379 1427l297 340l133 -145l-297 -195
h-133z" />
    <glyph glyph-name="racute" unicode="&#x155;" horiz-adv-x="827" 
d="M172 827h-127v84l346 21l6 -129q101 149 252 149q34 0 66 -6.5t53 -16t37 -19.5t23 -16l8 -7v-62l-136 -127q-29 48 -61 72.5t-80 24.5q-63 0 -112.5 -63.5t-49.5 -149.5v-494h168v-88h-520v88h127v739zM250 1042l297 340l133 -145l-297 -195h-133z" />
    <glyph glyph-name="uni0156" unicode="&#x156;" horiz-adv-x="1255" 
d="M944 0l-379 604h-123v-504h156v-100h-557v100h156v1129h-156v98h608q214 0 322 -99.5t108 -252.5q0 -125 -68 -216t-190 -126l342 -533h156v-100h-375zM442 1229v-520h191q75 0 128.5 74.5t53.5 187.5q0 114 -51 186t-131 72h-191zM762 -80v-317h-193l82 317h111z" />
    <glyph glyph-name="uni0157" unicode="&#x157;" horiz-adv-x="827" 
d="M172 827h-127v84l346 21l6 -129q101 149 252 149q34 0 66 -6.5t53 -16t37 -19.5t23 -16l8 -7v-62l-136 -127q-29 48 -61 72.5t-80 24.5q-63 0 -112.5 -63.5t-49.5 -149.5v-494h168v-88h-520v88h127v739zM401 -80v-317h-192l82 317h110z" />
    <glyph glyph-name="Rcaron" unicode="&#x158;" horiz-adv-x="1255" 
d="M944 0l-379 604h-123v-504h156v-100h-557v100h156v1129h-156v98h608q214 0 322 -99.5t108 -252.5q0 -125 -68 -216t-190 -126l342 -533h156v-100h-375zM442 1229v-520h191q75 0 128.5 74.5t53.5 187.5q0 114 -51 186t-131 72h-191zM590 1425l-320 326h136l182 -121
l178 121h141z" />
    <glyph glyph-name="rcaron" unicode="&#x159;" horiz-adv-x="827" 
d="M172 827h-127v84l346 21l6 -129q101 149 252 149q34 0 66 -6.5t53 -16t37 -19.5t23 -16l8 -7v-62l-136 -127q-29 48 -61 72.5t-80 24.5q-63 0 -112.5 -63.5t-49.5 -149.5v-494h168v-88h-520v88h127v739zM449 1040l-320 326h135l182 -121l179 121h141z" />
    <glyph glyph-name="Sacute" unicode="&#x15a;" horiz-adv-x="1009" 
d="M80 377h176q21 -163 79 -234t152 -71q98 0 158 62.5t60 162.5q0 49 -21 92t-51 68q-23 20 -195 131t-192 125q-74 51 -123 127.5t-49 175.5q0 146 113.5 238t308.5 92q127 0 230.5 -38t166.5 -104v-252h-178q-8 88 -27 148t-49 93.5t-65 47.5t-82 14q-96 0 -141.5 -61
t-45.5 -150q0 -93 76 -147l98.5 -65.5l164 -108.5t112.5 -72q188 -116 188 -315q0 -155 -125.5 -257t-331.5 -102q-269 0 -407 150v250zM301 1427l297 340l133 -145l-297 -195h-133z" />
    <glyph glyph-name="sacute" unicode="&#x15b;" horiz-adv-x="874" 
d="M76 322h155q0 -134 56.5 -194t142.5 -60q67 0 105 37t38 92q0 72 -65 112q-2 2 -275 160q-145 85 -145 227q0 103 94.5 171.5t249.5 68.5q99 0 194.5 -31.5t143.5 -79.5v-231h-162q0 254 -178 254q-64 0 -95.5 -36t-31.5 -81q0 -39 15 -62.5t47 -43.5q23 -14 272 -152
q156 -86 156 -240q0 -110 -100 -183t-263 -73q-120 0 -215 32.5t-139 80.5v232zM203 1040l297 340l133 -145l-297 -195h-133z" />
    <glyph glyph-name="Scircumflex" unicode="&#x15c;" horiz-adv-x="1009" 
d="M80 377h176q21 -163 79 -234t152 -71q98 0 158 62.5t60 162.5q0 49 -21 92t-51 68q-23 20 -195 131t-192 125q-74 51 -123 127.5t-49 175.5q0 146 113.5 238t308.5 92q127 0 230.5 -38t166.5 -104v-252h-178q-8 88 -27 148t-49 93.5t-65 47.5t-82 14q-96 0 -141.5 -61
t-45.5 -150q0 -93 76 -147l98.5 -65.5l164 -108.5t112.5 -72q188 -116 188 -315q0 -155 -125.5 -257t-331.5 -102q-269 0 -407 150v250zM182 1427l320 326l317 -326h-141l-178 121l-183 -121h-135z" />
    <glyph glyph-name="scircumflex" unicode="&#x15d;" horiz-adv-x="874" 
d="M76 322h155q0 -134 56.5 -194t142.5 -60q67 0 105 37t38 92q0 72 -65 112q-2 2 -275 160q-145 85 -145 227q0 103 94.5 171.5t249.5 68.5q99 0 194.5 -31.5t143.5 -79.5v-231h-162q0 254 -178 254q-64 0 -95.5 -36t-31.5 -81q0 -39 15 -62.5t47 -43.5q23 -14 272 -152
q156 -86 156 -240q0 -110 -100 -183t-263 -73q-120 0 -215 32.5t-139 80.5v232zM121 1040l319 326l318 -326h-142l-178 121l-182 -121h-135z" />
    <glyph glyph-name="Scedilla" unicode="&#x15e;" horiz-adv-x="1009" 
d="M80 377h176q21 -163 79 -234t152 -71q98 0 158 62.5t60 162.5q0 49 -21 92t-51 68q-23 20 -195 131t-192 125q-74 51 -123 127.5t-49 175.5q0 146 113.5 238t308.5 92q127 0 230.5 -38t166.5 -104v-252h-178q-8 88 -27 148t-49 93.5t-65 47.5t-82 14q-96 0 -141.5 -61
t-45.5 -150q0 -93 76 -147l98.5 -65.5l164 -108.5t112.5 -72q188 -116 188 -315q0 -155 -125.5 -257t-331.5 -102q-269 0 -407 150v250zM317 -342l39 78q48 -37 103 -37q37 0 57.5 20t20.5 52q0 29 -25 45t-66 16h-22l8 94h33q95 0 143.5 -43t48.5 -114q0 -80 -58.5 -122
t-137.5 -42q-36 0 -72 13.5t-54 26.5z" />
    <glyph glyph-name="scedilla" unicode="&#x15f;" horiz-adv-x="874" 
d="M76 322h155q0 -134 56.5 -194t142.5 -60q67 0 105 37t38 92q0 72 -65 112q-2 2 -275 160q-145 85 -145 227q0 103 94.5 171.5t249.5 68.5q99 0 194.5 -31.5t143.5 -79.5v-231h-162q0 254 -178 254q-64 0 -95.5 -36t-31.5 -81q0 -39 15 -62.5t47 -43.5q23 -14 272 -152
q156 -86 156 -240q0 -110 -100 -183t-263 -73q-120 0 -215 32.5t-139 80.5v232zM262 -342l39 78q47 -37 102 -37q37 0 57.5 20t20.5 52q0 29 -24.5 45t-65.5 16h-22l8 94h33q95 0 143.5 -43t48.5 -114q0 -80 -58.5 -122t-137.5 -42q-36 0 -72 13.5t-54 26.5z" />
    <glyph glyph-name="Scaron" unicode="&#x160;" horiz-adv-x="1009" 
d="M80 377h176q21 -163 79 -234t152 -71q98 0 158 62.5t60 162.5q0 49 -21 92t-51 68q-23 20 -195 131t-192 125q-74 51 -123 127.5t-49 175.5q0 146 113.5 238t308.5 92q127 0 230.5 -38t166.5 -104v-252h-178q-8 88 -27 148t-49 93.5t-65 47.5t-82 14q-96 0 -141.5 -61
t-45.5 -150q0 -93 76 -147l98.5 -65.5l164 -108.5t112.5 -72q188 -116 188 -315q0 -155 -125.5 -257t-331.5 -102q-269 0 -407 150v250zM502 1425l-320 326h135l183 -121l178 121h141z" />
    <glyph glyph-name="scaron" unicode="&#x161;" horiz-adv-x="874" 
d="M76 322h155q0 -134 56.5 -194t142.5 -60q67 0 105 37t38 92q0 72 -65 112q-2 2 -275 160q-145 85 -145 227q0 103 94.5 171.5t249.5 68.5q99 0 194.5 -31.5t143.5 -79.5v-231h-162q0 254 -178 254q-64 0 -95.5 -36t-31.5 -81q0 -39 15 -62.5t47 -43.5q23 -14 272 -152
q156 -86 156 -240q0 -110 -100 -183t-263 -73q-120 0 -215 32.5t-139 80.5v232zM434 1042l-319 326h135l182 -121l178 121h142z" />
    <glyph glyph-name="uni0162" unicode="&#x162;" horiz-adv-x="1167" 
d="M41 954v373h1085v-373h-133l-104 277h-182v-1131h174v-100h-594v100h174v1131h-185l-102 -277h-133zM414 -342l39 78q47 -37 102 -37q37 0 57.5 20t20.5 52q0 29 -24.5 45t-65.5 16h-23l8 94h33q95 0 144 -43t49 -114q0 -80 -59 -122t-138 -42q-36 0 -72 13.5t-53 26.5z
" />
    <glyph glyph-name="uni0163" unicode="&#x163;" horiz-adv-x="690" 
d="M621 141l55 -67q-115 -97 -238 -97q-303 0 -303 273v577h-90v70l254 258h66v-235h292v-93h-292v-581q0 -72 29 -115t85 -43q46 0 77 12.5t65 40.5zM215 -342l39 78q47 -37 102 -37q37 0 57.5 20t20.5 52q0 29 -24.5 45t-65.5 16h-22l8 94h32q95 0 144 -43t49 -114
q0 -80 -59 -122t-138 -42q-36 0 -72 13.5t-54 26.5z" />
    <glyph glyph-name="Tcaron" unicode="&#x164;" horiz-adv-x="1167" 
d="M41 954v373h1085v-373h-133l-104 277h-182v-1131h174v-100h-594v100h174v1131h-185l-102 -277h-133zM594 1425l-320 326h136l182 -121l178 121h141z" />
    <glyph glyph-name="tcaron" unicode="&#x165;" horiz-adv-x="948" 
d="M621 141l55 -67q-115 -97 -238 -97q-303 0 -303 273v577h-90v70l254 258h66v-235h292v-93h-292v-581q0 -72 29 -115t85 -43q46 0 77 12.5t65 40.5zM657 1083v324h197l-84 -324h-113z" />
    <glyph glyph-name="Tbar" unicode="&#x166;" horiz-adv-x="1167" 
d="M707 1231v-596h284v-100h-284v-435h174v-100h-594v100h174v435h-291v100h291v596h-185l-102 -277h-133v373h1085v-373h-133l-104 277h-182z" />
    <glyph glyph-name="tbar" unicode="&#x167;" horiz-adv-x="690" 
d="M621 141l55 -67q-115 -97 -238 -97q-303 0 -303 273v291h-90v88h90v198h-90v70l254 258h66v-235h292v-93h-292v-198h292v-88h-292v-295q0 -72 29 -115t85 -43q46 0 77 12.5t65 40.5z" />
    <glyph glyph-name="Utilde" unicode="&#x168;" horiz-adv-x="1300" 
d="M1114 1231v-864q0 -177 -121 -283.5t-331 -106.5q-226 0 -353 118.5t-127 340.5v795h-159v96h565v-96h-160v-844q0 -143 64 -221t188 -78q53 0 105 15.5t99.5 46.5t77 87t29.5 128v866h-170v96h455v-96h-162zM436 1444h-96q21 88 77.5 145.5t147.5 57.5q49 0 133.5 -38
t120.5 -38q29 0 54 21.5t30 49.5h96q-16 -90 -70 -148t-143 -58q-50 0 -135.5 38.5t-126.5 38.5q-29 0 -55 -19.5t-33 -49.5z" />
    <glyph glyph-name="utilde" unicode="&#x169;" 
d="M707 -18l-5 73q-80 -80 -231 -80q-315 0 -315 322v530h-125v88h354v-618q0 -223 133 -223q77 0 130.5 55.5t53.5 167.5v530h-124v88h352v-827h127v-84zM315 1073h-96q21 88 77.5 145.5t147.5 57.5q49 0 133.5 -38t120.5 -38q29 0 54 22t30 50h97q-16 -90 -70 -148.5
t-143 -58.5q-49 0 -135.5 39t-127.5 39q-29 0 -55 -20t-33 -50z" />
    <glyph glyph-name="Umacron" unicode="&#x16a;" horiz-adv-x="1300" 
d="M1114 1231v-864q0 -177 -121 -283.5t-331 -106.5q-226 0 -353 118.5t-127 340.5v795h-159v96h565v-96h-160v-844q0 -143 64 -221t188 -78q53 0 105 15.5t99.5 46.5t77 87t29.5 128v866h-170v96h455v-96h-162zM944 1591v-102h-510v102h510z" />
    <glyph glyph-name="umacron" unicode="&#x16b;" 
d="M707 -18l-5 73q-80 -80 -231 -80q-315 0 -315 322v530h-125v88h354v-618q0 -223 133 -223q77 0 130.5 55.5t53.5 167.5v530h-124v88h352v-827h127v-84zM803 1223v-103h-510v103h510z" />
    <glyph glyph-name="Ubreve" unicode="&#x16c;" horiz-adv-x="1300" 
d="M1114 1231v-864q0 -177 -121 -283.5t-331 -106.5q-226 0 -353 118.5t-127 340.5v795h-159v96h565v-96h-160v-844q0 -143 64 -221t188 -78q53 0 105 15.5t99.5 46.5t77 87t29.5 128v866h-170v96h455v-96h-162zM696 1440q-109 0 -183 63.5t-77 163.5h117q4 -65 43.5 -97
t99.5 -32t100 32t44 97h116q-3 -100 -77 -163.5t-183 -63.5z" />
    <glyph glyph-name="ubreve" unicode="&#x16d;" 
d="M707 -18l-5 73q-80 -80 -231 -80q-315 0 -315 322v530h-125v88h354v-618q0 -223 133 -223q77 0 130.5 55.5t53.5 167.5v530h-124v88h352v-827h127v-84zM549 1065q-109 0 -183 63.5t-77 163.5h117q4 -65 43.5 -97t99.5 -32t99.5 32t43.5 97h117q-3 -100 -77 -163.5
t-183 -63.5z" />
    <glyph glyph-name="Uring" unicode="&#x16e;" horiz-adv-x="1300" 
d="M1114 1231v-864q0 -177 -121 -283.5t-331 -106.5q-226 0 -353 118.5t-127 340.5v795h-159v96h565v-96h-160v-844q0 -143 64 -221t188 -78q53 0 105 15.5t99.5 46.5t77 87t29.5 128v866h-170v96h455v-96h-162zM614 1608q0 -42 28 -69.5t67 -27.5t66.5 27.5t27.5 69.5
t-27.5 69t-66.5 27t-67 -27t-28 -69zM522 1608q0 76 55 128t132 52t131.5 -52t54.5 -128t-54.5 -128.5t-131.5 -52.5t-132 52.5t-55 128.5z" />
    <glyph glyph-name="uring" unicode="&#x16f;" 
d="M707 -18l-5 73q-80 -80 -231 -80q-315 0 -315 322v530h-125v88h354v-618q0 -223 133 -223q77 0 130.5 55.5t53.5 167.5v530h-124v88h352v-827h127v-84zM453 1237q0 -42 27.5 -69t66.5 -27t66.5 27t27.5 69t-27.5 69t-66.5 27t-66.5 -27t-27.5 -69zM360 1237q0 76 55 128
t132 52t131.5 -52t54.5 -128t-54.5 -128t-131.5 -52t-132 52t-55 128z" />
    <glyph glyph-name="Uhungarumlaut" unicode="&#x170;" horiz-adv-x="1300" 
d="M1114 1231v-864q0 -177 -121 -283.5t-331 -106.5q-226 0 -353 118.5t-127 340.5v795h-159v96h565v-96h-160v-844q0 -143 64 -221t188 -78q53 0 105 15.5t99.5 46.5t77 87t29.5 128v866h-170v96h455v-96h-162zM545 1427h-133l270 340h139zM803 1427h-135l270 340h139z" />
    <glyph glyph-name="uhungarumlaut" unicode="&#x171;" 
d="M707 -18l-5 73q-80 -80 -231 -80q-315 0 -315 322v530h-125v88h354v-618q0 -223 133 -223q77 0 130.5 55.5t53.5 167.5v530h-124v88h352v-827h127v-84zM406 1044h-134l271 340h139zM664 1044h-136l271 340h139z" />
    <glyph glyph-name="Uogonek" unicode="&#x172;" horiz-adv-x="1300" 
d="M1114 1231v-864q0 -138 -76 -235t-213 -134q-163 -87 -163 -176q0 -33 19 -47.5t44 -14.5q15 0 35.5 8t33.5 16l13 7l43 -80q-8 -8 -23 -19t-58.5 -29.5t-84.5 -18.5q-64 0 -109 35.5t-45 107.5q0 109 119 190q-221 3 -344 121.5t-123 337.5v795h-159v96h565v-96h-160
v-844q0 -143 64 -221t188 -78q53 0 105 15.5t99.5 46.5t77 87t29.5 128v866h-170v96h455v-96h-162z" />
    <glyph glyph-name="uogonek" unicode="&#x173;" 
d="M707 -18l-5 73q-80 -80 -231 -80q-315 0 -315 322v530h-125v88h354v-618q0 -223 133 -223q77 0 130.5 55.5t53.5 167.5v530h-124v88h352v-827h127v-84q-170 -97 -170 -182q0 -33 19 -47.5t44 -14.5q15 0 35.5 8t33.5 16l13 7l43 -80q-8 -8 -23 -19t-58.5 -29.5
t-84.5 -18.5q-64 0 -108.5 35t-44.5 108q0 67 43 119.5t102 87.5z" />
    <glyph glyph-name="Wcircumflex" unicode="&#x174;" horiz-adv-x="1939" 
d="M1456 1327h512v-96h-188l-381 -1231h-139l-297 918l-265 -918h-141l-397 1231h-176v96h587v-96h-159l270 -862l274 950h131l304 -954l266 866h-201v96zM694 1427l320 326l317 -326h-141l-178 121l-183 -121h-135z" />
    <glyph glyph-name="wcircumflex" unicode="&#x175;" horiz-adv-x="1488" 
d="M1507 915v-88h-139l-262 -827h-131l-230 553l-200 -553h-133l-303 827h-127v88h503v-88h-137l182 -530l224 618h88l250 -630l159 542h-147v88h403zM479 1040l320 326l317 -326h-141l-178 121l-183 -121h-135z" />
    <glyph glyph-name="Ycircumflex" unicode="&#x176;" horiz-adv-x="1224" 
d="M492 561l-330 670h-170v96h579v-96h-147l246 -510l262 510h-172v96h471v-96h-180l-316 -621v-510h199v-100h-639v100h197v461zM330 1427l319 326l318 -326h-142l-178 121l-182 -121h-135z" />
    <glyph glyph-name="ycircumflex" unicode="&#x177;" horiz-adv-x="999" 
d="M887 827l-400 -1056q-80 -213 -254 -213q-62 0 -114 26t-107 74l74 84q81 -76 147 -76q89 0 132 105l84 213l-349 843h-118v88h493v-88h-129l217 -536l201 536h-135v88h389v-88h-131zM209 1040l319 326l318 -326h-141l-179 121l-182 -121h-135z" />
    <glyph glyph-name="Ydieresis" unicode="&#x178;" horiz-adv-x="1224" 
d="M492 561l-330 670h-170v96h579v-96h-147l246 -510l262 510h-172v96h471v-96h-180l-316 -621v-510h199v-100h-639v100h197v461zM326 1552q0 54 37 90.5t90 36.5q55 0 91 -36.5t36 -90.5q0 -53 -36 -89t-91 -36q-53 0 -90 36.5t-37 88.5zM694 1552q0 54 36.5 90.5
t90.5 36.5q53 0 90 -36.5t37 -90.5q0 -52 -37 -88.5t-90 -36.5q-54 0 -90.5 36t-36.5 89z" />
    <glyph glyph-name="Zacute" unicode="&#x179;" horiz-adv-x="1126" 
d="M1075 1243l-762 -1143h543l107 273h131v-373h-1057v94l770 1137h-492l-108 -277h-129v373h997v-84zM334 1427l297 340l133 -145l-297 -195h-133z" />
    <glyph glyph-name="zacute" unicode="&#x17a;" horiz-adv-x="911" 
d="M733 313h123v-313h-805v80l533 747h-285l-86 -221h-125v309h746v-73l-521 -752h332zM225 1040l297 340l133 -145l-297 -195h-133z" />
    <glyph glyph-name="Zdotaccent" unicode="&#x17b;" horiz-adv-x="1126" 
d="M1075 1243l-762 -1143h543l107 273h131v-373h-1057v94l770 1137h-492l-108 -277h-129v373h997v-84zM438 1573q0 61 42 102t104 41t102.5 -41t40.5 -102q0 -65 -40.5 -105.5t-102.5 -40.5q-63 0 -104.5 40.5t-41.5 105.5z" />
    <glyph glyph-name="zdotaccent" unicode="&#x17c;" horiz-adv-x="911" 
d="M733 313h123v-313h-805v80l533 747h-285l-86 -221h-125v309h746v-73l-521 -752h332zM330 1202q0 61 41.5 102.5t103.5 41.5q61 0 102 -41t41 -103q0 -65 -40.5 -105t-102.5 -40q-63 0 -104 40t-41 105z" />
    <glyph glyph-name="Zcaron" unicode="&#x17d;" horiz-adv-x="1126" 
d="M1075 1243l-762 -1143h543l107 273h131v-373h-1057v94l770 1137h-492l-108 -277h-129v373h997v-84zM565 1425l-319 326h135l182 -121l178 121h142z" />
    <glyph glyph-name="zcaron" unicode="&#x17e;" horiz-adv-x="911" 
d="M733 313h123v-313h-805v80l533 747h-285l-86 -221h-125v309h746v-73l-521 -752h332zM475 1040l-319 326h135l182 -121l178 121h142z" />
    <glyph glyph-name="longs" unicode="&#x17f;" horiz-adv-x="704" 
d="M684 1239q-84 74 -156 74q-57 0 -88.5 -45t-31.5 -152v-1028h190v-88h-559v88h141v739h-141v88h141v164q0 87 30.5 153.5t80.5 104t107.5 56t119.5 18.5q131 0 242 -96z" />
    <glyph glyph-name="uni018F" unicode="&#x18f;" horiz-adv-x="1325" 
d="M655 1251q-41 0 -82 -16t-80 -49.5t-67.5 -94.5t-36.5 -141h-174v230q162 166 444 166q127 0 230.5 -38.5t170.5 -102t112.5 -148t65 -173.5t19.5 -182q0 -108 -20.5 -209.5t-67 -196t-114.5 -165t-170 -112.5t-226 -42q-116 0 -211 31.5t-161 86t-111 131t-65.5 164.5
t-20.5 188h916q0 100 -13 195.5t-41 182.5t-68.5 152t-99.5 104t-129 39zM659 70q83 0 146 30.5t103 87t62.5 128t30.5 161.5h-643q23 -185 100 -296t201 -111z" />
    <glyph glyph-name="florin" unicode="&#x192;" horiz-adv-x="704" 
d="M686 1241h-4q-92 72 -154 72q-122 0 -122 -197v-201h274v-88h-274v-938q0 -86 -30 -152t-80 -103t-108 -55.5t-122 -18.5q-131 0 -240 92l78 80q92 -76 151 -76q61 0 93 45.5t32 153.5v972h-141v88h141v164q0 87 30.5 153.5t80.5 104t107.5 56t119.5 18.5q131 0 242 -96z
" />
    <glyph glyph-name="uni01DD" unicode="&#x1dd;" horiz-adv-x="970" 
d="M422 809q-98 0 -164 -56t-90 -153l-88 2q25 141 126.5 237.5t262.5 96.5q108 0 191.5 -39t133.5 -107t75.5 -154t25.5 -185q0 -202 -119.5 -340t-312.5 -138q-170 0 -269 95t-114 262q-3 50 0 102h592q-3 94 -35 179.5t-89 141.5t-126 56zM475 61q92 0 140.5 78t56.5 201
h-361q0 -57 8.5 -104.5t26.5 -88t51 -63.5t78 -23z" />
    <glyph glyph-name="AEacute" unicode="&#x1fc;" horiz-adv-x="1773" 
d="M823 100v375h-348l-178 -375h158v-100h-459v100h168l522 1131h-127v96h1143v-373h-143l-109 277h-381v-471h219v139h131v-389h-131v141h-219v-551h397l107 273h143v-373h-1065v100h172zM520 584h303l4 647h-20zM938 1427l297 340l133 -145l-297 -195h-133z" />
    <glyph glyph-name="aeacute" unicode="&#x1fd;" horiz-adv-x="1486" 
d="M1067 104q98 0 164 56t90 153l88 -2q-25 -141 -126.5 -237.5t-262.5 -96.5q-194 0 -305 121q-89 -60 -171 -91.5t-175 -31.5q-55 0 -104.5 13t-91.5 39.5t-66.5 72t-24.5 105.5q0 92 56.5 149t174.5 97l273 90v82q0 118 -26 172.5t-97 54.5q-64 0 -98.5 -44t-28.5 -106
l8 -79h-233q-3 39 10.5 88t32.5 79q93 148 319 148q189 0 275 -98q117 102 278 102q170 0 269 -94.5t114 -261.5q3 -50 0 -103h-592q3 -94 35 -179.5t89 -141.5t126 -56zM449 88q49 0 113.5 30t96.5 58q-62 112 -65 273l-162 -56q-53 -18 -83 -58.5t-30 -98.5
q0 -62 36.5 -105t93.5 -43zM1014 852q-92 0 -140.5 -78t-56.5 -201h361q0 57 -8.5 104.5t-26.5 88t-51 63.5t-78 23zM516 1020l297 340l133 -146l-297 -194h-133z" />
    <glyph glyph-name="Oslashacute" unicode="&#x1fe;" horiz-adv-x="1325" 
d="M457 1427l297 340l133 -145l-297 -195h-133zM662 1346q205 0 348 -99l80 115h133l-131 -186q85 -91 126.5 -216t41.5 -258q0 -108 -20.5 -209.5t-67 -196t-114.5 -165t-170 -112.5t-226 -42q-198 0 -338 93l-78 -113h-133l127 182q-89 92 -131.5 220.5t-42.5 265.5
q0 108 21 209.5t67.5 195t114.5 163.5t169.5 111.5t223.5 41.5zM319 760q0 -241 62 -418l518 745q-91 168 -240 168q-92 0 -159.5 -39.5t-106 -110t-56.5 -156t-18 -189.5zM1008 575q0 220 -58 394l-518 -744q91 -155 230 -155q94 0 163 39t108 110t57 159t18 197z" />
    <glyph glyph-name="oslashacute" unicode="&#x1ff;" horiz-adv-x="1017" 
d="M301 1042l297 340l133 -145l-297 -195h-133zM76 438q0 75 16 146.5t51 137t85 114t123.5 77.5t160.5 29q128 0 221 -55l55 88h103l-88 -139q70 -67 104.5 -161.5t34.5 -193.5q0 -72 -17.5 -144t-54 -137t-87 -115t-123 -80t-156.5 -30q-123 0 -215 50l-64 -103h-106
l98 154q-72 67 -106.5 163t-34.5 199zM315 526q0 -139 29 -252l297 469q-54 111 -133 111q-50 0 -88.5 -27t-60.5 -73.5t-33 -104t-11 -123.5zM508 63q100 0 147 93.5t47 240.5q0 133 -26 240l-295 -469q52 -105 127 -105z" />
    <glyph glyph-name="uni0218" unicode="&#x218;" horiz-adv-x="1009" 
d="M80 377h176q21 -163 79 -234t152 -71q98 0 158 62.5t60 162.5q0 49 -21 92t-51 68q-23 20 -195 131t-192 125q-74 51 -123 127.5t-49 175.5q0 146 113.5 238t308.5 92q127 0 230.5 -38t166.5 -104v-252h-178q-8 88 -27 148t-49 93.5t-65 47.5t-82 14q-96 0 -141.5 -61
t-45.5 -150q0 -93 76 -147l98.5 -65.5l164 -108.5t112.5 -72q188 -116 188 -315q0 -155 -125.5 -257t-331.5 -102q-269 0 -407 150v250zM578 -80v-317h-193l82 317h111z" />
    <glyph glyph-name="uni0219" unicode="&#x219;" horiz-adv-x="874" 
d="M76 322h155q0 -134 56.5 -194t142.5 -60q67 0 105 37t38 92q0 72 -65 112q-2 2 -275 160q-145 85 -145 227q0 103 94.5 171.5t249.5 68.5q99 0 194.5 -31.5t143.5 -79.5v-231h-162q0 254 -178 254q-64 0 -95.5 -36t-31.5 -81q0 -39 15 -62.5t47 -43.5q23 -14 272 -152
q156 -86 156 -240q0 -110 -100 -183t-263 -73q-120 0 -215 32.5t-139 80.5v232zM502 -82v-317h-193l82 317h111z" />
    <glyph glyph-name="uni021A" unicode="&#x21a;" horiz-adv-x="1167" 
d="M41 954v373h1085v-373h-133l-104 277h-182v-1131h174v-100h-594v100h174v1131h-185l-102 -277h-133zM702 -82v-317h-192l82 317h110z" />
    <glyph glyph-name="uni021B" unicode="&#x21b;" horiz-adv-x="690" 
d="M621 141l55 -67q-115 -97 -238 -97q-303 0 -303 273v577h-90v70l254 258h66v-235h292v-93h-292v-581q0 -72 29 -115t85 -43q46 0 77 12.5t65 40.5zM496 -82v-317h-193l82 317h111z" />
    <glyph glyph-name="circumflex" unicode="&#x2c6;" horiz-adv-x="772" 
d="M68 1020l319 326l318 -326h-142l-178 121l-182 -121h-135z" />
    <glyph glyph-name="caron" unicode="&#x2c7;" horiz-adv-x="772" 
d="M387 1012l-319 325h135l182 -120l178 120h142z" />
    <glyph glyph-name="breve" unicode="&#x2d8;" horiz-adv-x="733" 
d="M367 942q-109 0 -183.5 63.5t-77.5 163.5h117q4 -65 44 -97t100 -32t99.5 32t43.5 97h117q-3 -100 -77 -163.5t-183 -63.5z" />
    <glyph glyph-name="dotaccent" unicode="&#x2d9;" horiz-adv-x="425" 
d="M68 999q0 61 41.5 102.5t103.5 41.5q61 0 102 -41t41 -103q0 -65 -40.5 -105t-102.5 -40q-63 0 -104 40t-41 105z" />
    <glyph glyph-name="ring" unicode="&#x2da;" horiz-adv-x="604" 
d="M205 1004q0 -42 27.5 -69.5t66.5 -27.5t66.5 27.5t27.5 69.5t-27.5 69t-66.5 27t-66.5 -27t-27.5 -69zM113 1004q0 76 54.5 128t131.5 52t131.5 -52t54.5 -128t-54.5 -128.5t-131.5 -52.5t-131.5 52.5t-54.5 128.5z" />
    <glyph glyph-name="ogonek" unicode="&#x2db;" horiz-adv-x="634" 
d="M313 0h144q-168 -90 -168 -178q0 -33 19 -47.5t44 -14.5q15 0 35.5 8t33.5 16l13 7l43 -80q-8 -8 -23 -19t-58.5 -29.5t-84.5 -18.5q-64 0 -108.5 35t-44.5 108q0 71 46.5 125t108.5 88z" />
    <glyph glyph-name="tilde" unicode="&#x2dc;" horiz-adv-x="763" 
d="M147 1087h-96q21 88 77.5 145.5t147.5 57.5q49 0 133.5 -38t120.5 -38q29 0 54 22t30 50h97q-16 -90 -70 -148.5t-143 -58.5q-50 0 -136 39t-126 39q-29 0 -55.5 -20t-33.5 -50z" />
    <glyph glyph-name="hungarumlaut" unicode="&#x2dd;" horiz-adv-x="854" 
d="M244 1044h-133l270 340h139zM502 1044h-135l270 340h139z" />
    <glyph glyph-name="Alphatonos" unicode="&#x386;" horiz-adv-x="1302" 
d="M1184 100h147v-100h-551v100h144l-138 377h-372l-131 -377h151v-100h-438v100h166l438 1227h141zM451 584h305l-154 436zM190 1051v317h193l-82 -317h-111z" />
    <glyph glyph-name="Epsilontonos" unicode="&#x388;" horiz-adv-x="1503" 
d="M549 100v1131h-174v96h1055v-373h-144l-104 277h-387v-471h215v139h123v-389h-123v141h-215v-551h405l103 273h143v-373h-1071v100h174zM78 1051v317h192l-82 -317h-110z" />
    <glyph glyph-name="Etatonos" unicode="&#x389;" horiz-adv-x="1720" 
d="M1673 1231h-139v-1131h139v-100h-522v100h135v549h-526v-549h137v-100h-522v100h139v1131h-139v96h522v-96h-137v-475h526v475h-135v96h522v-96zM78 1051v317h192l-82 -317h-110z" />
    <glyph glyph-name="Iotatonos" unicode="&#x38a;" horiz-adv-x="1048" 
d="M1012 1231h-203v-1131h203v-100h-645v100h196v1131h-196v96h645v-96zM78 1051v317h192l-82 -317h-110z" />
    <glyph glyph-name="Omicrontonos" unicode="&#x38c;" horiz-adv-x="1490" 
d="M827 1346q127 0 230.5 -38.5t170.5 -102t112.5 -148t65 -173.5t19.5 -182q0 -108 -20.5 -209.5t-67 -196t-114.5 -165t-170 -112.5t-226 -42q-108 0 -198.5 27t-154.5 75t-112 110t-76 136t-41.5 148.5t-13.5 151.5q0 108 21 209.5t67.5 195t114.5 163.5t169.5 111.5
t223.5 41.5zM1174 575q0 127 -21 245t-62 217t-110 158.5t-156 59.5q-92 0 -159.5 -39.5t-106 -110t-56.5 -156t-18 -189.5q-1 -127 19.5 -246.5t60.5 -220.5t108 -162t154 -61q94 0 163 39t108.5 110t57.5 159t18 197zM78 1051v317h192l-82 -317h-110z" />
    <glyph glyph-name="Upsilontonos" unicode="&#x38e;" horiz-adv-x="1603" 
d="M870 561l-329 670h-170v96h579v-96h-147l246 -510l262 510h-172v96h471v-96h-180l-316 -621v-510h199v-100h-639v100h196v461zM78 1051v317h192l-82 -317h-110z" />
    <glyph glyph-name="Omegatonos" unicode="&#x38f;" horiz-adv-x="1644" 
d="M870 1255q-364 0 -364 -528q0 -47 6.5 -94.5t15 -86t26.5 -85t31 -76.5t38.5 -77.5t39.5 -71.5l43.5 -73.5l41.5 -70.5l-21 -92h-547v342h99l69 -166h221l-78.5 80t-82 96.5t-81 119.5t-54 132.5t-23.5 151.5q0 178 82.5 313.5t222.5 206t315 70.5t315 -70.5t223 -206
t83 -313.5q0 -75 -24 -151.5t-54 -132.5t-81 -120t-82 -96.5l-79 -79.5h222l69 166h99v-342h-547l-21 92l41.5 70.5l43.5 73.5t39.5 71.5t38.5 77.5t31 76.5t26.5 85t15 86t6.5 94.5q0 528 -365 528zM78 1051v317h192l-82 -317h-110z" />
    <glyph glyph-name="iotadieresistonos" unicode="&#x390;" horiz-adv-x="565" 
d="M141 915h230v-768q0 -25 15.5 -38t33.5 -13q30 0 72 33l36 -70q-82 -82 -206 -82q-89 0 -135 51t-46 144v743zM203 1174v317h176l-82 -317h-94zM-82 1219q0 49 33.5 81.5t81.5 32.5q49 0 81.5 -32.5t32.5 -81.5q0 -48 -32.5 -80.5t-81.5 -32.5q-47 0 -81 33t-34 80z
M373 1219q0 49 32.5 81.5t81.5 32.5q48 0 81.5 -32.5t33.5 -81.5q0 -47 -34 -80t-81 -33q-49 0 -81.5 32.5t-32.5 80.5z" />
    <glyph glyph-name="Alpha" unicode="&#x391;" horiz-adv-x="1302" 
d="M1184 100h147v-100h-551v100h144l-138 377h-372l-131 -377h151v-100h-438v100h166l438 1227h141zM451 584h305l-154 436z" />
    <glyph glyph-name="Beta" unicode="&#x392;" horiz-adv-x="1210" 
d="M47 1327h664q161 0 265.5 -96t104.5 -236q0 -74 -45.5 -147.5t-117.5 -120.5q107 -41 172 -130.5t65 -209.5q0 -169 -122 -278t-320 -109h-666v100h176v1131h-176v96zM469 100h213q85 0 150 77.5t65 207.5q0 109 -61.5 187.5t-155.5 78.5h-211v-551zM469 760h186
q75 0 125.5 63t50.5 168q0 107 -53 173.5t-123 66.5h-186v-471z" />
    <glyph glyph-name="Gamma" unicode="&#x393;" horiz-adv-x="1142" 
d="M467 1231v-1131h174v-100h-594v100h172v1131h-172v96h1055v-373h-144l-104 277h-387z" />
    <glyph glyph-name="uni0394" unicode="&#x394;" horiz-adv-x="1210" 
d="M1147 0h-1110v74l522 1239h82l506 -1239v-74zM559 1020l-369 -875h713z" />
    <glyph glyph-name="Epsilon" unicode="&#x395;" horiz-adv-x="1175" 
d="M221 100v1131h-174v96h1055v-373h-144l-104 277h-387v-471h215v139h123v-389h-123v141h-215v-551h405l103 273h143v-373h-1071v100h174z" />
    <glyph glyph-name="Zeta" unicode="&#x396;" horiz-adv-x="1126" 
d="M1075 1243l-762 -1143h543l107 273h131v-373h-1057v94l770 1137h-492l-108 -277h-129v373h997v-84z" />
    <glyph glyph-name="Eta" unicode="&#x397;" horiz-adv-x="1392" 
d="M1346 1231h-140v-1131h140v-100h-523v100h135v549h-526v-549h137v-100h-522v100h139v1131h-139v96h522v-96h-137v-475h526v475h-135v96h523v-96z" />
    <glyph glyph-name="Theta" unicode="&#x398;" horiz-adv-x="1325" 
d="M662 1346q127 0 230.5 -38.5t170.5 -102t112.5 -148t65 -173.5t19.5 -182q0 -108 -20.5 -209.5t-67 -196t-114.5 -165t-170 -112.5t-226 -42q-108 0 -198.5 27t-154.5 75t-112 110t-76 136t-41.5 148.5t-13.5 151.5q0 108 21 209.5t67.5 195t114.5 163.5t169.5 111.5
t223.5 41.5zM1008 575q0 127 -21 245t-62 217t-110 158.5t-156 59.5q-92 0 -159.5 -39.5t-106 -110t-56.5 -156t-18 -189.5q-1 -127 19.5 -247t60.5 -220.5t108.5 -161.5t154.5 -61q94 0 163 39t108 110t57 159t18 197zM862 737v-123h-405v123h405z" />
    <glyph glyph-name="Iota" unicode="&#x399;" horiz-adv-x="718" 
d="M682 1231h-203v-1131h203v-100h-645v100h196v1131h-196v96h645v-96z" />
    <glyph glyph-name="Kappa" unicode="&#x39a;" horiz-adv-x="1390" 
d="M1245 100h166v-100h-610v100h137l-436 535h-58v-535h144v-100h-541v100h152v1131h-148v96h537v-96h-144v-490h70l438 490h-145v96h475v-96h-178l-416 -457z" />
    <glyph glyph-name="Lambda" unicode="&#x39b;" horiz-adv-x="1302" 
d="M924 100l-322 920l-319 -920h151v-100h-438v100h166l438 1227h141l443 -1227h147v-100h-551v100h144z" />
    <glyph glyph-name="Mu" unicode="&#x39c;" horiz-adv-x="1654" 
d="M1610 1229h-156v-1129h160v-100h-551v100h145v877l-368 -977h-127l-391 981v-881h151v-100h-426v100h160v1129h-160v98h395l398 -1001l381 1001h389v-98z" />
    <glyph glyph-name="Nu" unicode="&#x39d;" horiz-adv-x="1314" 
d="M836 1327h442v-98h-168v-1229h-152l-639 1008v-908h168v-100h-440v100h160v1129h-156v98h363l579 -907v809h-157v98z" />
    <glyph glyph-name="Xi" unicode="&#x39e;" horiz-adv-x="1173" 
d="M78 342h98l80 -188h664l77 188h99v-342h-1018v342zM965 985l-80 189h-602l-78 -189h-99v342h957v-342h-98zM807 739v-123h-490v123h490z" />
    <glyph glyph-name="Omicron" unicode="&#x39f;" horiz-adv-x="1325" 
d="M662 1346q127 0 230.5 -38.5t170.5 -102t112.5 -148t65 -173.5t19.5 -182q0 -108 -20.5 -209.5t-67 -196t-114.5 -165t-170 -112.5t-226 -42q-108 0 -198.5 27t-154.5 75t-112 110t-76 136t-41.5 148.5t-13.5 151.5q0 108 21 209.5t67.5 195t114.5 163.5t169.5 111.5
t223.5 41.5zM1008 575q0 127 -21 245t-62 217t-110 158.5t-156 59.5q-92 0 -159.5 -39.5t-106 -110t-56.5 -156t-18 -189.5q-1 -127 19.5 -247t60.5 -220.5t108.5 -161.5t154.5 -61q94 0 163 39t108 110t57 159t18 197z" />
    <glyph glyph-name="Pi" unicode="&#x3a0;" horiz-adv-x="1392" 
d="M1346 1231h-140v-1131h140v-100h-523v100h135v1121h-526v-1121h137v-100h-522v100h139v1131h-139v96h1299v-96z" />
    <glyph glyph-name="Rho" unicode="&#x3a1;" horiz-adv-x="1167" 
d="M47 1327h615q211 0 319.5 -99.5t108.5 -252.5q0 -158 -117 -264.5t-311 -106.5h-209v-504h157v-100h-563v100h158v1131h-158v96zM453 1231v-522h186q77 0 130.5 75t53.5 187q0 115 -50.5 187.5t-133.5 72.5h-186z" />
    <glyph glyph-name="Sigma" unicode="&#x3a3;" horiz-adv-x="1171" 
d="M657 762l-385 -557h646l67 168h129v-373h-1057v94l400 584l-381 563v86h997v-373h-127l-108 277h-500z" />
    <glyph glyph-name="Tau" unicode="&#x3a4;" horiz-adv-x="1165" 
d="M39 954v373h1085v-373h-133l-104 277h-182v-1131h174v-100h-594v100h174v1131h-185l-102 -277h-133z" />
    <glyph glyph-name="Upsilon" unicode="&#x3a5;" horiz-adv-x="1224" 
d="M492 561l-330 670h-170v96h579v-96h-147l246 -510l262 510h-172v96h471v-96h-180l-316 -621v-510h199v-100h-639v100h197v461z" />
    <glyph glyph-name="Phi" unicode="&#x3a6;" horiz-adv-x="1468" 
d="M1057 1231h-199v-62q95 -8 176.5 -30t150.5 -62.5t117.5 -96.5t75.5 -133.5t27 -172.5q0 -118 -41 -210t-116 -151t-172.5 -92.5t-217.5 -42.5v-78h199v-100h-641v100h196v78q-120 9 -218 42.5t-173 92.5t-116.5 151t-41.5 210q0 95 27 173t75.5 134t118 96t151 62
t177.5 30v62h-196v96h641v-96zM317 674q0 -194 74.5 -293.5t220.5 -120.5v830q-146 -23 -220.5 -122t-74.5 -294zM1151 674q0 193 -75 293t-218 123v-830q145 22 219 122t74 292z" />
    <glyph glyph-name="Chi" unicode="&#x3a7;" horiz-adv-x="1388" 
d="M1208 100h174v-100h-632v100h168l-275 435l-301 -435h180v-100h-522v100h201l372 539l-376 592h-177v96h605v-96h-138l236 -377l260 377h-174v96h489v-96h-182l-323 -486z" />
    <glyph glyph-name="Psi" unicode="&#x3a8;" horiz-adv-x="1503" 
d="M870 1327v-698q217 6 217 297v401h383v-96h-149v-305q0 -164 -128.5 -266t-322.5 -107v-453h203v-100h-645v100h197v453q-125 4 -225.5 50t-159 130.5t-58.5 192.5v305h-149v96h383v-401q0 -141 50 -216t159 -81v698h245z" />
    <glyph glyph-name="uni03A9" unicode="&#x3a9;" horiz-adv-x="1542" 
d="M768 1255q-365 0 -365 -528q0 -47 6.5 -94.5t15 -86t26.5 -85t31 -76.5t38.5 -77.5t39.5 -71.5l43.5 -73.5l41.5 -70.5l-20 -92h-547v342h98l70 -166h221l-79 79.5t-82 96.5t-81 120t-54 132.5t-24 151.5q0 178 83 313.5t223 206t315 70.5t315 -70.5t223 -206t83 -313.5
q0 -75 -24 -151.5t-54 -132.5t-81 -120t-82 -96.5l-79 -79.5h221l70 166h98v-342h-547l-20 92l41.5 70.5l43.5 73.5t39.5 71.5t38.5 77.5t31 76.5t26.5 85t15 86t6.5 94.5q0 528 -365 528z" />
    <glyph glyph-name="Iotadieresis" unicode="&#x3aa;" horiz-adv-x="716" 
d="M682 1231h-203v-1131h203v-100h-645v100h196v1131h-196v96h645v-96zM49 1550q0 54 37 90.5t90 36.5q55 0 91 -36.5t36 -90.5q0 -53 -36 -89t-91 -36q-53 0 -90 36.5t-37 88.5zM418 1550q0 54 36.5 90.5t90.5 36.5q53 0 90 -36.5t37 -90.5q0 -52 -37 -88.5t-90 -36.5
q-54 0 -90.5 36t-36.5 89z" />
    <glyph glyph-name="Upsilondieresis" unicode="&#x3ab;" horiz-adv-x="1224" 
d="M492 561l-330 670h-170v96h579v-96h-147l246 -510l262 510h-172v96h471v-96h-180l-316 -621v-510h199v-100h-639v100h197v461zM328 1550q0 54 37 90.5t90 36.5q55 0 91 -36.5t36 -90.5q0 -53 -36 -89t-91 -36q-53 0 -90 36.5t-37 88.5zM696 1550q0 54 36.5 90.5
t90.5 36.5q53 0 90 -36.5t37 -90.5q0 -52 -37 -88.5t-90 -36.5q-54 0 -90.5 36t-36.5 89z" />
    <glyph glyph-name="alphatonos" unicode="&#x3ac;" horiz-adv-x="1118" 
d="M936 946v-799q0 -25 15.5 -38t33.5 -13q25 0 72 33l37 -70q-82 -82 -207 -82q-123 0 -166 97q-97 -97 -254 -97q-119 0 -210 66t-136 166.5t-45 214.5q0 98 26 188t76.5 165t135 120t192.5 45q126 0 199 -76v31zM705 291v327q0 111 -58 167.5t-137 56.5
q-100 0 -147.5 -94t-47.5 -248q0 -77 10 -146t33 -133.5t66.5 -102.5t103.5 -38q69 0 123 55t54 156zM459 1051v317h192l-82 -317h-110z" />
    <glyph glyph-name="epsilontonos" unicode="&#x3ad;" horiz-adv-x="923" 
d="M510 109q104 0 176 55.5t96 148.5l90 -2q-27 -142 -132 -238t-273 -96q-171 0 -280 70.5t-109 194.5q0 54 24 98.5t61 70.5t69 41t61 21q-26 6 -56 22.5t-60.5 42.5t-50.5 67t-20 87q0 81 53 139.5t134 84.5t180 26q91 0 163.5 -24.5t116.5 -64t68 -83.5t29 -90h-223
q-5 74 -45 123t-113 49q-69 0 -108 -42t-39 -110q0 -89 55 -134.5t133 -45.5v-86h-21q-83 0 -127.5 -42t-44.5 -120t53 -120.5t140 -42.5zM377 1051v317h192l-82 -317h-110z" />
    <glyph glyph-name="etatonos" unicode="&#x3ae;" horiz-adv-x="1054" 
d="M381 915l4 -59q79 86 236 86q88 0 151 -26.5t96.5 -73.5t48.5 -102t15 -122v-1015l-230 41v974q0 226 -137 226q-75 0 -127.5 -56t-52.5 -167v-621h-227v827h-127v88h350zM498 1051v317h192l-82 -317h-110z" />
    <glyph glyph-name="iotatonos" unicode="&#x3af;" horiz-adv-x="565" 
d="M141 915h230v-768q0 -25 15.5 -38t33.5 -13q30 0 72 33l36 -70q-82 -82 -206 -82q-89 0 -135 51t-46 144v743zM143 1065v317h193l-82 -317h-111z" />
    <glyph glyph-name="upsilondieresistonos" unicode="&#x3b0;" horiz-adv-x="1011" 
d="M479 -25q-91 0 -156 26t-100.5 72.5t-51 101.5t-15.5 122v530h-125v88h354v-618q0 -110 37 -170.5t104 -60.5q52 0 89.5 38.5t57 102.5t28 131t8.5 139q0 173 -41.5 272t-143.5 109l4 84q182 -21 295 -143t113 -318q0 -113 -36 -208.5t-97.5 -160t-145 -101t-178.5 -36.5
zM440 1174v317h176l-81 -317h-95zM156 1219q0 49 33 81.5t81 32.5q50 0 82.5 -32.5t32.5 -81.5q0 -48 -33 -80.5t-82 -32.5q-47 0 -80.5 33t-33.5 80zM610 1219q0 49 32.5 81.5t82.5 32.5q48 0 81.5 -32.5t33.5 -81.5q0 -47 -34 -80t-81 -33q-49 0 -82 32.5t-33 80.5z" />
    <glyph glyph-name="alpha" unicode="&#x3b1;" horiz-adv-x="1118" 
d="M936 946v-799q0 -25 15.5 -38t33.5 -13q25 0 72 33l37 -70q-82 -82 -207 -82q-123 0 -166 97q-97 -97 -254 -97q-119 0 -210 66t-136 166.5t-45 214.5q0 98 26 188t76.5 165t135 120t192.5 45q126 0 199 -76v31zM705 291v327q0 111 -58 167.5t-137 56.5
q-100 0 -147.5 -94t-47.5 -248q0 -77 10 -146t33 -133.5t66.5 -102.5t103.5 -38q69 0 123 55t54 156z" />
    <glyph glyph-name="beta" unicode="&#x3b2;" horiz-adv-x="1015" 
d="M637 1024q0 59 -13.5 104.5t-48 77t-88.5 31.5q-59 0 -95 -44.5t-36 -125.5v-1423l-221 -41v1374q0 154 94.5 250t259.5 96q88 0 161.5 -27t120 -71t72 -98t25.5 -109q0 -104 -58 -178t-146 -119q116 -33 196 -127t80 -223q0 -178 -129.5 -283.5t-349.5 -105.5l-19 88
q103 0 184 83.5t81 215.5q0 116 -66 194t-188 74l-21 88q97 7 151 92t54 207z" />
    <glyph glyph-name="gamma" unicode="&#x3b3;" horiz-adv-x="993" 
d="M821 948h113q10 -22 10 -57q0 -67 -35 -146l-256 -591v-510h-229v452l-309 731h-119v88h334l254 -636l219 499q26 62 26 117q0 13 -2 26t-4 20z" />
    <glyph glyph-name="delta" unicode="&#x3b4;" horiz-adv-x="1009" 
d="M197 1245l-2 82h581v-96h-354q229 -117 370.5 -319t141.5 -404q0 -109 -27 -203.5t-79 -168.5t-135.5 -116.5t-188.5 -42.5q-94 0 -168.5 27.5t-122.5 72.5t-79.5 107t-44.5 126.5t-13 135.5q0 72 16 142t49.5 134.5t81 113t116.5 77.5t150 29q91 0 152 -47
q-82 114 -216.5 214t-227.5 136zM504 66q100 0 145 91t45 238q0 87 -11.5 166.5t-33.5 146t-59.5 106.5t-85.5 40q-50 0 -87.5 -27t-59 -74.5t-32 -104.5t-10.5 -124q0 -84 11.5 -163.5t33.5 -146.5t59.5 -107.5t84.5 -40.5z" />
    <glyph glyph-name="epsilon" unicode="&#x3b5;" horiz-adv-x="923" 
d="M510 109q104 0 176 55.5t96 148.5l90 -2q-27 -142 -132 -238t-273 -96q-171 0 -280 70.5t-109 194.5q0 54 24 98.5t61 70.5t69 41t61 21q-26 6 -56 22.5t-60.5 42.5t-50.5 67t-20 87q0 81 53 139.5t134 84.5t180 26q91 0 163.5 -24.5t116.5 -64t68 -83.5t29 -90h-223
q-5 74 -45 123t-113 49q-69 0 -108 -42t-39 -110q0 -89 55 -134.5t133 -45.5v-86h-21q-83 0 -127.5 -42t-44.5 -120t53 -120.5t140 -42.5z" />
    <glyph glyph-name="zeta" unicode="&#x3b6;" horiz-adv-x="770" 
d="M739 1327v-96q-54 -25 -108.5 -66t-111.5 -106t-100.5 -142t-71.5 -179.5t-28 -213.5q0 -173 47.5 -269t186.5 -159q112 -51 153.5 -106.5t41.5 -132.5q0 -44 -18 -88.5t-36.5 -69.5t-48.5 -59l-76 61q33 37 47.5 66t14.5 69q0 61 -48 94.5t-137 59.5q-63 18 -111 38.5
t-98.5 57.5t-82.5 85.5t-53 124t-21 171.5q0 224 138.5 433.5t350.5 330.5h-411v96h581z" />
    <glyph glyph-name="eta" unicode="&#x3b7;" horiz-adv-x="1054" 
d="M381 915l4 -59q79 86 236 86q88 0 151 -26.5t96.5 -73.5t48.5 -102t15 -122v-1015l-230 41v974q0 226 -137 226q-75 0 -127.5 -56t-52.5 -167v-621h-227v827h-127v88h350z" />
    <glyph glyph-name="theta" unicode="&#x3b8;" horiz-adv-x="1105" 
d="M549 -18q-109 0 -200 57.5t-150 153.5t-91 220t-32 259q0 183 63.5 338t175 245.5t244.5 90.5t241.5 -91t169 -245t60.5 -338q0 -135 -33.5 -259t-93.5 -220t-152.5 -153.5t-201.5 -57.5zM553 74q66 0 114.5 48.5t74.5 132.5t38.5 177t14.5 201h-484q1 -85 8.5 -160.5
t25 -150.5t44 -128.5t68.5 -86.5t96 -33zM793 733q-11 524 -238 524q-64 0 -111 -41.5t-74.5 -117t-41.5 -165t-17 -200.5h482z" />
    <glyph glyph-name="iota" unicode="&#x3b9;" horiz-adv-x="565" 
d="M141 915h230v-768q0 -25 15.5 -38t33.5 -13q30 0 72 33l36 -70q-82 -82 -206 -82q-89 0 -135 51t-46 144v743z" />
    <glyph glyph-name="kappa" unicode="&#x3ba;" horiz-adv-x="1118" 
d="M408 915v-364h110l164 250q90 141 211 141q54 0 94.5 -21.5t83.5 -60.5l-65 -74q-19 19 -29 27.5t-31.5 18.5t-46.5 10q-73 0 -127 -84l-133 -207h2l346 -463h117v-88h-311l-336 459h-49v-371h114v-88h-463v88h121v739h-133v88h361z" />
    <glyph glyph-name="lambda" unicode="&#x3bb;" horiz-adv-x="980" 
d="M487 1149l402 -1061h131v-88h-225l-232 625l-250 -625h-252l388 932l-82 211q-22 54 -58 80t-76 26q-67 0 -147 -75l-74 83q116 101 226 101q94 0 152 -52.5t97 -156.5z" />
    <glyph glyph-name="uni03BC" unicode="&#x3bc;" 
d="M682 915h229v-768q0 -26 14 -38.5t33 -12.5q32 0 74 33l37 -70q-82 -82 -207 -82q-115 0 -160 86q-34 -40 -87 -63t-107 -23q-90 0 -143 41v-374l-230 -41v1312h230v-618q0 -221 137 -221q74 0 127 55t53 166v618z" />
    <glyph glyph-name="nu" unicode="&#x3bd;" horiz-adv-x="991" 
d="M602 0h-137l-350 827h-119v88h338l254 -653l213 516q26 62 26 117q0 13 -2 26t-4 20l-2 7h113q10 -22 10 -57q0 -61 -35 -146z" />
    <glyph glyph-name="xi" unicode="&#x3be;" horiz-adv-x="765" 
d="M385 983q0 -98 76 -171t188 -87v-88h-65q-109 0 -189 -73t-80 -181q0 -42 7 -76t24 -61t33.5 -46t49 -39t55 -32t65.5 -33q112 -53 153 -107.5t41 -131.5q0 -45 -18 -89t-36.5 -69.5t-47.5 -58.5l-76 61q33 37 47.5 66t14.5 69q0 28 -13.5 52t-32.5 39.5t-50.5 30
t-54.5 21.5l-58.5 17.5t-50.5 15.5q-145 50 -216 134.5t-71 211.5q0 126 86 214t207 122q-36 18 -62 33.5t-58 41.5t-51.5 53t-33.5 66.5t-14 84.5q0 91 75.5 161t192.5 97h-268v96h581v-96h-78q-113 0 -192.5 -76t-79.5 -172z" />
    <glyph glyph-name="omicron" unicode="&#x3bf;" horiz-adv-x="1017" 
d="M508 63q100 0 147 93.5t47 240.5q0 117 -20 218t-65.5 170t-108.5 69q-50 0 -88.5 -27t-60.5 -73.5t-33 -104t-11 -123.5q0 -114 20 -216.5t65.5 -174.5t107.5 -72zM512 942q90 0 164.5 -28t122.5 -74t81 -107t47.5 -124t14.5 -128q0 -72 -17.5 -144t-54 -137t-87 -115
t-123 -80t-156.5 -30q-92 0 -166.5 28.5t-122.5 74t-80 107t-45.5 124.5t-13.5 129q0 75 16 146.5t51 137t85 114t123.5 77.5t160.5 29z" />
    <glyph glyph-name="pi" unicode="&#x3c0;" horiz-adv-x="1146" 
d="M47 778v137h1032v-137h-166v-631q0 -26 16 -38.5t38 -12.5q20 0 67 33l37 -70q-82 -82 -207 -82q-89 0 -134.5 51t-45.5 144v606h-375v-778h-112v778h-150z" />
    <glyph glyph-name="rho" unicode="&#x3c1;" horiz-adv-x="1034" 
d="M117 -397v850q0 77 13 145.5t44 132.5t77.5 110t118.5 73.5t162 27.5q98 0 179.5 -38t134.5 -103t82.5 -150.5t29.5 -181.5q0 -85 -25.5 -170t-74 -158.5t-127.5 -119.5t-176 -46q-112 0 -209 80v-411zM346 616v-299q0 -99 58.5 -169t138.5 -70q52 0 88 24.5t55.5 70.5
t28 100.5t8.5 125.5q0 89 -12 167.5t-35.5 142t-63 100.5t-90.5 37q-77 0 -126.5 -58t-49.5 -172z" />
    <glyph glyph-name="sigma1" unicode="&#x3c2;" horiz-adv-x="942" 
d="M395 -6q-317 115 -317 450q0 75 17.5 147t53.5 135.5t86 111.5t120.5 76t152.5 28q83 0 150.5 -24.5t109.5 -64t65.5 -84t28.5 -89.5h-223q-5 72 -42.5 122t-98.5 50q-69 0 -114.5 -48t-63 -119t-17.5 -163q0 -95 19.5 -166t60.5 -121.5t88.5 -83.5t118.5 -67
q164 -77 164 -229q0 -35 -8.5 -66.5t-27.5 -61t-31 -45t-36 -42.5l-76 61q33 37 47.5 66t14.5 69q0 13 -4 25t-13.5 23t-18 19.5t-26 18l-29 15.5t-35.5 15l-36 13.5l-40 14.5z" />
    <glyph glyph-name="sigma" unicode="&#x3c3;" horiz-adv-x="1017" 
d="M512 942q66 0 135 -27h326v-137h-166q88 -136 88 -321q0 -63 -12.5 -127.5t-42.5 -129t-73.5 -114t-111.5 -80.5t-151 -31q-92 0 -166.5 28.5t-122.5 74t-80 107t-45.5 124.5t-13.5 129q0 75 16 146.5t51 137t85 114t123.5 77.5t160.5 29zM524 63q103 0 169.5 114
t66.5 265q0 203 -72 307.5t-180 104.5q-50 0 -88.5 -27t-60.5 -73.5t-33 -104t-11 -123.5q0 -116 20.5 -217t69.5 -173.5t119 -72.5z" />
    <glyph glyph-name="tau" unicode="&#x3c4;" horiz-adv-x="897" 
d="M63 778v137h768l-2 -137h-301v-631q0 -26 14.5 -38.5t35.5 -12.5q24 0 71 33l37 -70q-82 -82 -207 -82q-89 0 -134.5 51t-45.5 144v606h-236z" />
    <glyph glyph-name="upsilon" unicode="&#x3c5;" horiz-adv-x="1011" 
d="M479 -25q-91 0 -156 26t-100.5 72.5t-51 101.5t-15.5 122v530h-125v88h354v-618q0 -110 37 -170.5t104 -60.5q52 0 89.5 38.5t57 102.5t28 131t8.5 139q0 173 -41.5 272t-143.5 109l4 84q182 -21 295 -143t113 -318q0 -113 -36 -208.5t-97.5 -160t-145 -101t-178.5 -36.5
z" />
    <glyph glyph-name="phi" unicode="&#x3c6;" horiz-adv-x="1204" 
d="M463 942l6 -84q-52 -5 -86.5 -33.5t-51 -79.5t-22.5 -103t-6 -124q0 -152 54.5 -276.5t162.5 -163.5v618q0 117 67.5 181.5t170.5 64.5q158 0 263 -130t105 -323q0 -175 -102 -316.5t-274 -180.5v-348l-230 -41v381q-193 24 -318.5 156.5t-125.5 330.5q0 176 107.5 313.5
t279.5 157.5zM823 827q-39 0 -56 -35t-17 -145v-563q121 42 192.5 155t71.5 248q0 83 -20.5 151.5t-51.5 107.5t-62.5 60t-56.5 21z" />
    <glyph glyph-name="chi" unicode="&#x3c7;" horiz-adv-x="923" 
d="M344 915l201 -454l166 315q32 63 32 119q0 13 -2 26t-4 20l-2 7h113q8 -22 8 -57q0 -66 -43 -148l-207 -401l314 -698h-256l-218 495l-262 -495h-129l328 618l-250 565h-115v88h326z" />
    <glyph glyph-name="psi" unicode="&#x3c8;" horiz-adv-x="1226" 
d="M573 70v854h113v-854q72 0 130 67t58 172v606h230v-583q0 -143 -116 -247t-302 -110v-372h-113v372q-186 6 -301.5 110t-115.5 247v495h-125v88h354v-606q0 -105 58 -172t130 -67z" />
    <glyph glyph-name="omega" unicode="&#x3c9;" horiz-adv-x="1368" 
d="M567 250v379l230 45v-424q0 -93 25.5 -138.5t82.5 -45.5q44 0 76 38.5t48.5 102t24 129.5t7.5 135q0 85 -9 150.5t-30 118.5t-58 83t-90 35l7 84q179 -20 293 -150t114 -321q0 -221 -104.5 -357.5t-268.5 -136.5q-76 0 -138.5 33.5t-94.5 87.5q-33 -54 -95 -87.5
t-138 -33.5q-164 0 -268.5 136.5t-104.5 357.5q0 191 114 321t293 150l6 -84q-102 -10 -144 -110t-42 -277q0 -69 7.5 -135t24 -129.5t48.5 -102t76 -38.5q57 0 82.5 45.5t25.5 138.5z" />
    <glyph glyph-name="iotadieresis" unicode="&#x3ca;" horiz-adv-x="565" 
d="M141 915h230v-768q0 -25 15.5 -38t33.5 -13q30 0 72 33l36 -70q-82 -82 -206 -82q-89 0 -135 51t-46 144v743zM-35 1229q0 54 37 90.5t90 36.5q55 0 91 -36.5t36 -90.5q0 -53 -36 -89t-91 -36q-53 0 -90 36.5t-37 88.5zM334 1229q0 54 36.5 90.5t90.5 36.5q53 0 90 -36.5
t37 -90.5q0 -52 -37 -88.5t-90 -36.5q-54 0 -90.5 36t-36.5 89z" />
    <glyph glyph-name="upsilondieresis" unicode="&#x3cb;" horiz-adv-x="1011" 
d="M479 -25q-91 0 -156 26t-100.5 72.5t-51 101.5t-15.5 122v530h-125v88h354v-618q0 -110 37 -170.5t104 -60.5q52 0 89.5 38.5t57 102.5t28 131t8.5 139q0 173 -41.5 272t-143.5 109l4 84q182 -21 295 -143t113 -318q0 -113 -36 -208.5t-97.5 -160t-145 -101t-178.5 -36.5
zM170 1229q0 54 37 90.5t90 36.5q55 0 91 -36.5t36 -90.5q0 -53 -36 -89t-91 -36q-53 0 -90 36.5t-37 88.5zM539 1229q0 54 36.5 90.5t90.5 36.5q53 0 90 -36.5t37 -90.5q0 -52 -37 -88.5t-90 -36.5q-54 0 -90.5 36t-36.5 89z" />
    <glyph glyph-name="omicrontonos" unicode="&#x3cc;" horiz-adv-x="1017" 
d="M508 63q100 0 147 93.5t47 240.5q0 117 -20 218t-65.5 170t-108.5 69q-50 0 -88.5 -27t-60.5 -73.5t-33 -104t-11 -123.5q0 -114 20 -216.5t65.5 -174.5t107.5 -72zM512 942q90 0 164.5 -28t122.5 -74t81 -107t47.5 -124t14.5 -128q0 -72 -17.5 -144t-54 -137t-87 -115
t-123 -80t-156.5 -30q-92 0 -166.5 28.5t-122.5 74t-80 107t-45.5 124.5t-13.5 129q0 75 16 146.5t51 137t85 114t123.5 77.5t160.5 29zM420 1067v317h192l-82 -317h-110z" />
    <glyph glyph-name="upsilontonos" unicode="&#x3cd;" horiz-adv-x="1011" 
d="M479 -25q-91 0 -156 26t-100.5 72.5t-51 101.5t-15.5 122v530h-125v88h354v-618q0 -110 37 -170.5t104 -60.5q52 0 89.5 38.5t57 102.5t28 131t8.5 139q0 173 -41.5 272t-143.5 109l4 84q182 -21 295 -143t113 -318q0 -113 -36 -208.5t-97.5 -160t-145 -101t-178.5 -36.5
zM383 1065v317h192l-81 -317h-111z" />
    <glyph glyph-name="omegatonos" unicode="&#x3ce;" horiz-adv-x="1368" 
d="M567 250v379l230 45v-424q0 -93 25.5 -138.5t82.5 -45.5q44 0 76 38.5t48.5 102t24 129.5t7.5 135q0 85 -9 150.5t-30 118.5t-58 83t-90 35l7 84q179 -20 293 -150t114 -321q0 -221 -104.5 -357.5t-268.5 -136.5q-76 0 -138.5 33.5t-94.5 87.5q-33 -54 -95 -87.5
t-138 -33.5q-164 0 -268.5 136.5t-104.5 357.5q0 191 114 321t293 150l6 -84q-102 -10 -144 -110t-42 -277q0 -69 7.5 -135t24 -129.5t48.5 -102t76 -38.5q57 0 82.5 45.5t25.5 138.5zM600 1065v317h193l-82 -317h-111z" />
    <glyph glyph-name="uni03D0" unicode="&#x3d0;" horiz-adv-x="1005" 
d="M340 1067v-696q0 -73 5 -122.5t18.5 -93t40.5 -64.5t69 -21q86 0 151.5 83.5t65.5 215.5q0 74 -27 135.5t-87 100t-142 34.5l-14 80q96 7 148.5 94.5t52.5 210.5q0 59 -13.5 104.5t-48 77t-88.5 31.5q-59 0 -95 -44.5t-36 -125.5zM119 399v578q0 154 94.5 250t259.5 96
q88 0 161.5 -27t120 -71t72 -98t25.5 -109q0 -107 -64.5 -185.5t-152.5 -109.5q118 -33 204.5 -129t86.5 -223q0 -177 -121 -283t-326 -106q-87 0 -152 22t-104 58t-63 91t-32.5 113t-8.5 133z" />
    <glyph glyph-name="uni0401" unicode="&#x401;" horiz-adv-x="1175" 
d="M221 100v1131h-174v96h1055v-373h-144l-104 277h-387v-471h215v139h123v-389h-123v141h-215v-551h405l103 273h143v-373h-1071v100h174zM303 1552q0 54 37 90.5t90 36.5q55 0 91 -36.5t36 -90.5q0 -53 -36 -89t-91 -36q-53 0 -90 36.5t-37 88.5zM672 1552q0 54 36.5 90.5
t90.5 36.5q53 0 90 -36.5t37 -90.5q0 -52 -37 -88.5t-90 -36.5q-54 0 -90.5 36t-36.5 89z" />
    <glyph glyph-name="uni0402" unicode="&#x402;" horiz-adv-x="1427" 
d="M41 954v373h1085v-373h-133l-104 277h-182v-455q86 86 223 86q95 0 163.5 -26t106 -73t54 -102t16.5 -122v-643q0 -86 -31 -153t-82.5 -105.5t-112 -58t-126.5 -19.5q-47 0 -84 8.5t-69.5 29t-48 33t-46.5 41.5l73 70q82 -82 160 -82q60 0 90.5 43.5t30.5 151.5v684
q0 225 -137 225q-70 0 -125 -47t-55 -135v-482h174v-100h-594v100h174v1131h-185l-102 -277h-133z" />
    <glyph glyph-name="uni0403" unicode="&#x403;" horiz-adv-x="1153" 
d="M43 1231v96h1069v-373h-133l-105 277h-413v-1131h174v-100h-594v100h174v1131h-172zM403 1427l297 340l134 -145l-297 -195h-134z" />
    <glyph glyph-name="uni0404" unicode="&#x404;" horiz-adv-x="1181" 
d="M676 92q131 0 220.5 70t117.5 215h106q-30 -190 -156 -295t-307 -105q-108 0 -198.5 27.5t-154.5 76t-112 111.5t-76 137.5t-41.5 150t-13.5 153.5q0 108 20 208.5t66 193.5t114 161t169.5 109t226.5 41q264 0 426 -166v-230h-176q-8 81 -34 141.5t-62 94t-74.5 49.5
t-79.5 16q-75 0 -134.5 -26.5t-98 -72t-63.5 -109.5t-35.5 -134.5t-10.5 -152.5h537v-107h-533q14 -149 58 -272.5t122.5 -204t176.5 -80.5z" />
    <glyph glyph-name="uni0405" unicode="&#x405;" horiz-adv-x="1009" 
d="M80 377h176q21 -163 79 -234t152 -71q98 0 158 62.5t60 162.5q0 103 -72 160q-23 18 -191.5 127.5t-195.5 128.5q-74 51 -123 127.5t-49 175.5q0 146 113.5 238t308.5 92q127 0 230.5 -38t166.5 -104v-252h-178q-8 88 -27 148t-49 93.5t-65 47.5t-82 14q-96 0 -141.5 -61
t-45.5 -150q0 -93 76 -147l98.5 -65.5l164 -108.5t112.5 -72q188 -116 188 -315q0 -155 -125.5 -257t-331.5 -102q-269 0 -407 150v250z" />
    <glyph glyph-name="uni0406" unicode="&#x406;" horiz-adv-x="716" 
d="M680 1231h-199v-1131h199v-100h-643v100h199v1131h-199v96h643v-96z" />
    <glyph glyph-name="uni0407" unicode="&#x407;" horiz-adv-x="716" 
d="M680 1231h-199v-1131h199v-100h-643v100h199v1131h-199v96h643v-96zM47 1550q0 54 37 90.5t90 36.5q55 0 91 -36.5t36 -90.5q0 -53 -36 -89t-91 -36q-53 0 -90 36.5t-37 88.5zM416 1550q0 54 36.5 90.5t90.5 36.5q53 0 90 -36.5t37 -90.5q0 -52 -37 -88.5t-90 -36.5
q-54 0 -90.5 36t-36.5 89z" />
    <glyph glyph-name="uni0408" unicode="&#x408;" horiz-adv-x="708" 
d="M678 1231h-201v-1337q0 -86 -28.5 -153.5t-77 -107t-106 -59.5t-120.5 -20q-73 0 -143.5 27.5t-116.5 70.5l74 74q84 -74 186 -74q43 0 65.5 34t22.5 99v1446h-196v96h641v-96z" />
    <glyph glyph-name="uni0409" unicode="&#x409;" horiz-adv-x="1865" 
d="M1278 1231h-176v-471h246q197 0 318.5 -103t121.5 -270q0 -169 -122 -278t-320 -109h-666v100h176v1131h-508v-981q0 -121 -65 -185.5t-179 -64.5h-55v100h41q73 0 106 34.5t33 111.5v985h-188v96h1237v-96zM1102 100h213q85 0 150 77.5t65 207.5q0 118 -63 192t-150 74
h-215v-551z" />
    <glyph glyph-name="uni040A" unicode="&#x40a;" horiz-adv-x="1970" 
d="M1206 1231v-471h246q197 0 318.5 -103t121.5 -270q0 -169 -122 -278t-320 -109h-666v100h177v549h-529v-549h137v-100h-522v100h139v1131h-139v96h522v-96h-137v-475h529v475h-177v96h598v-96h-176zM1206 100h213q85 0 150 77.5t65 207.5q0 118 -63 192t-150 74h-215
v-551z" />
    <glyph glyph-name="uni040B" unicode="&#x40b;" horiz-adv-x="1427" 
d="M41 954v373h1085v-373h-133l-104 277h-182v-455q86 86 223 86q95 0 164 -26t106.5 -73t54.5 -102t17 -122v-439h145v-100h-393v539q0 225 -137 225q-73 0 -125 -54t-55 -159v-451h174v-100h-594v100h174v1131h-185l-102 -277h-133z" />
    <glyph glyph-name="uni040C" unicode="&#x40c;" horiz-adv-x="1331" 
d="M512 666h-68v-566h144v-100h-541v100h152v1131h-148v96h537v-96h-144v-459h140l213 354q31 52 58 88t62 68t76 48t88 16q121 0 215 -101l-75 -78q-31 36 -61 56t-75 20q-50 0 -85 -28.5t-76 -96.5l-209 -346l463 -672h151v-100h-371zM481 1427l297 340l133 -145
l-297 -195h-133z" />
    <glyph glyph-name="uni040E" unicode="&#x40e;" horiz-adv-x="1224" 
d="M436 1231l242 -557l227 557h-151v96h471v-96h-195l-428 -1049q-45 -109 -104 -161t-154 -52q-129 0 -223 101l74 84q29 -32 68.5 -54t78.5 -22q93 0 139 112l80 199l-381 842h-176v96h574v-96h-142zM672 1442q-109 0 -183 63.5t-77 163.5h116q4 -65 44 -97t100 -32
t99.5 32t43.5 97h117q-3 -100 -77 -163.5t-183 -63.5z" />
    <glyph glyph-name="uni040F" unicode="&#x40f;" horiz-adv-x="1370" 
d="M1192 96h139v-96h-497l-95 -324h-100l-94 324h-512v96h139v1131h-139v100h522v-100h-137v-1121h526v1121h-135v100h522v-100h-139v-1131z" />
    <glyph glyph-name="uni0410" unicode="&#x410;" horiz-adv-x="1302" 
d="M1184 100h147v-100h-551v100h144l-138 377h-372l-131 -377h151v-100h-438v100h166l438 1227h141zM451 584h305l-154 436z" />
    <glyph glyph-name="uni0411" unicode="&#x411;" horiz-adv-x="1204" 
d="M463 100h213q85 0 150 77.5t65 207.5q0 118 -63 192t-150 74h-215v-551zM463 760h246q197 0 318.5 -103t121.5 -270q0 -169 -122 -278t-320 -109h-666v100h176v1131h-176v96h1046v-373h-133l-104 277h-387v-471z" />
    <glyph glyph-name="uni0412" unicode="&#x412;" horiz-adv-x="1210" 
d="M47 1327h664q161 0 265.5 -96t104.5 -236q0 -74 -45.5 -147.5t-117.5 -120.5q107 -41 172 -130.5t65 -209.5q0 -169 -122 -278t-320 -109h-666v100h176v1131h-176v96zM469 100h213q85 0 150 77.5t65 207.5q0 109 -61.5 187.5t-155.5 78.5h-211v-551zM469 760h186
q74 0 125 69t51 175q0 108 -50 167.5t-126 59.5h-186v-471z" />
    <glyph glyph-name="uni0413" unicode="&#x413;" horiz-adv-x="1153" 
d="M43 1231v96h1069v-373h-133l-105 277h-413v-1131h174v-100h-594v100h174v1131h-172z" />
    <glyph glyph-name="uni0414" unicode="&#x414;" horiz-adv-x="1386" 
d="M248 207l170 1024h-203v96h1116v-96h-139v-1131h139v-424h-112l-121 324h-854l-121 -324h-113v424h107q59 0 90 24t41 83zM944 100v1131h-403l-170 -1024q-12 -68 -41 -107h614z" />
    <glyph glyph-name="uni0415" unicode="&#x415;" horiz-adv-x="1175" 
d="M221 100v1131h-174v96h1055v-373h-144l-104 277h-387v-471h215v139h123v-389h-123v141h-215v-551h405l103 273h143v-373h-1071v100h174z" />
    <glyph glyph-name="uni0416" unicode="&#x416;" horiz-adv-x="2023" 
d="M1204 666h-47v-566h143v-100h-540v100h151v566h-47l-446 -666h-371v100h152l463 672l-207 346q-41 68 -76.5 96.5t-85.5 28.5q-45 0 -74.5 -19.5t-60.5 -56.5l-76 78q94 101 215 101q91 0 156.5 -56.5t128.5 -163.5l211 -354h118v459h-147v96h536v-96h-143v-459h119
l211 354q63 107 128.5 163.5t156.5 56.5q121 0 215 -101l-76 -78q-31 37 -60.5 56.5t-74.5 19.5q-50 0 -85.5 -28.5t-76.5 -96.5l-207 -346l463 -672h151v-100h-370z" />
    <glyph glyph-name="uni0417" unicode="&#x417;" horiz-adv-x="1015" 
d="M457 96q109 0 180.5 71.5t71.5 211.5q0 117 -63.5 189.5t-160.5 72.5h-77l-21 96q69 0 134.5 32t110 96t44.5 145q0 108 -52.5 176.5t-140.5 68.5q-92 0 -145.5 -68t-69.5 -235h-178v252q62 65 163.5 103.5t235.5 38.5q61 0 119.5 -11t114 -36.5t97.5 -62.5t67.5 -93.5
t25.5 -124.5q0 -93 -57.5 -172t-138.5 -115q85 -28 160 -123.5t75 -214.5q0 -94 -42 -173.5t-110.5 -130.5t-153.5 -79t-173 -28q-181 0 -307 104.5t-156 294.5h107q28 -145 118.5 -215t221.5 -70z" />
    <glyph glyph-name="uni0418" unicode="&#x418;" horiz-adv-x="1392" 
d="M958 100v828l-526 -684v-144h137v-100h-522v100h139v1131h-139v96h522v-96h-137v-813l526 686v127h-135v96h523v-96h-140v-1131h140v-100h-523v100h135z" />
    <glyph glyph-name="uni0419" unicode="&#x419;" horiz-adv-x="1392" 
d="M958 100v828l-526 -684v-144h137v-100h-522v100h139v1131h-139v96h522v-96h-137v-813l526 686v127h-135v96h523v-96h-140v-1131h140v-100h-523v100h135zM698 1440q-109 0 -183 63.5t-77 163.5h117q4 -65 43.5 -97t99.5 -32t100 32t44 97h116q-3 -100 -77 -163.5
t-183 -63.5z" />
    <glyph glyph-name="uni041A" unicode="&#x41a;" horiz-adv-x="1331" 
d="M512 666h-68v-566h144v-100h-541v100h152v1131h-148v96h537v-96h-144v-459h140l213 354q31 52 58 88t62 68t76 48t88 16q121 0 215 -101l-75 -78q-31 36 -61 56t-75 20q-50 0 -85 -28.5t-76 -96.5l-209 -346l463 -672h151v-100h-371z" />
    <glyph glyph-name="uni041B" unicode="&#x41b;" horiz-adv-x="1259" 
d="M1212 1231h-139v-1131h139v-100h-522v100h135v1131h-485v-981q0 -121 -65 -185.5t-179 -64.5h-55v100h41q73 0 106 34.5t33 111.5v985h-160v96h1151v-96z" />
    <glyph glyph-name="uni041C" unicode="&#x41c;" horiz-adv-x="1654" 
d="M1610 1229h-156v-1129h160v-100h-551v100h145v877l-368 -977h-127l-391 981v-881h151v-100h-426v100h160v1129h-160v98h395l398 -1001l381 1001h389v-98z" />
    <glyph glyph-name="uni041D" unicode="&#x41d;" horiz-adv-x="1392" 
d="M1346 1231h-140v-1131h140v-100h-523v100h135v549h-526v-549h137v-100h-522v100h139v1131h-139v96h522v-96h-137v-475h526v475h-135v96h523v-96z" />
    <glyph glyph-name="uni041E" unicode="&#x41e;" horiz-adv-x="1325" 
d="M662 1346q127 0 230.5 -38.5t170.5 -102t112.5 -148t65 -173.5t19.5 -182q0 -108 -20.5 -209.5t-67 -196t-114.5 -165t-170 -112.5t-226 -42q-108 0 -198.5 27t-154.5 75t-112 110t-76 136t-41.5 148.5t-13.5 151.5q0 108 21 209.5t67.5 195t114.5 163.5t169.5 111.5
t223.5 41.5zM1008 575q0 127 -21 245t-62 217t-110 158.5t-156 59.5q-92 0 -159.5 -39.5t-106 -110t-56.5 -156t-18 -189.5q-1 -127 19.5 -247t60.5 -220.5t108.5 -161.5t154.5 -61q94 0 163 39t108 110t57 159t18 197z" />
    <glyph glyph-name="uni041F" unicode="&#x41f;" horiz-adv-x="1392" 
d="M958 100v1131h-526v-1131h137v-100h-522v100h139v1131h-139v96h1299v-96h-140v-1131h140v-100h-523v100h135z" />
    <glyph glyph-name="uni0420" unicode="&#x420;" horiz-adv-x="1167" 
d="M47 1327h615q211 0 319.5 -99.5t108.5 -252.5q0 -158 -117 -264.5t-311 -106.5h-209v-504h157v-100h-563v100h158v1131h-158v96zM453 1231v-522h186q77 0 130.5 75t53.5 187q0 115 -50.5 187.5t-133.5 72.5h-186z" />
    <glyph glyph-name="uni0421" unicode="&#x421;" horiz-adv-x="1181" 
d="M676 92q131 0 220.5 70t117.5 215h106q-30 -190 -156 -295t-307 -105q-108 0 -198.5 27.5t-154.5 76t-112 111.5t-76 137.5t-41.5 150t-13.5 153.5q0 108 20 208.5t66 193.5t114 161t169.5 109t226.5 41q264 0 426 -166v-230h-176q-8 81 -34 141.5t-62 94t-74.5 49.5
t-79.5 16q-75 0 -134.5 -26.5t-98 -72t-63.5 -109.5t-35.5 -134.5t-10.5 -152.5q0 -122 24.5 -239.5t69.5 -213t114.5 -153.5t152.5 -58z" />
    <glyph glyph-name="uni0422" unicode="&#x422;" horiz-adv-x="1165" 
d="M39 954v373h1085v-373h-133l-104 277h-182v-1131h174v-100h-594v100h174v1131h-185l-102 -277h-133z" />
    <glyph glyph-name="uni0423" unicode="&#x423;" horiz-adv-x="1224" 
d="M436 1231l242 -557l227 557h-151v96h471v-96h-195l-428 -1049q-45 -109 -104 -161t-154 -52q-129 0 -223 101l74 84q29 -32 68.5 -54t78.5 -22q93 0 139 112l80 199l-381 842h-176v96h574v-96h-142z" />
    <glyph glyph-name="uni0424" unicode="&#x424;" horiz-adv-x="1468" 
d="M1057 1231h-199v-62q95 -8 176.5 -30t150.5 -62.5t117.5 -96.5t75.5 -133.5t27 -172.5q0 -118 -41 -210t-116 -151t-172.5 -92.5t-217.5 -42.5v-78h199v-100h-641v100h196v78q-120 9 -218 42.5t-173 92.5t-116.5 151t-41.5 210q0 95 27 173t75.5 134t118 96t151 62
t177.5 30v62h-196v96h641v-96zM317 674q0 -194 74.5 -293.5t220.5 -120.5v830q-146 -23 -220.5 -122t-74.5 -294zM1151 674q0 193 -75 293t-218 123v-830q145 22 219 122t74 292z" />
    <glyph glyph-name="uni0425" unicode="&#x425;" horiz-adv-x="1388" 
d="M1208 100h174v-100h-632v100h168l-275 435l-301 -435h180v-100h-522v100h201l372 539l-376 592h-177v96h605v-96h-138l236 -377l260 377h-174v96h489v-96h-182l-323 -486z" />
    <glyph glyph-name="uni0426" unicode="&#x426;" horiz-adv-x="1390" 
d="M958 96v1135h-135v96h523v-96h-140v-1135h140v-420h-113l-121 324h-1065v96h139v1135h-139v96h522v-96h-137v-1135h526z" />
    <glyph glyph-name="uni0427" unicode="&#x427;" horiz-adv-x="1255" 
d="M172 1231h-139v96h510v-96h-137v-305q0 -142 53 -206.5t174 -64.5h188v576h-135v96h522v-96h-139v-1131h139v-100h-522v100h135v459h-180q-132 0 -237.5 43.5t-168.5 127.5t-63 196v305z" />
    <glyph glyph-name="uni0428" unicode="&#x428;" horiz-adv-x="1792" 
d="M772 100v1131h-123v96h500v-96h-129v-1131h338v1131h-121v96h508v-96h-139v-1131h139v-100h-1698v100h139v1131h-139v96h514v-96h-129v-1131h340z" />
    <glyph glyph-name="uni0429" unicode="&#x429;" horiz-adv-x="1792" 
d="M772 100v1131h-123v96h500v-96h-129v-1131h338v1131h-121v96h508v-96h-139v-1131h139v-424h-113l-121 324h-1464v100h139v1131h-139v96h514v-96h-129v-1131h340z" />
    <glyph glyph-name="uni042A" unicode="&#x42a;" horiz-adv-x="1529" 
d="M766 100h213q85 0 150 77.5t65 207.5q0 118 -63 192t-150 74h-215v-551zM766 1231v-471h246q197 0 318.5 -103t121.5 -270q0 -169 -122 -278t-320 -109h-666v100h176v1131h-244l-104 -277h-133v373h903v-96h-176z" />
    <glyph glyph-name="uni042B" unicode="&#x42b;" horiz-adv-x="1857" 
d="M1810 1231h-198v-1131h198v-100h-643v100h199v1131h-199v96h643v-96zM469 100h213q85 0 150 77.5t65 207.5q0 118 -63 192t-150 74h-215v-551zM469 1231v-471h246q197 0 318.5 -103t121.5 -270q0 -169 -122 -278t-320 -109h-666v100h176v1131h-176v96h598v-96h-176z" />
    <glyph glyph-name="uni042C" unicode="&#x42c;" horiz-adv-x="1232" 
d="M469 100h213q85 0 150 77.5t65 207.5q0 118 -63 192t-150 74h-215v-551zM469 1231v-471h246q197 0 318.5 -103t121.5 -270q0 -169 -122 -278t-320 -109h-666v100h176v1131h-176v96h598v-96h-176z" />
    <glyph glyph-name="uni042D" unicode="&#x42d;" horiz-adv-x="1181" 
d="M506 92q95 0 166 36t114 101.5t63.5 152t20.5 193.5v74h-575v107h567q-11 102 -36.5 188t-65.5 156.5t-100.5 110.5t-135.5 40q-41 0 -79.5 -16t-74.5 -49.5t-62 -94t-34 -141.5h-176v230q162 166 426 166q127 0 230.5 -38.5t170.5 -102t112.5 -148t65 -173.5t19.5 -182
q0 -108 -20.5 -209.5t-67 -196t-114.5 -165t-170 -112.5t-226 -42q-181 0 -307 105t-156 295h107q28 -145 117.5 -215t220.5 -70z" />
    <glyph glyph-name="uni042E" unicode="&#x42e;" horiz-adv-x="1974" 
d="M1311 1346q127 0 230.5 -38.5t170.5 -102t112.5 -148t65 -173.5t19.5 -182q0 -108 -20.5 -209.5t-67 -196t-114.5 -165t-170 -112.5t-226 -42q-108 0 -198.5 27t-154.5 75t-112 110t-76 136t-41.5 148.5t-13.5 151.5v20h-230v-545h199v-100h-643v100h199v1131h-199v96
h643v-96h-199v-479h238q14 119 56 223t112 188.5t178 133.5t242 49zM1657 575q0 127 -21 245t-61.5 217t-109.5 158.5t-156 59.5q-92 0 -159.5 -39.5t-106 -110t-56.5 -156t-18 -189.5q-1 -127 19.5 -246.5t60.5 -220.5t108 -162t154 -61q94 0 163 39t108 110t57 159t18 197
z" />
    <glyph glyph-name="uni042F" unicode="&#x42f;" horiz-adv-x="1261" 
d="M690 604l-379 -604h-374v100h155l342 533q-122 35 -190 126t-68 216q0 153 108 252.5t322 99.5h608v-98h-155v-1129h155v-100h-557v100h156v504h-123zM813 709v520h-190q-80 0 -131.5 -72t-51.5 -186q0 -113 54 -187.5t129 -74.5h190z" />
    <glyph glyph-name="uni0430" unicode="&#x430;" horiz-adv-x="983" 
d="M344 621h-233q-3 39 10.5 88t32.5 79q93 148 319 148q344 0 344 -313v-476q0 -25 15.5 -38t35.5 -13q13 0 34.5 10.5t35.5 22.5l37 -70q-82 -82 -207 -82q-56 0 -101 23.5t-63 48.5q-46 -29 -66.5 -40t-65.5 -22.5t-103 -11.5q-55 0 -104.5 13t-91.5 39.5t-66.5 72
t-24.5 105.5q0 92 56.5 149t174.5 97l273 90v82q0 118 -26 172.5t-97 54.5q-64 0 -98.5 -44t-28.5 -106zM586 152v294l-154 -53q-53 -18 -83 -58.5t-30 -98.5q0 -61 35.5 -104.5t89.5 -43.5q40 0 69.5 14t72.5 50z" />
    <glyph glyph-name="uni0431" unicode="&#x431;" horiz-adv-x="1056" 
d="M854 1171h-369q-70 0 -127.5 -49.5t-92 -127t-53 -166t-17.5 -173.5q19 47 38 84t50.5 76.5t68 66t89.5 43.5t116 17q90 0 163.5 -28.5t121 -74t80 -107t46 -124t13.5 -127.5q0 -73 -16.5 -144t-51.5 -137t-84.5 -115.5t-120.5 -79.5t-155 -30q-232 0 -354.5 160.5
t-122.5 474.5q0 141 34 272.5t95.5 235t157.5 166t210 62.5h310zM338 526q0 -463 219 -463q184 0 184 334q0 114 -24.5 217t-73.5 171.5t-113 68.5q-66 0 -111 -48t-63 -119t-18 -161z" />
    <glyph glyph-name="uni0432" unicode="&#x432;" horiz-adv-x="1069" 
d="M45 915h573q141 0 227.5 -67.5t86.5 -165.5q0 -106 -131 -180q88 -29 139 -85.5t51 -140.5q0 -119 -100.5 -197.5t-269.5 -78.5h-576v88h141v741h-141v86zM414 88h170q70 0 121 49t51 137q0 74 -48 120t-126 46h-168v-352zM414 532h149q61 0 100 37.5t39 108.5
q0 73 -41 112t-98 39h-149v-297z" />
    <glyph glyph-name="uni0433" unicode="&#x433;" horiz-adv-x="940" 
d="M49 829v86h866v-299h-100l-92 213h-309v-741h139v-88h-506v88h139v741h-137z" />
    <glyph glyph-name="uni0434" unicode="&#x434;" horiz-adv-x="1134" 
d="M225 168l99 661h-127v86h872v-86h-111v-741h111v-328h-100l-103 240h-626l-105 -240h-102v328h86q94 0 106 80zM729 88v741h-291l-100 -667q-7 -57 -35 -74h426z" />
    <glyph glyph-name="uni0435" unicode="&#x435;" horiz-adv-x="970" 
d="M551 104q98 0 164 55t90 152h88q-25 -141 -126.5 -237.5t-262.5 -96.5q-87 0 -158 26t-120.5 71t-83 106.5t-49 132.5t-15.5 150q0 202 119.5 339.5t312.5 137.5q182 0 283.5 -110t101.5 -298l-2 -51h-592q3 -94 35 -179.5t89 -141.5t126 -56zM498 852q-92 0 -140.5 -78
t-56.5 -201h361q0 57 -8.5 104.5t-26.5 88t-51 63.5t-78 23z" />
    <glyph glyph-name="uni0436" unicode="&#x436;" horiz-adv-x="1640" 
d="M1298 758l-133 -207h2l346 -463h117v-88h-311l-336 459h-49v-371h121v-88h-463v88h115v371h-52l-333 -459h-312v88h115l348 463h2l-133 207q-55 86 -127 86q-58 0 -111 -53l-61 67q77 70 178 70q67 0 116 -31t91 -96l164 -250h115v280h-115v84h461v-84h-119v-280h115
l163 250q42 65 91 96t116 31q101 0 178 -70l-61 -67q-53 53 -111 53q-72 0 -127 -86z" />
    <glyph glyph-name="uni0437" unicode="&#x437;" horiz-adv-x="923" 
d="M274 639h-163v186q49 49 145 83t195 34q97 0 179 -29t134.5 -87t52.5 -134q0 -46 -19.5 -86t-50 -65t-60.5 -40.5t-56 -21.5q29 -6 61 -21.5t69 -42t61 -71t24 -98.5q0 -120 -113 -194.5t-282 -74.5q-158 0 -266 97.5t-134 236.5l90 2q23 -90 100.5 -147t176.5 -57
q188 0 188 163q0 79 -42.5 120.5t-125.5 41.5h-24v86q78 0 133 45.5t55 134.5q0 68 -39 110t-108 42q-73 0 -123 -49.5t-58 -163.5z" />
    <glyph glyph-name="uni0438" unicode="&#x438;" horiz-adv-x="1132" 
d="M745 88v516l-358 -403v-113h109v-88h-449v88h113v741h-113v86h449v-86h-109v-493l358 401v92h-106v86h446v-86h-112v-741h112v-88h-446v88h106z" />
    <glyph glyph-name="uni0439" unicode="&#x439;" horiz-adv-x="1132" 
d="M745 88v516l-358 -403v-113h109v-88h-449v88h113v741h-113v86h449v-86h-109v-493l358 401v92h-106v86h446v-86h-112v-741h112v-88h-446v88h106zM567 1065q-109 0 -183 63.5t-77 163.5h117q4 -65 43.5 -97t99.5 -32t100 32t44 97h116q-3 -100 -77 -163.5t-183 -63.5z" />
    <glyph glyph-name="uni043A" unicode="&#x43a;" horiz-adv-x="1101" 
d="M760 758l-133 -207h2l346 -463h117v-88h-312l-336 459h-49v-371h115v-88h-463v88h121v743h-119v84h461v-84h-115v-280h111l164 250q90 141 211 141q54 0 94.5 -21.5t83.5 -60.5l-66 -74q-20 20 -29 28t-30.5 18t-46.5 10q-73 0 -127 -84z" />
    <glyph glyph-name="uni043B" unicode="&#x43b;" horiz-adv-x="999" 
d="M952 829h-110v-741h110v-88h-448v88h108v741h-315v-655q0 -83 -59.5 -128.5t-153.5 -45.5h-43v88h33q58 0 84 23.5t26 76.5v641h-129v86h897v-86z" />
    <glyph glyph-name="uni043C" unicode="&#x43c;" horiz-adv-x="1359" 
d="M569 0l-293 662v-574h125v-88h-354v88h129v739h-129v88h348l289 -657l272 657h355v-88h-125v-739h127v-88h-471v88h116v586l-274 -674h-115z" />
    <glyph glyph-name="uni043D" unicode="&#x43d;" horiz-adv-x="1132" 
d="M1085 829h-112v-741h112v-88h-446v88h106v352h-358v-352h109v-88h-449v88h113v741h-113v86h449v-86h-109v-299h358v299h-106v86h446v-86z" />
    <glyph glyph-name="uni043E" unicode="&#x43e;" horiz-adv-x="1017" 
d="M508 63q100 0 147 93.5t47 240.5q0 117 -20 218t-65.5 170t-108.5 69q-50 0 -88.5 -27t-60.5 -73.5t-33 -104t-11 -123.5q0 -114 20 -216.5t65.5 -174.5t107.5 -72zM512 942q90 0 164.5 -28t122.5 -74t81 -107t47.5 -124t14.5 -128q0 -72 -17.5 -144t-54 -137t-87 -115
t-123 -80t-156.5 -30q-92 0 -166.5 28.5t-122.5 74t-80 107t-45.5 124.5t-13.5 129q0 75 16 146.5t51 137t85 114t123.5 77.5t160.5 29z" />
    <glyph glyph-name="uni043F" unicode="&#x43f;" horiz-adv-x="1134" 
d="M745 88v741h-358v-741h109v-88h-449v88h113v741h-113v86h1040v-86h-114v-741h114v-88h-448v88h106z" />
    <glyph glyph-name="uni0440" unicode="&#x440;" horiz-adv-x="1071" 
d="M362 55v-389h140v-86h-512v86h143v1249h229v-55q36 37 98.5 59.5t135.5 22.5q118 0 211 -64.5t140.5 -165.5t47.5 -216q0 -95 -26 -185.5t-76 -166.5t-133.5 -122.5t-188.5 -46.5q-112 0 -209 80zM362 287q0 -95 61.5 -152t145.5 -57q68 0 112.5 45t61.5 114t17 162
q0 89 -12 166.5t-35.5 140t-63 98.5t-90.5 36q-81 0 -139 -56t-58 -168v-329z" />
    <glyph glyph-name="uni0441" unicode="&#x441;" horiz-adv-x="942" 
d="M500 -23q-188 0 -305 130.5t-117 336.5q0 75 17.5 147t53.5 135.5t86 111.5t120.5 76t152.5 28q83 0 150.5 -24.5t109.5 -64t65.5 -84t28.5 -89.5h-223q-5 72 -42.5 122t-98.5 50q-69 0 -114.5 -48t-63 -119t-17.5 -163q0 -73 15 -143.5t44 -131t79 -97.5t112 -37
q94 0 156 53.5t86 146.5l90 -2q-27 -142 -126 -238t-259 -96z" />
    <glyph glyph-name="uni0442" unicode="&#x442;" horiz-adv-x="974" 
d="M37 915h901v-299h-100l-93 213h-145v-741h139v-88h-506v88h140v741h-146l-90 -213h-100v299z" />
    <glyph glyph-name="uni0443" unicode="&#x443;" horiz-adv-x="999" 
d="M887 827l-400 -1056q-80 -213 -254 -213q-62 0 -114 26t-107 74l74 84q81 -76 147 -76q89 0 132 105l84 213l-349 843h-118v88h493v-88h-129l217 -536l201 536h-135v88h389v-88h-131z" />
    <glyph glyph-name="uni0444" unicode="&#x444;" horiz-adv-x="1601" 
d="M913 1411v-551q79 82 224 82q118 0 208.5 -65t135.5 -165t45 -216q0 -76 -15 -149t-47.5 -140.5t-79.5 -119t-117.5 -82t-154.5 -30.5q-102 0 -199 80v-389h140v-86h-512v86h143v389q-85 -78 -203 -78q-74 0 -136 18.5t-105.5 51.5t-76 75t-51 93.5t-27.5 103t-9 105.5
q0 99 24 190t70 165t121 118.5t168 44.5q124 0 225 -84v442h-141v84zM913 287q0 -96 57 -152.5t140 -56.5q65 0 106.5 45t57.5 113.5t16 162.5q0 120 -19.5 217t-63.5 160.5t-107 63.5q-78 0 -132.5 -52.5t-54.5 -158.5v-342zM502 80q78 0 128.5 51t53.5 154v329
q0 112 -55 169t-131 57q-91 0 -137 -92.5t-46 -229.5q-1 -82 10 -158.5t33 -140t59.5 -101.5t84.5 -38z" />
    <glyph glyph-name="uni0445" unicode="&#x445;" horiz-adv-x="1046" 
d="M651 90l-176 258l-190 -258h110v-90h-377v90h127l265 354l-258 383h-115v88h461v-88h-92l149 -219l160 219h-103v88h357v-88h-121l-230 -311l293 -426h125v-90h-506v90h121z" />
    <glyph glyph-name="uni0446" unicode="&#x446;" horiz-adv-x="1134" 
d="M745 86v741h-106v88h448v-88h-112v-741h112v-326h-100l-102 240h-838v86h113v741h-113v88h449v-88h-109v-741h358z" />
    <glyph glyph-name="uni0447" unicode="&#x447;" horiz-adv-x="1081" 
d="M1036 829h-112v-741h112v-88h-448v88h106v289h-166q-160 0 -267 73t-107 189v190h-121v86h338v-276q0 -96 42.5 -138t139.5 -42h141v370h-106v86h448v-86z" />
    <glyph glyph-name="uni0448" unicode="&#x448;" horiz-adv-x="1546" 
d="M659 88v741h-98v86h430v-86h-102v-741h270v741h-96v86h436v-86h-110v-741h110v-88h-1452v88h111v741h-111v86h445v-86h-105v-741h272z" />
    <glyph glyph-name="uni0449" unicode="&#x449;" horiz-adv-x="1556" 
d="M659 88v741h-98v86h430v-86h-102v-741h270v741h-96v86h436v-86h-110v-741h110v-328h-100l-103 240h-1249v88h111v741h-111v86h445v-86h-105v-741h272z" />
    <glyph glyph-name="uni044A" unicode="&#x44a;" horiz-adv-x="1222" 
d="M612 532h215q163 0 263 -73t100 -185q0 -119 -101 -196.5t-270 -77.5h-575v88h141v741h-164l-82 -190h-106v276h721v-86h-142v-297zM612 88h170q70 0 121 49t51 137q0 74 -48 120t-126 46h-168v-352z" />
    <glyph glyph-name="uni044B" unicode="&#x44b;" horiz-adv-x="1630" 
d="M1583 829h-160v-741h160v-88h-547v88h160v741h-160v86h547v-86zM414 88h170q70 0 121 49t51 137q0 74 -48 120t-126 46h-168v-352zM414 532h215q163 0 262.5 -73t99.5 -185q0 -119 -100.5 -196.5t-269.5 -77.5h-576v88h141v741h-141v86h510v-86h-141v-297z" />
    <glyph glyph-name="uni044C" unicode="&#x44c;" horiz-adv-x="1024" 
d="M414 88h170q70 0 121 49t51 137q0 74 -48 120t-126 46h-168v-352zM414 532h215q163 0 262.5 -73t99.5 -185q0 -119 -100.5 -196.5t-269.5 -77.5h-576v88h141v741h-141v86h510v-86h-141v-297z" />
    <glyph glyph-name="uni044D" unicode="&#x44d;" horiz-adv-x="940" 
d="M258 639h-164v186q49 49 145 83t195 34q90 0 164.5 -28t122.5 -74t81 -107t47.5 -124t14.5 -128q0 -71 -16.5 -142t-52 -136.5t-84.5 -116.5t-118.5 -81t-150.5 -30q-82 0 -150.5 27.5t-115 75.5t-76.5 107t-43 126l90 2q25 -97 87.5 -159t154.5 -62q118 0 177 82.5
t59 222.5q0 29 -2 43h-318v95h311q-17 139 -62.5 228t-119.5 89q-70 0 -119 -49.5t-57 -163.5z" />
    <glyph glyph-name="uni044E" unicode="&#x44e;" horiz-adv-x="1576" 
d="M1071 942q90 0 164.5 -28t122.5 -74t81 -107t47.5 -124t14.5 -128q0 -72 -17.5 -144t-54 -137t-87 -115t-123 -80t-156.5 -30q-92 0 -166 28t-122 73.5t-80.5 106t-46 123t-13.5 128.5h-221v-346h139v-88h-506v88h139v741h-139v86h506v-86h-139v-303h227q11 83 42.5 156
t83 132t130 93.5t174.5 34.5zM1067 63q68 0 113.5 47.5t63.5 120t18 166.5q0 117 -20 218t-66 170t-109 69q-50 0 -88.5 -27t-60.5 -73.5t-33 -104t-11 -123.5q0 -114 20 -216.5t65.5 -174.5t107.5 -72z" />
    <glyph glyph-name="uni044F" unicode="&#x44f;" horiz-adv-x="1089" 
d="M692 410h-92l-278 -410h-312v88h113l242 342q-96 30 -154.5 90.5t-58.5 151.5q0 105 90.5 174t263.5 69h538v-88h-124v-739h124v-88h-477v88h125v322zM692 500v327h-151q-66 0 -107 -41t-41 -118q0 -76 42.5 -122t103.5 -46h153z" />
    <glyph glyph-name="uni0451" unicode="&#x451;" horiz-adv-x="970" 
d="M551 104q98 0 164 55t90 152h88q-25 -141 -126.5 -237.5t-262.5 -96.5q-87 0 -158 26t-120.5 71t-83 106.5t-49 132.5t-15.5 150q0 202 119.5 339.5t312.5 137.5q182 0 283.5 -110t101.5 -298l-2 -51h-592q3 -94 35 -179.5t89 -141.5t126 -56zM498 852q-92 0 -140.5 -78
t-56.5 -201h361q0 57 -8.5 104.5t-26.5 88t-51 63.5t-78 23zM195 1229q0 54 37 90.5t90 36.5q55 0 91 -36.5t36 -90.5q0 -53 -36 -89t-91 -36q-53 0 -90 36.5t-37 88.5zM563 1229q0 54 36.5 90.5t90.5 36.5q53 0 90 -36.5t37 -90.5q0 -52 -37 -88.5t-90 -36.5
q-54 0 -90.5 36t-36.5 89z" />
    <glyph glyph-name="uni0452" unicode="&#x452;" horiz-adv-x="1054" 
d="M395 1411v-242h219v-88h-219v-225q86 86 223 86q77 0 135 -18t93.5 -47.5t57.5 -72.5t30 -87.5t8 -98.5v-722q0 -87 -28.5 -153.5t-77 -105t-107 -58t-123.5 -19.5q-47 0 -84 8.5t-69.5 29t-48 33t-46.5 41.5l74 70q82 -82 160 -82q60 0 90.5 43.5t30.5 151.5v763
q0 226 -138 226q-75 0 -127.5 -56t-52.5 -167v-533h123v-88h-477v88h127v993h-141v88h141v134h-143v81z" />
    <glyph glyph-name="uni0453" unicode="&#x453;" horiz-adv-x="937" 
d="M47 829v86h866v-299h-100l-92 213h-309v-741h139v-88h-506v88h139v741h-137zM260 1042l297 340l133 -145l-297 -195h-133z" />
    <glyph glyph-name="uni0454" unicode="&#x454;" horiz-adv-x="942" 
d="M500 -23q-188 0 -305 130.5t-117 336.5q0 75 17.5 147t53.5 135.5t86 111.5t120.5 76t152.5 28q83 0 150.5 -24.5t109.5 -64t65.5 -84t28.5 -89.5h-223q-5 72 -42.5 122t-98.5 50q-68 0 -113 -46t-63 -114t-19 -157h344v-95h-340q8 -65 26.5 -121.5t47.5 -103.5
t73.5 -74.5t98.5 -27.5q94 0 156 53.5t86 146.5l90 -2q-27 -142 -126 -238t-259 -96z" />
    <glyph glyph-name="uni0455" unicode="&#x455;" horiz-adv-x="874" 
d="M76 322h155q0 -134 56.5 -194t142.5 -60q67 0 105 37t38 92q0 72 -65 112q-2 2 -275 160q-145 85 -145 227q0 103 94.5 171.5t249.5 68.5q99 0 194.5 -31.5t143.5 -79.5v-231h-162q0 254 -178 254q-64 0 -95.5 -36t-31.5 -81q0 -39 15 -62.5t47 -43.5q23 -14 272 -152
q156 -86 156 -240q0 -110 -100 -183t-263 -73q-120 0 -215 32.5t-139 80.5v232z" />
    <glyph glyph-name="uni0456" unicode="&#x456;" horiz-adv-x="624" 
d="M203 88v739h-144v84l373 25v-848h160v-88h-547v88h158zM176 1208q0 59 40 100.5t101 41.5t101.5 -41.5t40.5 -100.5q0 -60 -40.5 -100.5t-101.5 -40.5t-101 40.5t-40 100.5z" />
    <glyph glyph-name="uni0457" unicode="&#x457;" horiz-adv-x="624" 
d="M203 88v739h-144v84l373 25v-848h160v-88h-547v88h158zM0 1229q0 54 37 90.5t90 36.5q55 0 91 -36.5t36 -90.5q0 -53 -36 -89t-91 -36q-53 0 -90 36.5t-37 88.5zM369 1229q0 54 36.5 90.5t90.5 36.5q53 0 90 -36.5t37 -90.5q0 -52 -37 -88.5t-90 -36.5q-54 0 -90.5 36
t-36.5 89z" />
    <glyph glyph-name="uni0458" unicode="&#x458;" horiz-adv-x="559" 
d="M408 936v-1040q0 -87 -28.5 -153.5t-77 -105t-107 -58t-123.5 -19.5q-47 0 -84 8.5t-69.5 29t-48 33t-46.5 41.5l74 70q82 -82 159 -82q60 0 91.5 43.5t31.5 151.5v972h-147v84zM143 1208q0 59 40.5 100.5t101.5 41.5t101 -41.5t40 -100.5q0 -60 -40 -100.5t-101 -40.5
t-101.5 40.5t-40.5 100.5z" />
    <glyph glyph-name="uni0459" unicode="&#x459;" horiz-adv-x="1488" 
d="M879 532h215q163 0 262.5 -73t99.5 -185q0 -119 -101 -196.5t-270 -77.5h-575v88h141v741h-350v-655q0 -83 -59.5 -128.5t-153.5 -45.5h-43v88h33q58 0 84 23.5t26 76.5v641h-143v86h975v-86h-141v-297zM879 88h170q70 0 121 49t51 137q0 74 -48 120t-126 46h-168v-352z
" />
    <glyph glyph-name="uni045A" unicode="&#x45a;" horiz-adv-x="1583" 
d="M973 532h215q163 0 262.5 -73t99.5 -185q0 -119 -100.5 -196.5t-269.5 -77.5h-576v88h139v352h-358v-352h109v-88h-449v88h113v741h-113v86h449v-86h-109v-299h358v299h-139v86h510v-86h-141v-297zM973 88h170q70 0 121 49t51 137q0 74 -48 120t-126 46h-168v-352z" />
    <glyph glyph-name="uni045B" unicode="&#x45b;" 
d="M395 1411v-242h219v-88h-219v-225q86 86 223 86q77 0 135 -18t93.5 -47.5t57.5 -72.5t30 -87.5t8 -98.5v-530h125v-88h-481v88h127v530q0 226 -138 226q-75 0 -127.5 -56t-52.5 -167v-533h123v-88h-477v88h127v993h-141v88h141v134h-143v81z" />
    <glyph glyph-name="uni045C" unicode="&#x45c;" horiz-adv-x="1099" 
d="M758 758l-133 -207h2l346 -463h117v-88h-312l-336 459h-49v-371h115v-88h-463v88h121v743h-119v84h461v-84h-115v-280h111l164 250q90 141 211 141q54 0 94.5 -21.5t83.5 -60.5l-66 -74q-20 20 -29 28t-30.5 18t-46.5 10q-73 0 -127 -84zM338 1040l297 340l133 -145
l-297 -195h-133z" />
    <glyph glyph-name="uni045E" unicode="&#x45e;" horiz-adv-x="999" 
d="M887 827l-400 -1056q-80 -213 -254 -213q-62 0 -114 26t-107 74l74 84q81 -76 147 -76q89 0 132 105l84 213l-349 843h-118v88h493v-88h-129l217 -536l201 536h-135v88h389v-88h-131zM565 1067q-109 0 -183 63.5t-77 163.5h117q4 -65 43.5 -97t99.5 -32t100 32t44 97h116
q-3 -100 -77 -163.5t-183 -63.5z" />
    <glyph glyph-name="uni045F" unicode="&#x45f;" horiz-adv-x="1130" 
d="M743 86v741h-106v88h448v-88h-112v-741h112v-86h-395l-74 -240h-100l-74 240h-397v86h113v741h-113v88h449v-88h-109v-741h358z" />
    <glyph glyph-name="uni0490" unicode="&#x490;" horiz-adv-x="1159" 
d="M1118 1231h-651v-1131h174v-100h-594v100h174v1131h-172v96h832l104 277h133v-373z" />
    <glyph glyph-name="uni0491" unicode="&#x491;" horiz-adv-x="927" 
d="M903 829h-491v-741h139v-88h-506v88h139v741h-137v86h664l92 215h100v-301z" />
    <glyph glyph-name="uni04D9" unicode="&#x4d9;" horiz-adv-x="970" 
d="M422 809q-98 0 -164 -56t-90 -153l-88 2q25 141 126.5 237.5t262.5 96.5q108 0 191.5 -39t133.5 -107t75.5 -154t25.5 -185q0 -202 -119.5 -340t-312.5 -138q-170 0 -269 95t-114 262q-3 50 0 102h592q-3 94 -35 179.5t-89 141.5t-126 56zM475 61q92 0 140.5 78t56.5 201
h-361q0 -57 8.5 -104.5t26.5 -88t51 -63.5t78 -23z" />
    <glyph glyph-name="Wgrave" unicode="&#x1e80;" horiz-adv-x="1939" 
d="M1456 1327h512v-96h-188l-381 -1231h-139l-297 918l-265 -918h-141l-397 1231h-176v96h587v-96h-159l270 -862l274 950h131l304 -954l266 866h-201v96zM907 1765l297 -340h-133l-297 195z" />
    <glyph glyph-name="wgrave" unicode="&#x1e81;" horiz-adv-x="1488" 
d="M1507 915v-88h-139l-262 -827h-131l-230 553l-200 -553h-133l-303 827h-127v88h503v-88h-137l182 -530l224 618h88l250 -630l159 542h-147v88h403zM674 1380l297 -340h-133l-297 195z" />
    <glyph glyph-name="Wacute" unicode="&#x1e82;" horiz-adv-x="1939" 
d="M1456 1327h512v-96h-188l-381 -1231h-139l-297 918l-265 -918h-141l-397 1231h-176v96h587v-96h-159l270 -862l274 950h131l304 -954l266 866h-201v96zM815 1427l297 340l133 -145l-297 -195h-133z" />
    <glyph glyph-name="wacute" unicode="&#x1e83;" horiz-adv-x="1488" 
d="M1507 915v-88h-139l-262 -827h-131l-230 553l-200 -553h-133l-303 827h-127v88h503v-88h-137l182 -530l224 618h88l250 -630l159 542h-147v88h403zM571 1040l297 340l133 -145l-296 -195h-134z" />
    <glyph glyph-name="Wdieresis" unicode="&#x1e84;" horiz-adv-x="1939" 
d="M1456 1327h512v-96h-188l-381 -1231h-139l-297 918l-265 -918h-141l-397 1231h-176v96h587v-96h-159l270 -862l274 950h131l304 -954l266 866h-201v96zM709 1552q0 54 37 90.5t90 36.5q55 0 91 -36.5t36 -90.5q0 -53 -36 -89t-91 -36q-53 0 -90 36.5t-37 88.5zM1077 1552
q0 54 36.5 90.5t90.5 36.5q53 0 90 -36.5t37 -90.5q0 -52 -37 -88.5t-90 -36.5q-54 0 -90.5 36t-36.5 89z" />
    <glyph glyph-name="wdieresis" unicode="&#x1e85;" horiz-adv-x="1488" 
d="M1507 915v-88h-139l-262 -827h-131l-230 553l-200 -553h-133l-303 827h-127v88h503v-88h-137l182 -530l224 618h88l250 -630l159 542h-147v88h403zM485 1231q0 54 37 90.5t90 36.5q55 0 91 -36.5t36 -90.5q0 -53 -36 -89t-91 -36q-53 0 -90 36.5t-37 88.5zM854 1231
q0 54 36.5 90.5t90.5 36.5q53 0 90 -36.5t37 -90.5q0 -52 -37 -88.5t-90 -36.5q-54 0 -90.5 36t-36.5 89z" />
    <glyph glyph-name="Ygrave" unicode="&#x1ef2;" horiz-adv-x="1224" 
d="M492 561l-330 670h-170v96h579v-96h-147l246 -510l262 510h-172v96h471v-96h-180l-316 -621v-510h199v-100h-639v100h197v461zM580 1767l297 -340h-134l-297 195z" />
    <glyph glyph-name="ygrave" unicode="&#x1ef3;" horiz-adv-x="999" 
d="M887 827l-400 -1056q-80 -213 -254 -213q-62 0 -114 26t-107 74l74 84q81 -76 147 -76q89 0 132 105l84 213l-349 843h-118v88h493v-88h-129l217 -536l201 536h-135v88h389v-88h-131zM479 1380l297 -340h-133l-297 195z" />
    <glyph glyph-name="uni2000" unicode="&#x2000;" horiz-adv-x="921" 
 />
    <glyph glyph-name="uni2001" unicode="&#x2001;" horiz-adv-x="1843" 
 />
    <glyph glyph-name="uni2002" unicode="&#x2002;" horiz-adv-x="921" 
 />
    <glyph glyph-name="uni2003" unicode="&#x2003;" horiz-adv-x="1843" 
 />
    <glyph glyph-name="uni2004" unicode="&#x2004;" horiz-adv-x="614" 
 />
    <glyph glyph-name="uni2005" unicode="&#x2005;" horiz-adv-x="460" 
 />
    <glyph glyph-name="uni2006" unicode="&#x2006;" horiz-adv-x="307" 
 />
    <glyph glyph-name="uni2007" unicode="&#x2007;" horiz-adv-x="307" 
 />
    <glyph glyph-name="uni2008" unicode="&#x2008;" horiz-adv-x="230" 
 />
    <glyph glyph-name="uni2009" unicode="&#x2009;" horiz-adv-x="368" 
 />
    <glyph glyph-name="uni200A" unicode="&#x200a;" horiz-adv-x="102" 
 />
    <glyph glyph-name="uni2010" unicode="&#x2010;" horiz-adv-x="626" 
d="M545 594v-119h-467v119h467z" />
    <glyph glyph-name="uni2011" unicode="&#x2011;" horiz-adv-x="626" 
d="M545 594v-119h-467v119h467z" />
    <glyph glyph-name="figuredash" unicode="&#x2012;" horiz-adv-x="626" 
d="M545 594v-119h-467v119h467z" />
    <glyph glyph-name="endash" unicode="&#x2013;" horiz-adv-x="843" 
d="M842 594v-119h-842v119h842z" />
    <glyph glyph-name="emdash" unicode="&#x2014;" horiz-adv-x="1716" 
d="M1651 594v-119h-1590v119h1590z" />
    <glyph glyph-name="quoteleft" unicode="&#x2018;" horiz-adv-x="462" 
d="M98 1081q0 62 22.5 118t54 92.5t65 63t56.5 38.5t28 10l61 -62q-51 -34 -68 -49q-72 -63 -79 -123h8q49 0 86 -40.5t37 -90.5q0 -53 -38 -90t-91 -37q-59 0 -100.5 41.5t-41.5 128.5z" />
    <glyph glyph-name="quoteright" unicode="&#x2019;" horiz-adv-x="462" 
d="M369 1243q0 -65 -23 -122t-55 -92t-66 -60.5t-56 -36t-26 -10.5l-61 61q3 1 16.5 9.5t35 25t41.5 36.5t35.5 47.5t18.5 53.5h-8q-49 0 -86 40.5t-37 90.5q0 53 38 90t91 37q59 0 100.5 -41.5t41.5 -128.5z" />
    <glyph glyph-name="quotesinglbase" unicode="&#x201a;" horiz-adv-x="462" 
d="M369 70q0 -65 -23 -122.5t-55 -92.5t-66 -60.5t-56 -36t-26 -10.5l-61 62q3 1 16.5 9.5t35 25t41.5 36.5t35.5 47.5t18.5 53.5h-8q-49 0 -86 40.5t-37 90.5q0 53 38 90t91 37q59 0 100.5 -41.5t41.5 -128.5z" />
    <glyph glyph-name="quotedblleft" unicode="&#x201c;" horiz-adv-x="780" 
d="M410 1081q0 62 22 118t53.5 92.5t65 63t56.5 38.5t28 10l61 -62q-51 -34 -68 -49q-72 -63 -79 -123h8q49 0 86 -40.5t37 -90.5q0 -53 -38 -90t-91 -37q-59 0 -100 41.5t-41 128.5zM98 1081q0 62 22.5 118t54 92.5t65 63t56.5 38.5t28 10l61 -62q-51 -34 -68 -49
q-72 -63 -79 -123h8q49 0 86 -40.5t37 -90.5q0 -53 -38 -90t-91 -37q-59 0 -100.5 41.5t-41.5 128.5z" />
    <glyph glyph-name="quotedblright" unicode="&#x201d;" horiz-adv-x="780" 
d="M369 1243q0 -65 -23 -122t-55 -92t-66 -60.5t-56 -36t-26 -10.5l-61 61q3 1 16.5 9.5t35 25t41.5 36.5t35.5 47.5t18.5 53.5h-8q-49 0 -86 40.5t-37 90.5q0 53 38 90t91 37q59 0 100.5 -41.5t41.5 -128.5zM680 1243q0 -65 -23 -122t-54.5 -92t-65.5 -60.5t-56 -36
t-26 -10.5l-62 61q9 3 39 23.5t67.5 63.5t41.5 85h-9q-49 0 -85.5 40.5t-36.5 90.5q0 53 38 90t91 37q59 0 100 -41.5t41 -128.5z" />
    <glyph glyph-name="quotedblbase" unicode="&#x201e;" horiz-adv-x="780" 
d="M369 70q0 -65 -23 -122.5t-55 -92.5t-66 -60.5t-56 -36t-26 -10.5l-61 62q3 1 16.5 9.5t35 25t41.5 36.5t35.5 47.5t18.5 53.5h-8q-49 0 -86 40.5t-37 90.5q0 53 38 90t91 37q59 0 100.5 -41.5t41.5 -128.5zM680 70q0 -65 -23 -122.5t-54.5 -92.5t-65.5 -60.5t-56 -36
t-26 -10.5l-62 62q9 3 39 23.5t67.5 63.5t41.5 85h-9q-49 0 -85.5 40.5t-36.5 90.5q0 53 38 90t91 37q59 0 100 -41.5t41 -128.5z" />
    <glyph glyph-name="dagger" unicode="&#x2020;" horiz-adv-x="962" 
d="M514 141h-84l-43 586l37 139l-367 -43v181l371 -46l-49 367h180l-45 -367l367 46v-181l-365 43l41 -139z" />
    <glyph glyph-name="daggerdbl" unicode="&#x2021;" horiz-adv-x="968" 
d="M424 578l-43 145l37 143l-367 -43v181l371 -46l-49 367h180l-45 -367l369 46v-181l-365 43l39 -143l-37 -145l367 43v-181l-369 47l45 -366h-178l47 366l-369 -47v181z" />
    <glyph glyph-name="bullet" unicode="&#x2022;" horiz-adv-x="514" 
d="M94 604q0 72 50 122t124 50q72 0 121 -50t49 -122q0 -76 -48.5 -125t-121.5 -49q-75 0 -124.5 49t-49.5 125z" />
    <glyph glyph-name="ellipsis" unicode="&#x2026;" horiz-adv-x="1368" 
d="M539 111q0 61 39 99t100 38q62 0 100.5 -38t38.5 -99q0 -59 -39 -99.5t-100 -40.5q-60 0 -99.5 40.5t-39.5 99.5zM997 111q0 61 39.5 99t98.5 38q63 0 101 -37.5t38 -99.5q0 -60 -38.5 -100t-100.5 -40q-58 0 -98 40.5t-40 99.5zM84 111q0 61 38 99t99 38q59 0 98 -38
t39 -99q0 -59 -39.5 -99.5t-97.5 -40.5q-61 0 -99 40t-38 100z" />
    <glyph glyph-name="uni202F" unicode="&#x202f;" horiz-adv-x="368" 
 />
    <glyph glyph-name="perthousand" unicode="&#x2030;" horiz-adv-x="2025" 
d="M1071 0q-127 0 -211 90.5t-84 263.5q0 172 84.5 264.5t210.5 92.5q125 0 208 -89.5t83 -267.5q0 -170 -84 -262t-207 -92zM330 614q-124 0 -207.5 91t-83.5 268q0 168 84.5 260t206.5 92q127 0 212 -88.5t85 -263.5q0 -172 -86 -265.5t-211 -93.5zM1688 0q-123 0 -208 91
t-85 263q0 171 85.5 264t207.5 93q126 0 210 -89.5t84 -267.5q0 -170 -85 -262t-209 -92zM238 973q0 -58 3.5 -101.5t12.5 -85.5t28 -64t48 -22q92 0 92 273q0 57 -3.5 99.5t-12.5 83.5t-28 63t-48 22q-92 0 -92 -268zM1597 354q0 -56 3 -97.5t12 -82.5t28 -62.5t48 -21.5
q96 0 96 264q0 273 -96 273q-29 0 -48 -23t-28 -65.5t-12 -85t-3 -99.5zM977 354q0 -264 94 -264q92 0 92 264q0 273 -92 273q-94 0 -94 -273zM885 1378h137l-512 -1431h-137z" />
    <glyph glyph-name="guilsinglleft" unicode="&#x2039;" horiz-adv-x="612" 
d="M492 57l-443 416l443 416l75 -72l-262 -344l262 -344z" />
    <glyph glyph-name="guilsinglright" unicode="&#x203a;" horiz-adv-x="622" 
d="M573 473l-440 -416l-78 70l264 346l-264 346l78 70z" />
    <glyph glyph-name="fraction" unicode="&#x2044;" horiz-adv-x="557" 
d="M467 1378h135l-516 -1431h-137z" />
    <glyph glyph-name="uni205F" unicode="&#x205f;" horiz-adv-x="460" 
 />
    <glyph glyph-name="Euro" unicode="&#x20ac;" horiz-adv-x="1230" 
d="M1063 244l86 -76q-157 -188 -408 -188q-138 0 -247 41.5t-178 113.5t-109 159.5t-55 190.5h-168v107h161v43q0 63 5 104h-166v105h182q26 107 74 195.5t117.5 158.5t168 109t215.5 39q152 0 260 -48.5t173 -123.5v-224h-173q-14 153 -92 229t-170 76q-80 0 -142.5 -33
t-101.5 -91t-61.5 -129.5t-30.5 -157.5h467v-105h-469q0 -86 7 -147h462v-107h-442q39 -176 119 -283.5t194 -107.5q187 0 322 150z" />
    <glyph glyph-name="trademark" unicode="&#x2122;" horiz-adv-x="1163" 
d="M39 1155v162h430v-162h-70l-41 105h-49v-412h70v-55h-248v55h64v412h-43l-41 -105h-72zM1122 1260h-57v-412h57v-55h-229v55h61v250l-110 -305h-82l-117 305v-250h55v-55h-196v55h61v412h-61v57h172l143 -356l133 356h170v-57z" />
    <glyph glyph-name="partialdiff" unicode="&#x2202;" horiz-adv-x="1015" 
d="M311 1374q27 2 72 2q272 0 427 -167.5t155 -467.5q0 -95 -20 -197t-64 -204t-106 -182t-154.5 -130.5t-200.5 -50.5q-98 0 -170 27t-112.5 75.5t-59.5 106.5t-19 127q0 107 37 217t101.5 200.5t164 148t213.5 57.5q135 0 205 -107q0 72 -14 136t-48.5 124.5t-88 103.5
t-138.5 69t-194 26zM434 66q69 0 122.5 47.5t83.5 126t45 168t15 184.5q0 114 -32 185t-97 71q-68 0 -121 -49.5t-83 -129.5t-45 -167.5t-15 -175.5q0 -115 31 -187.5t96 -72.5z" />
    <glyph glyph-name="Delta" unicode="&#x2206;" horiz-adv-x="1210" 
d="M1147 0h-1110v74l522 1239h82l506 -1239v-74zM559 1020l-369 -875h713z" />
    <glyph glyph-name="product" unicode="&#x220f;" horiz-adv-x="1335" 
d="M1286 1229h-141v-1424h141v-100h-522v100h135v1414h-477v-1414h135v-100h-518v100h137v1424h-137v96h1247v-96z" />
    <glyph glyph-name="summation" unicode="&#x2211;" horiz-adv-x="1208" 
d="M307 1225l420 -627l-467 -688h647l68 168h125v-373h-1053v94l483 709l-491 723v94h1053v-373h-123l-109 273h-553z" />
    <glyph glyph-name="radical" unicode="&#x221a;" horiz-adv-x="874" 
d="M760 1513l-266 -1581l-381 838l-140 -74l-43 84l263 144l268 -588l194 1186z" />
    <glyph glyph-name="infinity" unicode="&#x221e;" horiz-adv-x="1247" 
d="M872 645q-66 0 -190 -113q117 -117 186 -124q50 0 85.5 34.5t35.5 79.5q0 58 -33.5 90.5t-83.5 32.5zM346 410q37 0 86 35t92 81q-103 119 -190 119q-49 0 -83 -37.5t-34 -85.5q0 -47 38.5 -79.5t90.5 -32.5zM1106 526q0 -102 -69 -164.5t-169 -62.5q-126 0 -268 139
q-36 -32 -57.5 -49.5t-58.5 -42t-75 -36t-79 -11.5q-98 0 -164 66.5t-66 160.5q0 97 68 162.5t174 65.5q112 0 264 -148q46 45 80 72.5t87.5 51.5t107.5 24q99 0 162 -65t63 -163z" />
    <glyph glyph-name="integral" unicode="&#x222b;" horiz-adv-x="704" 
d="M684 1239q-93 74 -156 74q-122 0 -122 -197v-1227q0 -86 -30 -152t-80 -103t-108 -55.5t-122 -18.5q-131 0 -240 92l78 80q92 -76 151 -76q61 0 93 45.5t32 153.5v1224q0 87 30.5 153.5t80.5 104t107.5 56t119.5 18.5q131 0 242 -96z" />
    <glyph glyph-name="approxequal" unicode="&#x2248;" horiz-adv-x="946" 
d="M801 524l71 -88q-40 -60 -100.5 -96.5t-128.5 -36.5q-66 0 -185 49t-184 47q-36 0 -70 -25.5t-81 -76.5l-72 82q89 132 234 135q65 2 130.5 -21t126 -47t111.5 -24q77 0 148 102zM801 772l71 -88q-40 -59 -101 -96t-128 -37q-64 0 -180 47t-182 47q-76 0 -156 -113
l-76 82q95 145 236 148q70 2 186.5 -44t181.5 -46q70 0 148 100z" />
    <glyph glyph-name="notequal" unicode="&#x2260;" horiz-adv-x="1007" 
d="M598 989h131l-119 -338h314v-119h-353l-51 -129h404v-120h-445l-114 -336h-134l119 336h-268v120h311l45 129h-356v119h399z" />
    <glyph glyph-name="lessequal" unicode="&#x2264;" horiz-adv-x="1007" 
d="M924 272v-131l-842 332v117l842 328v-136l-654 -252zM924 117v-117h-842v117h842z" />
    <glyph glyph-name="greaterequal" unicode="&#x2265;" horiz-adv-x="1007" 
d="M82 141v131l653 258l-653 252v136l842 -328v-117zM924 117v-117h-842v117h842z" />
    <glyph glyph-name="lozenge" unicode="&#x25ca;" horiz-adv-x="942" 
d="M698 680l-241 477l-234 -477l236 -481zM827 680l-323 -633h-90l-322 633l318 637h96z" />
    <glyph glyph-name="uni25FC" unicode="&#x25fc;" horiz-adv-x="911" 
d="M0 911h911v-911h-911v911z" />
    <glyph glyph-name="uniF8FF" unicode="&#xf8ff;" horiz-adv-x="825" 
 />
    <glyph glyph-name="uniFB01" unicode="&#xfb01;" horiz-adv-x="1310" 
d="M694 1231q-21 22 -36.5 35.5t-46.5 27t-66 13.5q-63 0 -98 -42.5t-35 -148.5v-196h256v-93h-256v-739h190v-88h-559v88h141v739h-133v93h133v147q0 87 29.5 155t78.5 108t106 60.5t118 20.5q51 0 91.5 -9.5t72.5 -31.5t45.5 -34t40.5 -40zM874 88v739h-143v84l373 25
v-848h160v-88h-547v88h157zM848 1208q0 59 40 100.5t101 41.5t101 -41.5t40 -100.5q0 -60 -40 -100.5t-101 -40.5t-101 40.5t-40 100.5z" />
    <glyph glyph-name="uniFB02" unicode="&#xfb02;" horiz-adv-x="1220" 
d="M834 1303h-250q-24 4 -39 4q-63 0 -98 -42.5t-35 -148.5v-196h256v-93h-256v-739h190v-88h-559v88h141v739h-133v93h133v147q0 87 29.5 155t78.5 108t106 60.5t118 20.5q76 0 139 -29l408 27v-1321h127v-88h-483v88h127v1215z" />
    </font>
</defs>
</svg>
