<svg id="Layer_1" data-name="Layer 1" xmlns="http://www.w3.org/2000/svg" viewBox="0 0 1123.48 491.63"><title>LOGOSMINI</title><path d="M1123.48,114.14H767C723.29,45.58,646.61,0,559.47,0S395.65,45.58,352,114.14H0v2l32,32.2H333.81a243.82,243.82,0,0,0-13.94,42.39H74.1l34,34.24H314.55c-.58,6.86-.89,13.79-.89,20.79q0,10.92,1,21.61H150.24l34,34.24h135.8a243.15,243.15,0,0,0,14.47,43.21H227.18l34,34.24H353c43.83,67.66,120,112.52,206.43,112.52s162.6-44.86,206.44-112.52h92.43l34-34.24H784.42a244.75,244.75,0,0,0,14.46-43.21H935.29l34-34.24h-165c.62-7.12,1-14.33,1-21.61,0-7-.31-13.93-.89-20.79h207l34-34.24H799.07a243.82,243.82,0,0,0-13.94-42.39h302.43ZM763.54,301.66h0c-.15.53-.31,1-.46,1.57q-1.32,4.71-2.85,9.32l-.3.87A212.08,212.08,0,0,1,636.61,442.81l-1.23.49q-3.58,1.38-7.23,2.62c-1.24.43-2.47.85-3.71,1.25-1.46.48-2.92.92-4.4,1.36q-2.88.87-5.82,1.66c-1.37.36-2.76.71-4.14,1.05q-3,.75-6.12,1.41c-1,.22-2,.44-3,.64-2.58.52-5.18,1-7.79,1.39-.77.13-1.53.26-2.3.37q-4.37.65-8.77,1.11l-2,.2c-3.08.3-6.18.55-9.29.71l-1.29.06c-3.34.15-6.69.25-10.06.25s-6.72-.1-10.05-.25l-1.29-.06c-3.12-.16-6.22-.41-9.3-.71l-2-.19q-4.41-.48-8.78-1.12c-.77-.11-1.52-.24-2.28-.36-2.63-.43-5.25-.88-7.85-1.4-1-.2-2-.42-3-.63q-3.1-.66-6.18-1.43c-1.33-.32-2.66-.65-4-1q-3-.81-6-1.7c-1.45-.44-2.9-.88-4.34-1.35s-2.76-.92-4.14-1.4q-3.42-1.17-6.78-2.47l-1.39-.54q-5-1.95-9.76-4.12l-.09,0A212.13,212.13,0,0,1,359.05,313.55c-.13-.36-.25-.73-.37-1.09q-1.47-4.44-2.75-8.95c-.17-.62-.36-1.23-.53-1.85h0a211.11,211.11,0,0,1-6.45-34.6c-.33-3.39-.6-6.79-.77-10.22,0-.08,0-.17,0-.25q-.27-5.35-.27-10.78t.27-10.55c.12-2.54.34-5,.55-7.55.08-.89.12-1.8.2-2.69h0a209.86,209.86,0,0,1,9.52-45.18l.1-.31A212.09,212.09,0,0,1,481.68,49.07l1.28-.51q4.16-1.61,8.37-3c.92-.31,1.84-.63,2.77-.93q2.29-.75,4.6-1.44,3.21-1,6.46-1.84c1.23-.33,2.47-.63,3.72-.93q3-.75,6.09-1.41c1.19-.25,2.38-.5,3.57-.73q3.54-.7,7.11-1.27l2.41-.39c2.87-.43,5.75-.79,8.66-1.1l2.18-.23q4.53-.44,9.11-.69l1.58-.07c3.28-.15,6.57-.25,9.88-.25s6.6.1,9.88.25l1.59.07q4.57.25,9.1.69l2.19.23c2.9.31,5.78.67,8.65,1.1.81.12,1.61.26,2.42.39,2.37.38,4.74.8,7.08,1.26,1.21.24,2.41.49,3.61.75,2,.43,4,.9,6.06,1.39l3.74.94q3.24.87,6.44,1.83,2.32.7,4.64,1.45c.89.29,1.77.6,2.66.9,2.85,1,5.69,2,8.49,3.09l1.19.47c72.22,28.56,125,95.66,132.8,176h0c.05.55.07,1.1.12,1.65.26,2.86.49,5.73.64,8.63.09,1.83.09,3.69.14,5.53,0,1.67.12,3.31.12,5A211.64,211.64,0,0,1,763.54,301.66Z"/><polygon points="456.31 278.77 428.53 191.73 396.82 191.73 396.82 300.75 418.11 300.75 418.11 219.44 444.31 300.75 468.09 300.75 493.61 220.04 493.61 300.75 515.58 300.75 515.58 191.73 483.87 191.73 456.31 278.77"/><rect x="540.34" y="191.73" width="22.57" height="109.01"/><polygon points="657.73 270.77 614.25 191.73 587.67 191.73 587.67 300.75 609.34 300.75 609.34 222.08 652.75 300.75 679.32 300.75 679.32 191.73 657.73 191.73 657.73 270.77"/><rect x="704.09" y="191.73" width="22.57" height="109.01"/></svg>